<?xml version="1.0" encoding="utf-8"?>
<!-- Generator: Adobe Illustrator 16.0.0, SVG Export Plug-In . SVG Version: 6.00 Build 0)  -->
<!DOCTYPE svg PUBLIC "-//W3C//DTD SVG 1.1//EN" "http://www.w3.org/Graphics/SVG/1.1/DTD/svg11.dtd">
<svg version="1.1" id="Layer_1" xmlns="http://www.w3.org/2000/svg" xmlns:xlink="http://www.w3.org/1999/xlink" x="0px" y="0px"
	 width="24px" height="24px" viewBox="0 0 24 24" enable-background="new 0 0 24 24" xml:space="preserve">
<path fill="#FFCD33" d="M24,21.077c0,1.656-1.343,3-3,3H3c-1.657,0-3-1.344-3-3v-18c0-1.657,1.343-3,3-3h18c1.657,0,3,1.343,3,3
	V21.077z"/>
<g>
	<path d="M6.672,12.077c0-1.025,0.105-1.907,0.316-2.647C7.2,8.69,7.528,8.088,7.974,7.62c0.444-0.467,1.018-0.811,1.719-1.029
		c0.702-0.219,1.542-0.328,2.522-0.328c1.81,0,3.115,0.441,3.914,1.323c0.8,0.882,1.199,2.319,1.199,4.31
		c0,0.197-0.003,0.375-0.011,0.532c-0.008,0.159-0.021,0.321-0.034,0.486H9.5c0.06,0.995,0.374,1.709,0.939,2.139
		c0.566,0.43,1.459,0.644,2.682,0.644c1.235,0,2.48-0.18,3.731-0.542v2.217c-0.604,0.181-1.229,0.313-1.877,0.396
		c-0.648,0.082-1.343,0.124-2.081,0.124c-1.102,0-2.044-0.109-2.828-0.328c-0.785-0.219-1.429-0.565-1.935-1.041
		c-0.506-0.475-0.875-1.078-1.108-1.81C6.789,13.98,6.672,13.103,6.672,12.077z M12.215,8.298c-0.905,0-1.569,0.215-1.991,0.646
		C9.802,9.374,9.56,10.078,9.5,11.059h5.046c-0.029-0.996-0.224-1.704-0.577-2.126C13.614,8.51,13.029,8.298,12.215,8.298z"/>
</g>
</svg>
