<?xml version="1.0" encoding="utf-8"?>
<!-- Generator: Adobe Illustrator 16.0.0, SVG Export Plug-In . SVG Version: 6.00 Build 0)  -->
<!DOCTYPE svg PUBLIC "-//W3C//DTD SVG 1.1//EN" "http://www.w3.org/Graphics/SVG/1.1/DTD/svg11.dtd">
<svg version="1.1" id="Layer_1" xmlns="http://www.w3.org/2000/svg" xmlns:xlink="http://www.w3.org/1999/xlink" x="0px" y="0px"
	 width="42px" height="42px" viewBox="0 0 42 42" enable-background="new 0 0 42 42" xml:space="preserve">
<title>i_copy</title>
<desc>Created with Sketch.</desc>
<g id="Page-1_1_">
	<g id="i_copy">
		<path id="Page-1" fill="#53565A" d="M9.906,13.456h14.527c0.669,0,1.21,0.539,1.21,1.21v21.792c0,0.666-0.541,1.21-1.21,1.21
			H9.906c-0.669,0-1.21-0.544-1.21-1.21V14.667C8.696,13.995,9.237,13.456,9.906,13.456z M6.275,36.859
			c0,1.776,1.306,3.229,2.906,3.229H25.16c1.598,0,2.905-1.453,2.905-3.229v-22.6c0-1.773-1.308-3.225-2.905-3.225H9.181
			c-1.6,0-2.906,1.452-2.906,3.225V36.859z M13.538,6.191h9.685c4.034,0,7.032,0,8.995,0c0.472,0.039,0.674,0.237,0.689,0.791
			c0,7.543,0,15.039,0,22.486h2.422V6.982c0-1.766-1.402-3.212-3.111-3.212h-18.68V6.191z"/>
	</g>
</g>
</svg>
