<?xml version="1.0" encoding="utf-8"?>
<!-- Generator: Adobe Illustrator 16.0.0, SVG Export Plug-In . SVG Version: 6.00 Build 0)  -->
<!DOCTYPE svg PUBLIC "-//W3C//DTD SVG 1.1//EN" "http://www.w3.org/Graphics/SVG/1.1/DTD/svg11.dtd">
<svg version="1.1" id="Layer_1" xmlns="http://www.w3.org/2000/svg" xmlns:xlink="http://www.w3.org/1999/xlink" x="0px" y="0px"
	 width="25.6px" height="25.598px" viewBox="0 0 25.6 25.598" enable-background="new 0 0 25.6 25.598" xml:space="preserve">
<path d="M12.966,0.001L0.166,7.2c0,1.823,0,15.198,0,15.198c0,1.769,1.434,3.2,3.2,3.2h19.199c1.768,0,3.2-1.432,3.2-3.2
	c0,0,0-13.447,0-15.197L12.966,0.001z M1.765,22.399V9.9l7.253,5.786l-7.178,7.176C1.797,22.715,1.765,22.561,1.765,22.399z
	 M3.01,23.957l7.35-7.351l2.605,1.791l2.605-1.791l7.35,7.351C22.806,23.983,3.125,23.983,3.01,23.957z M24.165,22.399
	c0,0.163-0.031,0.317-0.076,0.464l-7.177-7.176L24.165,9.9V22.399z M12.966,16.524L1.766,8.001l11.186-6.135l11.214,6.135
	L12.966,16.524z"/>
</svg>
