<?xml version="1.0" encoding="utf-8"?>
<!-- Generator: Adobe Illustrator 16.0.0, SVG Export Plug-In . SVG Version: 6.00 Build 0)  -->
<!DOCTYPE svg PUBLIC "-//W3C//DTD SVG 1.1//EN" "http://www.w3.org/Graphics/SVG/1.1/DTD/svg11.dtd">
<svg version="1.1" id="Layer_1" xmlns="http://www.w3.org/2000/svg" xmlns:xlink="http://www.w3.org/1999/xlink" x="0px" y="0px"
	 width="26px" height="32px" viewBox="0 0 26 32" enable-background="new 0 0 26 32" xml:space="preserve">
<path fill="#ffffff" fill-rule="evenodd" clip-rule="evenodd" d="M24,10v18c0,2.209-1.791,4-4,4H6c-2.209,0-4-1.791-4-4V10c-1.104,0-2-0.896-2-2V6
	c0-1.104,0.896-2,2-2h6V2c0-1.104,0.896-2,2-2h6c1.104,0,2,0.896,2,2v2h6c1.104,0,2,0.896,2,2v2C26,9.104,25.104,10,24,10z M4,10v18
	c0,1.104,0.896,2,2,2h14c1.104,0,2-0.896,2-2V10C20.875,10,5.375,10,4,10z M10,4V3c0-0.552,0.447-1,1-1h4c0.553,0,1,0.448,1,1v1
	C15.031,4,10,4,10,4 M23,6H3C2.447,6,2,6.448,2,7s0.447,1,1,1h20c0.553,0,1-0.448,1-1S23.553,6,23,6z M8,14c0.552,0,1,0.448,1,1v12
	c0,0.553-0.448,1-1,1s-1-0.447-1-1V15C7,14.448,7.448,14,8,14z M13,14c0.552,0,1,0.448,1,1v12c0,0.553-0.448,1-1,1s-1-0.447-1-1V15
	C12,14.448,12.448,14,13,14z M18,14c0.553,0,1,0.448,1,1v12c0,0.553-0.447,1-1,1s-1-0.447-1-1V15C17,14.448,17.447,14,18,14z"/>
</svg>
