<?xml version="1.0" encoding="utf-8"?>
<!-- Generator: Adobe Illustrator 16.0.0, SVG Export Plug-In . SVG Version: 6.00 Build 0)  -->
<!DOCTYPE svg PUBLIC "-//W3C//DTD SVG 1.1//EN" "http://www.w3.org/Graphics/SVG/1.1/DTD/svg11.dtd">
<svg version="1.1" id="Layer_1" xmlns="http://www.w3.org/2000/svg" xmlns:xlink="http://www.w3.org/1999/xlink" x="0px" y="0px"
	 width="25.6px" height="25.598px" viewBox="0 0 25.6 25.598" enable-background="new 0 0 25.6 25.598" xml:space="preserve">
<g>
	<path d="M13.451,22.509c-0.797,0-2.512-0.131-3.267-0.255l-5.474,3.169v-5.507c-2.538-2.161-3.885-5.159-3.885-8.694
		c0-6.101,5.644-11.045,12.624-11.045c5.804,0,11.652,4.945,11.652,11.045C25.104,17.323,20.421,22.509,13.451,22.509z
		 M9.967,20.301c0.809,0.167,2.615,0.266,3.484,0.266c5.898,0,9.71-4.13,9.71-9.225c0-5.094-4.881-9.225-9.71-9.225
		c-6.067,0-10.682,4.131-10.682,9.225c0,3.236,1.515,5.804,3.884,7.727v3.439L9.967,20.301z"/>
	<path d="M6.997,9.76H5.962c-0.143,0-0.266-0.034-0.366-0.099C5.491,9.597,5.429,9.505,5.404,9.384
		C5.401,9.353,5.395,9.316,5.389,9.278c0-0.15,0.056-0.269,0.162-0.352C5.659,8.843,5.794,8.798,5.96,8.798h3.161
		c0.145,0,0.266,0.034,0.368,0.099C9.591,8.961,9.653,9.053,9.68,9.175C9.685,9.207,9.689,9.24,9.687,9.278
		c0,0.155-0.053,0.272-0.158,0.357C9.425,9.717,9.29,9.76,9.123,9.76H8.089v3.564c-0.002,0.17-0.051,0.309-0.15,0.411
		c-0.098,0.105-0.231,0.154-0.4,0.154c-0.139,0-0.254-0.037-0.349-0.111c-0.098-0.075-0.16-0.18-0.187-0.309
		c-0.01-0.049-0.012-0.094-0.01-0.146L6.997,9.76z"/>
	<path d="M9.952,9.057c0.043-0.125,0.111-0.215,0.199-0.268c0.087-0.053,0.199-0.08,0.336-0.08h0.261
		c0.144,0,0.266,0.03,0.358,0.087c0.098,0.056,0.173,0.167,0.227,0.33l1.321,3.829c0.044,0.118,0.071,0.221,0.089,0.306
		c0.01,0.056,0.021,0.101,0.021,0.13c-0.002,0.142-0.056,0.258-0.156,0.355s-0.22,0.143-0.363,0.143
		c-0.253,0-0.418-0.104-0.492-0.311l-0.281-0.833H9.709l-0.284,0.833c-0.067,0.207-0.231,0.311-0.491,0.311
		c-0.127,0-0.234-0.029-0.322-0.098c-0.087-0.066-0.144-0.164-0.166-0.281c-0.008-0.037-0.01-0.074-0.01-0.119
		c-0.004-0.055,0.006-0.121,0.027-0.201c0.021-0.078,0.046-0.157,0.073-0.234L9.952,9.057z M10.614,9.946h-0.013l-0.646,2.01h1.279
		L10.614,9.946z"/>
	<path d="M12.933,9.278c0-0.17,0.049-0.308,0.149-0.412c0.099-0.104,0.233-0.155,0.402-0.155c0.137,0,0.254,0.037,0.352,0.114
		c0.093,0.076,0.155,0.181,0.182,0.31c0.01,0.047,0.014,0.096,0.01,0.145l-0.002,3.566h1.829c0.146,0,0.271,0.031,0.369,0.097
		c0.101,0.067,0.163,0.159,0.187,0.277c0.008,0.032,0.014,0.07,0.018,0.106c0,0.149-0.057,0.271-0.161,0.354
		c-0.108,0.082-0.242,0.123-0.407,0.123h-2.283c-0.169,0-0.309-0.033-0.412-0.104c-0.106-0.068-0.176-0.181-0.207-0.337
		c-0.014-0.066-0.021-0.143-0.024-0.224V9.278z"/>
	<path d="M16.536,9.278c0-0.17,0.05-0.308,0.149-0.412c0.098-0.104,0.231-0.155,0.4-0.155c0.14,0,0.254,0.037,0.35,0.114
		c0.097,0.076,0.156,0.181,0.185,0.31c0.009,0.047,0.015,0.096,0.011,0.145l0.004,1.658l1.718-1.976
		c0.078-0.084,0.146-0.146,0.21-0.189C19.624,8.73,19.7,8.71,19.789,8.71c0.12,0,0.23,0.033,0.328,0.102
		c0.099,0.065,0.157,0.153,0.183,0.268c0,0.003,0.002,0.02,0.009,0.042c0,0.016,0,0.034,0.003,0.046
		c-0.001,0.08-0.02,0.148-0.052,0.208c-0.033,0.063-0.076,0.122-0.131,0.183l-1.125,1.229l1.33,2.105l0.041,0.064
		c0.09,0.144,0.144,0.249,0.157,0.316c0,0.004,0.002,0.018,0.008,0.035c0,0.019,0,0.029,0,0.035c0,0.197-0.055,0.336-0.165,0.42
		c-0.107,0.084-0.242,0.127-0.396,0.127c-0.114,0-0.203-0.018-0.273-0.057c-0.072-0.047-0.145-0.123-0.216-0.238l-1.261-2.031
		l-0.603,0.626l0.007,1.134c-0.002,0.17-0.054,0.309-0.15,0.411c-0.1,0.105-0.233,0.154-0.4,0.154c-0.139,0-0.256-0.037-0.353-0.111
		c-0.096-0.075-0.157-0.18-0.184-0.309c-0.01-0.049-0.012-0.094-0.012-0.146L16.536,9.278L16.536,9.278z"/>
</g>
</svg>
