<?xml version="1.0" encoding="utf-8"?>
<!-- Generator: Adobe Illustrator 16.0.0, SVG Export Plug-In . SVG Version: 6.00 Build 0)  -->
<!DOCTYPE svg PUBLIC "-//W3C//DTD SVG 1.1//EN" "http://www.w3.org/Graphics/SVG/1.1/DTD/svg11.dtd">
<svg version="1.1" id="Layer_1" xmlns="http://www.w3.org/2000/svg" xmlns:xlink="http://www.w3.org/1999/xlink" x="0px" y="0px"
	 width="26px" height="26px" viewBox="0 0 26 26" enable-background="new 0 0 26 26" xml:space="preserve">
<path d="M26,17.063v8.125C26,25.637,25.637,26,25.188,26s-0.813-0.363-0.813-0.813v-5.898C22.158,23.289,17.897,26,13,26
	C6.372,26,0.914,21.036,0.112,14.625h1.642c0.791,5.51,5.517,9.75,11.246,9.75c4.535,0,8.438-2.66,10.266-6.5h-6.203
	c-0.449,0-0.813-0.363-0.813-0.813s0.363-0.813,0.813-0.813h8.125C25.188,16.25,26,16.199,26,17.063z M8.938,9.75
	c0.449,0,0.813-0.364,0.813-0.813S9.386,8.125,8.938,8.125H2.729c1.826-3.841,5.735-6.5,10.271-6.5c5.729,0,10.455,4.24,11.246,9.75
	h1.642C25.086,4.964,19.628,0,13,0C8.103,0,3.841,2.711,1.625,6.711V0.813C1.625,0.364,1.261,0,0.813,0S0,0.364,0,0.813v8.125
	C0,9.725,0.813,9.75,0.813,9.75H8.938z"/>
</svg>
