<?xml version="1.0" encoding="utf-8"?>
<!-- Generator: Adobe Illustrator 16.0.0, SVG Export Plug-In . SVG Version: 6.00 Build 0)  -->
<!DOCTYPE svg PUBLIC "-//W3C//DTD SVG 1.1//EN" "http://www.w3.org/Graphics/SVG/1.1/DTD/svg11.dtd">
<svg version="1.1" id="Layer_1" xmlns="http://www.w3.org/2000/svg" xmlns:xlink="http://www.w3.org/1999/xlink" x="0px" y="0px"
	 width="25.6px" height="25.598px" viewBox="0 0 25.6 25.598" enable-background="new 0 0 25.6 25.598" xml:space="preserve">
<path d="M16.793,25.556H8.807c-1.764,0-3.194-1.431-3.194-3.194V3.195C5.613,1.43,7.043,0,8.807,0h7.986
	c1.764,0,3.194,1.43,3.194,3.194v19.167C19.988,24.125,18.557,25.556,16.793,25.556z M18.39,3.195c0-0.881-0.715-1.597-1.597-1.597
	H8.807c-0.881,0-1.597,0.716-1.597,1.597v0.799h11.18V3.195z M18.39,5.591H7.21v10.382h11.18V5.591z M18.39,17.57H7.21v4.792
	c0,0.881,0.716,1.597,1.597,1.597h7.986c0.882,0,1.597-0.716,1.597-1.597V17.57z M12.8,22.362c-0.882,0-1.597-0.716-1.597-1.598
	c0-0.881,0.715-1.597,1.597-1.597s1.598,0.716,1.598,1.597C14.398,21.646,13.682,22.362,12.8,22.362z"/>
</svg>
