<?xml version="1.0" encoding="utf-8"?>
<!-- Generator: Adobe Illustrator 16.0.0, SVG Export Plug-In . SVG Version: 6.00 Build 0)  -->
<!DOCTYPE svg PUBLIC "-//W3C//DTD SVG 1.1//EN" "http://www.w3.org/Graphics/SVG/1.1/DTD/svg11.dtd">
<svg version="1.1" id="Layer_1" xmlns="http://www.w3.org/2000/svg" xmlns:xlink="http://www.w3.org/1999/xlink" x="0px" y="0px"
	 width="25.6px" height="25.598px" viewBox="0 0 25.6 25.598" enable-background="new 0 0 25.6 25.598" xml:space="preserve">
<path d="M22.565,13.6h-1.601V4.8c0-1.767-1.433-3.2-3.199-3.2h-9.6c-1.769,0-3.2,1.435-3.2,3.2c0,0,0,8.279,0,8.8h-1.6
	c-1.768,0-3.2,1.435-3.2,3.2v1.6c0,1.77,1.434,3.201,3.2,3.201h1.713C5.435,22.978,6.676,24,8.166,24h9.6
	c1.488,0,2.729-1.022,3.087-2.399h1.713c1.769,0,3.2-1.434,3.2-3.201v-1.6C25.765,15.032,24.332,13.6,22.565,13.6z M6.565,4.8
	c0-0.884,0.718-1.6,1.601-1.6h9.599c0.884,0,1.602,0.716,1.602,1.6v8.8h-12.8L6.565,4.8L6.565,4.8z M17.765,22.4h-9.6
	c-0.884,0-1.601-0.716-1.601-1.6s0.718-1.6,1.601-1.6h9.6c0.884,0,1.602,0.716,1.602,1.6S18.649,22.4,17.765,22.4z M24.165,18.399
	c0,0.887-0.716,1.603-1.601,1.603h-1.713c-0.357-1.378-1.599-2.399-3.087-2.399H8.166c-1.49,0-2.729,1.021-3.087,2.4H3.366
	c-0.885,0-1.601-0.716-1.601-1.603v-1.6c0-0.884,0.716-1.6,1.601-1.6h19.198c0.885,0,1.601,0.716,1.601,1.6h0.001L24.165,18.399
	L24.165,18.399z"/>
</svg>
