<?xml version="1.0" encoding="utf-8"?>
<!-- Generator: Adobe Illustrator 16.0.0, SVG Export Plug-In . SVG Version: 6.00 Build 0)  -->
<!DOCTYPE svg PUBLIC "-//W3C//DTD SVG 1.1//EN" "http://www.w3.org/Graphics/SVG/1.1/DTD/svg11.dtd">
<svg version="1.1" id="Layer_1" xmlns="http://www.w3.org/2000/svg" xmlns:xlink="http://www.w3.org/1999/xlink" x="0px" y="0px"
	 width="27.042px" height="27.521px" viewBox="0 0 27.042 27.521" enable-background="new 0 0 27.042 27.521" xml:space="preserve">
<path d="M13.313,27.228c-0.391-0.391-0.391-1.023,0-1.414l12.021-12.021c0.391-0.391,1.023-0.391,1.414,0s0.391,1.023,0,1.414
	L14.728,27.228C14.337,27.619,13.704,27.619,13.313,27.228z"/>
<path d="M12.313,27.228L0.292,15.207c-0.39-0.391-0.39-1.023,0-1.414c0.391-0.391,1.024-0.391,1.415,0l12.021,12.021
	c0.391,0.391,0.391,1.023,0,1.414S12.704,27.619,12.313,27.228z"/>
<path d="M13.521,27c-0.552,0-1-0.448-1-1V1c0-0.553,0.448-1,1-1s1,0.447,1,1v25C14.521,26.552,14.073,27,13.521,27z"/>
</svg>
