<?xml version="1.0" encoding="utf-8"?>
<!-- Generator: Adobe Illustrator 16.0.0, SVG Export Plug-In . SVG Version: 6.00 Build 0)  -->
<!DOCTYPE svg PUBLIC "-//W3C//DTD SVG 1.1//EN" "http://www.w3.org/Graphics/SVG/1.1/DTD/svg11.dtd">
<svg version="1.1" id="Layer_1" xmlns="http://www.w3.org/2000/svg" xmlns:xlink="http://www.w3.org/1999/xlink" x="0px" y="0px"
	 width="27.521px" height="27.043px" viewBox="-0.24 0.239 27.521 27.043" enable-background="new -0.24 0.239 27.521 27.043"
	 xml:space="preserve">
<path fill="#999999" d="M26.989,13.966c-0.392,0.391-1.024,0.391-1.415,0L13.553,1.945c-0.391-0.391-0.391-1.023,0-1.415
	c0.392-0.391,1.023-0.391,1.414,0l12.021,12.021C27.379,12.942,27.379,13.574,26.989,13.966z"/>
<path fill="#999999" d="M26.989,14.966L14.967,26.987c-0.391,0.391-1.022,0.391-1.414,0c-0.391-0.391-0.391-1.023,0-1.414l12.021-12.021
	c0.391-0.392,1.023-0.392,1.415,0C27.379,13.943,27.379,14.575,26.989,14.966z"/>
<path fill="#999999" d="M26.76,13.759c0,0.553-0.448,1-1,1h-25c-0.553,0-1-0.447-1-1c0-0.552,0.447-1,1-1h25
	C26.312,12.759,26.76,13.207,26.76,13.759z"/>
</svg>
