<?xml version="1.0" encoding="utf-8"?>
<!-- Generator: Adobe Illustrator 16.0.0, SVG Export Plug-In . SVG Version: 6.00 Build 0)  -->
<!DOCTYPE svg PUBLIC "-//W3C//DTD SVG 1.1//EN" "http://www.w3.org/Graphics/SVG/1.1/DTD/svg11.dtd">
<svg version="1.1" id="Layer_1" xmlns="http://www.w3.org/2000/svg" xmlns:xlink="http://www.w3.org/1999/xlink" x="0px" y="0px"
	 width="27.521px" height="27.043px" viewBox="-0.24 0.239 27.521 27.043" enable-background="new -0.24 0.239 27.521 27.043"
	 xml:space="preserve">
<path d="M0.053,13.553c0.392-0.391,1.024-0.391,1.415,0l12.021,12.021c0.391,0.391,0.391,1.023,0,1.415
	c-0.392,0.391-1.023,0.391-1.414,0L0.053,14.968C-0.337,14.577-0.337,13.945,0.053,13.553z"/>
<path d="M0.053,12.553L12.075,0.532c0.391-0.391,1.022-0.391,1.414,0c0.391,0.391,0.391,1.023,0,1.414L1.468,13.968
	c-0.391,0.392-1.023,0.392-1.415,0C-0.337,13.576-0.337,12.944,0.053,12.553z"/>
<path d="M0.282,13.76c0-0.553,0.448-1,1-1h25c0.553,0,1,0.447,1,1c0,0.552-0.447,1-1,1h-25C0.73,14.76,0.282,14.312,0.282,13.76z"/>
</svg>
