<?xml version="1.0" encoding="utf-8"?>
<!-- Generator: Adobe Illustrator 16.0.0, SVG Export Plug-In . SVG Version: 6.00 Build 0)  -->
<!DOCTYPE svg PUBLIC "-//W3C//DTD SVG 1.1//EN" "http://www.w3.org/Graphics/SVG/1.1/DTD/svg11.dtd">
<svg version="1.1" id="Layer_1" xmlns="http://www.w3.org/2000/svg" xmlns:xlink="http://www.w3.org/1999/xlink" x="0px" y="0px"
	 width="27.042px" height="27.521px" viewBox="0 0 27.042 27.521" enable-background="new 0 0 27.042 27.521" xml:space="preserve">
<path d="M13.728,0.293c0.391,0.391,0.391,1.024,0,1.415L1.708,13.728c-0.391,0.391-1.024,0.391-1.415,0s-0.391-1.023,0-1.414
	L12.314,0.293C12.705-0.098,13.337-0.098,13.728,0.293z"/>
<path d="M14.728,0.293L26.75,12.314c0.39,0.391,0.39,1.023,0,1.414c-0.391,0.391-1.024,0.391-1.415,0L13.314,1.708
	c-0.391-0.391-0.391-1.024,0-1.415S14.337-0.098,14.728,0.293z"/>
<path d="M13.521,0.521c0.552,0,1,0.448,1,1v25c0,0.553-0.448,1-1,1s-1-0.447-1-1v-25C12.521,0.969,12.969,0.521,13.521,0.521z"/>
</svg>
