<?xml version="1.0" encoding="UTF-8"?>
<svg width="auto" height="auto" viewBox="0 0 25 25" version="1.1" xmlns="http://www.w3.org/2000/svg" xmlns:xlink="http://www.w3.org/1999/xlink">
    <!-- Generator: Sketch 48.2 (47327) - http://www.bohemiancoding.com/sketch -->
    <title>i_back</title>
    <desc>Created with Sketch.</desc>
    <defs></defs>
    <g id="Page-1" stroke="none" stroke-width="1" fill="none" fill-rule="evenodd">
        <g id="i_back" fill="#bbbcbc" fill-rule="nonzero">
            <path d="M4.26163227,12.5 L8.19217901,17.6097108 C8.3814753,17.8557959 8.67433398,18 8.98480299,18 L21,18 C21.5522847,18 22,17.5522847 22,17 L22,8 C22,7.44771525 21.5522847,7 21,7 L8.98480299,7 C8.67433398,7 8.3814753,7.14420405 8.19217901,7.39028924 L4.26163227,12.5 Z M8.98480299,6 L21,6 C22.1045695,6 23,6.8954305 23,8 L23,17 C23,18.1045695 22.1045695,19 21,19 L8.98480299,19 C8.36386497,19 7.77814761,18.7115919 7.39955502,18.2194215 L3,12.5 L7.39955502,6.78057848 C7.77814761,6.28840811 8.36386497,6 8.98480299,6 Z" id="Rectangle-3"></path>
            <polygon id="Line" points="12.2928932 10 13 9.29289322 18.6568542 14.9497475 17.9497475 15.6568542"></polygon>
            <polygon id="Line-Copy" points="17.9497475 9.29289322 18.6568542 10 13 15.6568542 12.2928932 14.9497475"></polygon>
        </g>
    </g>
</svg>