<?xml version="1.0" encoding="utf-8"?>
<!-- Generator: Adobe Illustrator 16.0.0, SVG Export Plug-In . SVG Version: 6.00 Build 0)  -->
<!DOCTYPE svg PUBLIC "-//W3C//DTD SVG 1.1//EN" "http://www.w3.org/Graphics/SVG/1.1/DTD/svg11.dtd">
<svg version="1.1" id="Layer_1" xmlns="http://www.w3.org/2000/svg" xmlns:xlink="http://www.w3.org/1999/xlink" x="0px" y="0px"
	 width="auto" height="auto" viewBox="0 0 25 25" enable-background="new 0 0 25 25" xml:space="preserve" fill="#fff">
<title>i_refresh</title>
<desc>Created with Sketch.</desc>
<path d="M14.631,7.483L8.01,7.455L8.745,6.72c0.188-0.187,0.291-0.436,0.291-0.701s-0.104-0.515-0.291-0.7
	c-0.373-0.372-1.023-0.373-1.399,0L4.917,7.747C4.725,7.941,4.624,8.199,4.632,8.446C4.626,8.721,4.727,8.978,4.918,9.171
	l2.427,2.426c0.375,0.375,1.031,0.372,1.398,0.002c0.188-0.187,0.291-0.435,0.292-0.7s-0.103-0.515-0.29-0.701L7.984,9.436h6.156
	l0.281,0.012c3.09,0.134,4.467,1.301,4.467,3.783c0,2.483-1.377,3.65-4.467,3.782l-7.907,0.013c-0.546,0-0.99,0.444-0.99,0.99
	s0.444,0.99,0.99,0.99h7.44l0.035,0.014L14.059,19c0.047,0.003,0.094,0.006,0.141,0.006c4.24,0,6.67-2.105,6.67-5.775
	C20.869,9.665,18.684,7.674,14.631,7.483z"/>
</svg>
