<?xml version="1.0" encoding="utf-8"?>
<!-- Generator: Adobe Illustrator 16.0.0, SVG Export Plug-In . SVG Version: 6.00 Build 0)  -->
<!DOCTYPE svg PUBLIC "-//W3C//DTD SVG 1.1//EN" "http://www.w3.org/Graphics/SVG/1.1/DTD/svg11.dtd">
<svg version="1.1" id="Layer_1" xmlns="http://www.w3.org/2000/svg" xmlns:xlink="http://www.w3.org/1999/xlink" x="0px" y="0px"
	 width="19.977px" height="19.002px" viewBox="0 0 19.977 19.002" enable-background="new 0 0 19.977 19.002" xml:space="preserve">
<path fill-rule="evenodd" clip-rule="evenodd" d="M3.062,10.761c0.162-0.16,0.298-0.229,0.508-0.205c0,0,3.856,0,4.278,0
	C7.848,5.911,4.46,1.71,0,0.876C1.308,0.315,2.749,0,4.265,0c5.913,0,10.707,4.731,10.707,10.568h4.205
	c0.211-0.024,0.428,0.033,0.59,0.193c0.28,0.278,0.28,0.731,0,1.009l-7.809,7.029c-0.15,0.148-0.348,0.213-0.544,0.203
	c-0.196,0.01-0.395-0.055-0.544-0.203l-7.766-6.99C2.878,11.547,2.75,11.068,3.062,10.761z"/>
</svg>
