<?xml version="1.0" encoding="utf-8"?>
<!-- Generator: Adobe Illustrator 16.0.0, SVG Export Plug-In . SVG Version: 6.00 Build 0)  -->
<!DOCTYPE svg PUBLIC "-//W3C//DTD SVG 1.1//EN" "http://www.w3.org/Graphics/SVG/1.1/DTD/svg11.dtd">
<svg version="1.1" id="Layer_1" xmlns="http://www.w3.org/2000/svg" xmlns:xlink="http://www.w3.org/1999/xlink" x="0px" y="0px"
	 width="52.994px" height="52.993px" viewBox="0 0 52.994 52.993" enable-background="new 0 0 52.994 52.993" xml:space="preserve">
<g>
	<path fill="#FFCD33" d="M31.3,15h-3.325v2.001c0,0.553-0.447,1-1,1h-0.591c-0.552,0-1-0.447-1-1V15H18.71v2.001
		c0,0.553-0.448,1-1,1H17.12c-0.552,0-1-0.447-1-1V15h-3.325c-1.478,0-2.675,1.573-2.675,3.513v16.829
		c0,1.939,1.198,3.513,2.675,3.513H31.3c1.478,0,2.675-1.573,2.675-3.513V18.513C33.975,16.573,32.778,15,31.3,15z M30.964,34.64
		c0,0.568-0.448,1.027-1,1.027H14.13c-0.552,0-1-0.459-1-1.027V24.026c0-0.568,0.448-1.027,1-1.027h15.834c0.552,0,1,0.459,1,1.027
		V34.64z"/>
	<rect x="15.823" y="25.302" fill="#FFCD33" width="3.25" height="3.25"/>
	<rect x="20.422" y="25.302" fill="#FFCD33" width="3.25" height="3.25"/>
	<rect x="25.022" y="25.302" fill="#FFCD33" width="3.25" height="3.25"/>
	<rect x="15.823" y="29.802" fill="#FFCD33" width="3.25" height="3.25"/>
	<rect x="20.422" y="29.802" fill="#FFCD33" width="3.25" height="3.25"/>
	<rect x="25.022" y="29.802" fill="#FFCD33" width="3.25" height="3.25"/>
</g>
</svg>
