<?xml version="1.0" encoding="UTF-8"?>
<svg width="auto" height="auto" viewBox="0 0 25 25" version="1.1" xmlns="http://www.w3.org/2000/svg" xmlns:xlink="http://www.w3.org/1999/xlink">
    <!-- Generator: Sketch 48.2 (47327) - http://www.bohemiancoding.com/sketch -->
    <title>i_camera</title>
    <desc>Created with Sketch.</desc>
    <defs></defs>
    <g id="Page-1" stroke="none" stroke-width="1" fill="none" fill-rule="evenodd">
        <g id="i_camera" fill="#53565a">
            <g id="Page-1" transform="translate(3.000000, 4.000000)">
                <path d="M18.1743143,11.2159094 C18.582,11.2159094 18.9126,10.8923781 18.9126,10.4928781 L18.9126,5.79290937 C18.9126,4.19862812 17.5874857,2.90131562 15.9578286,2.90131562 L14.8362857,2.90131562 C14.5198,2.90131562 14.2386,2.70475312 14.1370857,2.41150312 L13.9134286,1.76869062 C13.6072571,0.889471875 12.7642,0.298721875 11.8152857,0.298721875 L7.09568571,0.298721875 C6.16468571,0.298721875 5.32705714,0.874065625 5.01057143,1.73097187 L4.75488571,2.42372187 C4.64957143,2.70953437 4.37054286,2.90131562 4.06002857,2.90131562 L2.95477143,2.90131562 C1.32565714,2.90131562 0,4.19862812 0,5.79290937 L0,14.1075031 C0,15.7023156 1.32565714,16.9996281 2.95477143,16.9996281 L15.9578286,17.0001594 C17.5874857,17.0001594 18.9126,15.7023156 18.9126,14.1075031 C18.9126,13.7085344 18.582,13.3850031 18.1743143,13.3850031 C17.7660857,13.3850031 17.4354857,13.7085344 17.4354857,14.1075031 C17.4354857,14.9049094 16.7726571,15.5540969 15.9578286,15.5540969 L2.95477143,15.5540969 C2.14048571,15.5540969 1.47765714,14.9049094 1.47765714,14.1075031 L1.47765714,5.79290937 C1.47765714,4.99603437 2.14048571,4.34737812 2.95477143,4.34737812 L4.06002857,4.34737812 C4.99102857,4.34737812 5.82865714,3.77150312 6.1446,2.91512812 L6.40082857,2.22184687 C6.5056,1.93656562 6.78517143,1.74478437 7.09568571,1.74478437 L11.8152857,1.74478437 C12.1317714,1.74478437 12.4124286,1.94134687 12.5144857,2.23459687 L12.7381429,2.87740937 C13.0437714,3.75662812 13.8868286,4.34737812 14.8362857,4.34737812 L15.9578286,4.34737812 C16.7726571,4.34737812 17.4354857,4.99603437 17.4354857,5.79290937 L17.4354857,10.4928781 C17.4354857,10.8923781 17.7660857,11.2159094 18.1743143,11.2159094" id="Fill-1"></path>
                <path d="M9.5,12.5604021 C7.81289678,12.5604021 6.44004232,11.1874669 6.44004232,9.50026453 C6.44004232,7.81253307 7.81289678,6.44012698 9.5,6.44012698 C11.1871032,6.44012698 12.5599577,7.81253307 12.5599577,9.50026453 C12.5599577,11.1874669 11.1871032,12.5604021 9.5,12.5604021 M9.5,5 C7.01881025,5 5,7.01839986 5,9.50026453 C5,11.9816001 7.01881025,14 9.5,14 C11.9811897,14 14,11.9816001 14,9.50026453 C14,7.01839986 11.9811897,5 9.5,5" id="Fill-4"></path>
            </g>
        </g>
    </g>
</svg>