<?xml version="1.0" encoding="utf-8"?>
<!-- Generator: Adobe Illustrator 16.0.0, SVG Export Plug-In . SVG Version: 6.00 Build 0)  -->
<!DOCTYPE svg PUBLIC "-//W3C//DTD SVG 1.1//EN" "http://www.w3.org/Graphics/SVG/1.1/DTD/svg11.dtd">
<svg version="1.1" id="Layer_1" xmlns="http://www.w3.org/2000/svg" xmlns:xlink="http://www.w3.org/1999/xlink" x="0px" y="0px"
	 width="45.316px" height="19.349px" viewBox="0 0 45.316 19.349" enable-background="new 0 0 45.316 19.349" xml:space="preserve">
<g>
	
		<line fill="none" stroke="#017197" stroke-width="2" stroke-linecap="round" stroke-linejoin="round" stroke-miterlimit="10" x1="29.719" y1="14.213" x2="14.757" y2="14.213"/>
	<path fill="none" stroke="#017197" stroke-width="2" stroke-linecap="round" stroke-linejoin="round" stroke-miterlimit="10" d="
		M6.494,14.213h-3.26c0,0-2.235,0.258-2.235-2.837c0-3.094,0.43-5.672,0.43-5.672S7.016,4.329,8.993,3.04l1.805,3.352l28.189,0.344
		c0,0,5.329,2.407,5.329,7.478h-5.817"/>
	<path fill="none" stroke="#017197" stroke-width="2" stroke-linecap="round" stroke-linejoin="round" stroke-miterlimit="10" d="
		M8.993,3.04c0,0,11.429-6.471,25.438,3.64"/>
	
		<line fill="none" stroke="#017197" stroke-width="2" stroke-linecap="round" stroke-linejoin="round" stroke-miterlimit="10" x1="18.621" y1="1.004" x2="21.885" y2="5.961"/>
	
		<circle fill="none" stroke="#017197" stroke-width="2" stroke-linecap="round" stroke-linejoin="round" stroke-miterlimit="10" cx="10.626" cy="14.218" r="4.131"/>
	
		<circle fill="none" stroke="#017197" stroke-width="2" stroke-linecap="round" stroke-linejoin="round" stroke-miterlimit="10" cx="34.05" cy="14.218" r="4.131"/>
	<circle fill="#017197" cx="10.625" cy="14.218" r="1.325"/>
	<circle fill="#017197" cx="34.05" cy="14.218" r="1.324"/>
</g>
</svg>
