<?xml version="1.0" encoding="utf-8"?>
<!-- Generator: Adobe Illustrator 16.0.0, SVG Export Plug-In . SVG Version: 6.00 Build 0)  -->
<!DOCTYPE svg PUBLIC "-//W3C//DTD SVG 1.1//EN" "http://www.w3.org/Graphics/SVG/1.1/DTD/svg11.dtd">
<svg version="1.1" id="Layer_1" xmlns="http://www.w3.org/2000/svg" xmlns:xlink="http://www.w3.org/1999/xlink" x="0px" y="0px"
	 width="17.846px" height="22.993px" viewBox="0 0 17.846 22.993" enable-background="new 0 0 17.846 22.993" xml:space="preserve">
<g>
	<path fill="#c3c3c3" d="M15.206,0H5.63L0,5.626v14.728c0,1.454,1.186,2.639,2.641,2.639h12.565c1.454,0,2.64-1.185,2.64-2.639V2.639
		C17.846,1.184,16.66,0,15.206,0z M16.533,20.354c0,0.731-0.597,1.326-1.327,1.326H2.641c-0.731,0-1.327-0.595-1.327-1.326V6.169
		l0.273-0.271h2.331c1.097,0,1.985-0.888,1.985-1.982v-2.33l0.271-0.272h9.032c0.73,0,1.327,0.595,1.327,1.326V20.354z"/>
	<path fill="#c3c3c3" d="M12.319,9.06H5.422c-0.361,0-0.655,0.293-0.655,0.657c0,0.363,0.294,0.657,0.655,0.657h6.897
		c0.365,0,0.658-0.294,0.658-0.657C12.978,9.354,12.685,9.06,12.319,9.06z"/>
	<path fill="#c3c3c3" d="M12.319,12.345H5.422c-0.361,0-0.655,0.293-0.655,0.657c0,0.363,0.294,0.657,0.655,0.657h6.897
		c0.365,0,0.658-0.294,0.658-0.657C12.978,12.638,12.685,12.345,12.319,12.345z"/>
	<path fill="#c3c3c3" d="M12.319,15.645H5.422c-0.361,0-0.655,0.294-0.655,0.657c0,0.363,0.294,0.657,0.655,0.657h6.897
		c0.365,0,0.658-0.294,0.658-0.657C12.978,15.939,12.685,15.645,12.319,15.645z"/>
</g>
</svg>
