<?xml version="1.0" encoding="utf-8"?>
<!-- Generator: Adobe Illustrator 16.0.0, SVG Export Plug-In . SVG Version: 6.00 Build 0)  -->
<!DOCTYPE svg PUBLIC "-//W3C//DTD SVG 1.1//EN" "http://www.w3.org/Graphics/SVG/1.1/DTD/svg11.dtd">
<svg version="1.1" id="Layer_1" xmlns="http://www.w3.org/2000/svg" xmlns:xlink="http://www.w3.org/1999/xlink" x="0px" y="0px"
	 width="70.841px" height="70.003px" viewBox="0 0 70.841 70.003" enable-background="new 0 0 70.841 70.003" xml:space="preserve">
<g>
	<path fill="#ffcc33" d="M16.51,31.583h21c1.105,0,2-0.896,2-2s-0.895-2-2-2h-21c-1.104,0-2,0.896-2,2S15.406,31.583,16.51,31.583z"/>
	<path fill="#ffcc33" d="M39.51,39.583c0-1.104-0.895-2-2-2h-21c-1.104,0-2,0.896-2,2s0.896,2,2,2h21C38.615,41.583,39.51,40.688,39.51,39.583z"/>
	<path fill="#ffcc33" d="M70.056,19.068c-0.774-0.476-1.789-0.234-2.268,0.542l-1.4,2.281l-1.972-1.211l0.308-0.502
		c1.073-1.748,0.528-4.035-1.219-5.108l-0.845-0.519c-1.746-1.074-4.034-0.528-5.107,1.219l-3.22,5.239l0,0l-1.545,2.515
		L44.88,36.392l7.171,4.407l10.64-17.313l1.972,1.212l-8.304,13.511c-0.477,0.775-0.234,1.79,0.541,2.266
		c0.776,0.477,1.792,0.234,2.268-0.541l11.429-18.6C71.074,20.56,70.831,19.545,70.056,19.068z"/>
	<path fill="#ffcc33" d="M37.813,55.814c0.6,0.369,1.384,0.181,1.753-0.417l0.607-0.99c1.616,0.572,3.467-0.038,4.401-1.558l5.618-9.143
		L43.022,39.3l-5.144,8.369l0,0l-0.476,0.774c-0.141,0.228-0.244,0.466-0.33,0.709c-0.021,0.063-0.037,0.126-0.056,0.19
		c-0.059,0.197-0.1,0.396-0.124,0.597c-0.006,0.05-0.014,0.098-0.018,0.148c-0.087,1.099,0.309,2.204,1.129,2.985l-0.61,0.99
		C37.027,54.662,37.215,55.446,37.813,55.814z"/>
	<path fill="#ffcc33" d="M53.313,46.27l-2.98,4.85v10.847c0,2.226-1.812,4.037-4.037,4.037H8.037C5.812,66.003,4,64.192,4,61.966v-43.18
		l0.829-0.829h7.103c3.334,0,6.037-2.703,6.037-6.037V4.828L18.797,4h27.499c2.226,0,4.037,1.811,4.037,4.037v11.841l3.812-6.202
		c0.058-0.094,0.128-0.176,0.188-0.267V8.037C54.333,3.605,50.728,0,46.296,0H17.141L0,17.129v44.837
		c0,4.432,3.605,8.037,8.037,8.037h38.259c4.432,0,8.037-3.605,8.037-8.037V44.726l-0.969,1.576L53.313,46.27z"/>
	<path fill="#ffcc33" d="M16.51,47.632c-1.104,0-2,0.896-2,2s0.896,2,2,2h16.461c-0.218-1.331-0.083-2.711,0.407-4H16.51z"/>
</g>
</svg>
