<?xml version="1.0" encoding="utf-8"?>
<!-- Generator: Adobe Illustrator 16.0.0, SVG Export Plug-In . SVG Version: 6.00 Build 0)  -->
<!DOCTYPE svg PUBLIC "-//W3C//DTD SVG 1.1//EN" "http://www.w3.org/Graphics/SVG/1.1/DTD/svg11.dtd">
<svg version="1.1" id="Layer_1" xmlns="http://www.w3.org/2000/svg" xmlns:xlink="http://www.w3.org/1999/xlink" x="0px" y="0px"
	 width="70.075px" height="70.181px" viewBox="0 0 70.075 70.181" enable-background="new 0 0 70.075 70.181" xml:space="preserve">
<g>
	<path fill="#dddddd" d="M68.661,51.03c-0.934-2.771-5.708-9.139-5.71-9.138c-0.105-0.163-0.223-0.32-0.359-0.468l-6.526-7.109
		c-0.925-1.006-2.278-1.324-3.359-0.9v-0.011c-0.057,0.022-0.108,0.055-0.163,0.08c-0.068,0.033-0.138,0.062-0.204,0.101
		c-0.144,0.084-0.281,0.18-0.407,0.296c-0.884,0.811-1.035,2.141-0.489,3.289c-0.156-0.159-0.323-0.296-0.498-0.418
		c-0.057-0.04-0.116-0.068-0.174-0.104c-0.122-0.075-0.244-0.147-0.37-0.204c-0.072-0.033-0.146-0.056-0.219-0.083
		c-0.117-0.043-0.233-0.083-0.353-0.112c-0.08-0.019-0.158-0.031-0.238-0.044c-0.114-0.018-0.228-0.032-0.342-0.036
		c-0.039-0.001-0.08-0.013-0.119-0.013c-0.055,0-0.107,0.01-0.162,0.014c-0.067,0.004-0.135,0.008-0.201,0.017
		c-0.02,0.003-0.041,0.002-0.061,0.005v0.007c-0.482,0.075-0.938,0.271-1.312,0.613c-0.816,0.749-1.01,1.94-0.607,3.024
		c-1.163-1.015-2.81-1.118-3.843-0.172c-0.352,0.324-0.575,0.734-0.7,1.179l-3.978-4.333c-1.163-1.268-3.014-1.462-4.134-0.434
		c-1.118,1.026-1.081,2.889,0.082,4.154l10.689,11.64c0.158,0.174,0.331,0.324,0.509,0.456c0.257,0.27,1.401,1.435,1.645,1.717
		c-0.418-0.267-0.907-0.346-1.376-0.479c-0.54-0.15-1.086-0.251-1.646-0.287c-1.611-0.107-4.903-0.479-5.446,1.296
		c-0.221,0.719-0.013,1.212,0.386,1.606l0,0l0.001,0.001c0.413,0.407,1.031,0.709,1.605,1.04c1.512,0.871,3.109,1.46,4.806,1.864
		c1.005,0.238,2.021,0.434,3.035,0.628s2.036,0.341,3.044,0.579c0.211,0.05,0.418,0.112,0.622,0.185
		c0.014,0.005,0.027,0.012,0.042,0.017c0.194,0.071,0.387,0.149,0.575,0.236l0,0c1.034,0.477,1.977,1.188,2.806,1.936
		c0.597,0.534,1.166,1.109,1.684,1.724c1.264,1.499,3.283-0.242,4.28-1.182c1.332-1.25,2.561-2.612,3.951-3.801
		c1.339-1.146,2.851-2.095,4.065-3.385C70.989,54.431,69.195,52.616,68.661,51.03z"/>
	<path fill="#dddddd" d="M48.777,63.843c-0.369-0.065-0.738-0.13-1.106-0.2c-0.984-0.188-2.099-0.402-3.211-0.666
		c-2.183-0.52-4.104-1.269-5.876-2.289c-0.099-0.058-0.199-0.113-0.3-0.169c-2.388-1.329-3.392-2.878-3.689-4.338H10.356
		C6.846,56.181,4,53.334,4,49.825V15.557C4,12.046,6.846,9.2,10.356,9.2H42.35c3.511,0,6.356,2.846,6.356,6.356v15.922
		c0.162-0.188,0.332-0.372,0.52-0.543c0.967-0.888,2.178-1.449,3.48-1.637V6.356C52.706,2.846,49.86,0,46.35,0H6.356
		C2.846,0,0,2.846,0,6.356v57.468c0,3.51,2.846,6.356,6.356,6.356H46.35c2.979,0,5.471-2.052,6.16-4.815
		c-0.767-0.647-1.431-1.054-1.964-1.18C49.999,64.056,49.405,63.953,48.777,63.843z M23.388,2.855h5.931
		c0.673,0,1.218,0.545,1.218,1.218s-0.545,1.218-1.218,1.218h-5.931c-0.672,0-1.218-0.545-1.218-1.218S22.716,2.855,23.388,2.855z
		 M26.354,65.799c-1.842,0-3.334-1.492-3.334-3.334s1.492-3.334,3.334-3.334s3.334,1.492,3.334,3.334S28.195,65.799,26.354,65.799z"
		/>
	<path fill="#dddddd" d="M35.104,30.327c3.699,0,6.709,3.009,6.709,6.708c0,0.552,0.447,1,1,1s1-0.448,1-1c0-4.802-3.907-8.708-8.709-8.708
		s-8.709,3.907-8.709,8.708s3.907,8.708,8.709,8.708c0.553,0,1-0.448,1-1s-0.447-1-1-1c-3.699,0-6.709-3.009-6.709-6.708
		S31.405,30.327,35.104,30.327z"/>
</g>
</svg>
