<?xml version="1.0" encoding="utf-8"?>
<!-- Generator: Adobe Illustrator 16.0.0, SVG Export Plug-In . SVG Version: 6.00 Build 0)  -->
<!DOCTYPE svg PUBLIC "-//W3C//DTD SVG 1.1//EN" "http://www.w3.org/Graphics/SVG/1.1/DTD/svg11.dtd">
<svg version="1.1" id="Layer_1" xmlns="http://www.w3.org/2000/svg" xmlns:xlink="http://www.w3.org/1999/xlink" x="0px" y="0px"
	 width="52.039px" height="71.877px" viewBox="0 0 52.039 71.877" enable-background="new 0 0 52.039 71.877" xml:space="preserve">
<path fill-rule="evenodd" clip-rule="evenodd" fill="#a6c7f2" d="M44.604,71.877H7.435C3.329,71.877,0,67.773,0,62.711V18.332
	c0-5.063,3.329-9.166,7.435-9.166h5.575V4.583h5.006C19.626,1.855,22.589,0,26.02,0c3.432,0,6.395,1.855,8.004,4.583h5.006v4.583
	h5.575c4.106,0,7.435,4.104,7.435,9.166v44.379C52.039,67.773,48.711,71.877,44.604,71.877z M35.313,9.166h-4.129
	c0-2.531-2.313-4.583-5.164-4.583s-5.164,2.052-5.164,4.583h-4.129v9.166h18.586V9.166z M39.029,58.128H13.01
	c-1.025,0-1.858-1.024-1.858-2.291s0.833-2.292,1.858-2.292h26.02c1.026,0,1.859,1.025,1.859,2.292S40.056,58.128,39.029,58.128z
	 M39.029,46.671H13.01c-1.025,0-1.858-1.024-1.858-2.291s0.833-2.292,1.858-2.292h26.02c1.026,0,1.859,1.025,1.859,2.292
	S40.056,46.671,39.029,46.671z M39.029,35.214H13.01c-1.025,0-1.858-1.025-1.858-2.292s0.833-2.291,1.858-2.291h26.02
	c1.026,0,1.859,1.024,1.859,2.291S40.056,35.214,39.029,35.214z"/>
</svg>
