<?xml version="1.0" encoding="utf-8"?>
<!-- Generator: Adobe Illustrator 16.0.0, SVG Export Plug-In . SVG Version: 6.00 Build 0)  -->
<!DOCTYPE svg PUBLIC "-//W3C//DTD SVG 1.1//EN" "http://www.w3.org/Graphics/SVG/1.1/DTD/svg11.dtd">
<svg version="1.1" id="Layer_1" xmlns="http://www.w3.org/2000/svg" xmlns:xlink="http://www.w3.org/1999/xlink" x="0px" y="0px"
	 width="17.583px" height="23.013px" viewBox="0 0 17.583 23.013" enable-background="new 0 0 17.583 23.013" xml:space="preserve">
<path d="M15.463,0H2.12C0.949,0,0,0.949,0,2.121v18.771c0,1.171,0.949,2.121,2.12,2.121h13.343c1.171,0,2.12-0.95,2.12-2.121V2.121
	C17.583,0.949,16.634,0,15.463,0z M7.802,0.953H9.78c0.225,0,0.407,0.182,0.407,0.406S10.005,1.765,9.78,1.765H7.802
	c-0.224,0-0.406-0.182-0.406-0.406S7.578,0.953,7.802,0.953z M8.792,21.552c-0.614,0-1.111-0.499-1.111-1.113
	s0.497-1.112,1.111-1.112c0.613,0,1.111,0.498,1.111,1.112S9.405,21.552,8.792,21.552z M16.25,16.222c0,1.171-0.95,2.12-2.122,2.12
	H3.455c-1.172,0-2.121-0.949-2.121-2.12V4.79c0-1.171,0.949-2.121,2.121-2.121h10.673c1.172,0,2.122,0.95,2.122,2.121V16.222z"/>
</svg>
