<?xml version="1.0" encoding="utf-8"?>
<!-- Generator: Adobe Illustrator 16.0.0, SVG Export Plug-In . SVG Version: 6.00 Build 0)  -->
<!DOCTYPE svg PUBLIC "-//W3C//DTD SVG 1.1//EN" "http://www.w3.org/Graphics/SVG/1.1/DTD/svg11.dtd">
<svg version="1.1" id="Layer_1" xmlns="http://www.w3.org/2000/svg" xmlns:xlink="http://www.w3.org/1999/xlink" x="0px" y="0px"
	 width="68.225px" height="67.877px" viewBox="0 0 68.225 67.877" enable-background="new 0 0 68.225 67.877" xml:space="preserve">
<g>
	<path fill-rule="evenodd" clip-rule="evenodd" fill="#ffcc33" d="M0,58.826c0,4.997,4.053,9.051,9.049,9.051h33.938
		c4.998,0,9.052-4.054,9.052-9.051v-6.787H0V58.826z M26.019,54.301c1.876,0,3.395,1.52,3.395,3.395
		c0,1.874-1.519,3.394-3.395,3.394c-1.875,0-3.394-1.52-3.394-3.394C22.625,55.82,24.144,54.301,26.019,54.301z"/>
	<path fill-rule="evenodd" clip-rule="evenodd" fill="#ffcc33" d="M52.039,9.049C52.039,4.053,47.985,0,42.987,0H9.049
		C4.053,0,0,4.053,0,9.049v2.265h52.039V9.049z"/>
	<path fill-rule="evenodd" clip-rule="evenodd" fill="#ffcc33" d="M67.428,11.268l-4.813-4.813c-1.063-1.064-2.788-1.064-3.851,0
		l-7.116,7.121H0v36.199h52.039V30.521l15.389-15.399C68.49,14.059,68.49,12.333,67.428,11.268z M46.593,44.39H5.443V18.962h40.823
		l-8.678,8.684c-0.398,0.397-0.598,0.897-0.696,1.409l-5.894,11.927c-0.493,1.345,0.582,2.549,1.921,1.925l11.922-5.896
		c0.512-0.101,1.012-0.299,1.409-0.696l0.342-0.342V44.39z M41.927,35.838l-7.359,4.459c-0.672,0.313-1.272-0.332-0.961-0.961
		l4.457-7.364L41.927,35.838z M64.54,14.158l-2.888,2.892l-4.743-4.884l2.819-2.823c0.532-0.53,1.394-0.53,1.924,0l2.888,2.889
		C65.072,12.766,65.072,13.629,64.54,14.158z"/>
</g>
</svg>
