<?xml version="1.0" encoding="utf-8"?>
<!-- Generator: Adobe Illustrator 16.0.0, SVG Export Plug-In . SVG Version: 6.00 Build 0)  -->
<!DOCTYPE svg PUBLIC "-//W3C//DTD SVG 1.1//EN" "http://www.w3.org/Graphics/SVG/1.1/DTD/svg11.dtd">
<svg version="1.1" id="Layer_1" xmlns="http://www.w3.org/2000/svg" xmlns:xlink="http://www.w3.org/1999/xlink" x="0px" y="0px"
	 width="55.994px" height="44.989px" viewBox="0 0 55.994 44.989" enable-background="new 0 0 55.994 44.989" xml:space="preserve">
<path fill="#7AC5FF" d="M24.64,0H2.197C0.984,0,0,0.823,0,1.836v41.317c0,1.014,0.984,1.836,2.197,1.836H7.64v-9.037
	c0-0.324,0.262-0.588,0.585-0.588H18.61c0.323,0,0.585,0.264,0.585,0.588v9.037h5.444c1.213,0,2.197-0.822,2.197-1.836V1.836
	C26.837,0.823,25.853,0,24.64,0z M11.73,26.991c0,0.305-0.247,0.551-0.551,0.551H7.086c-0.305,0-0.551-0.246-0.551-0.551v-4.104
	c0-0.305,0.246-0.552,0.551-0.552h4.093c0.304,0,0.551,0.247,0.551,0.552V26.991z M11.73,19.051c0,0.305-0.247,0.552-0.551,0.552
	H7.086c-0.305,0-0.551-0.247-0.551-0.552v-4.103c0-0.306,0.246-0.552,0.551-0.552h4.093c0.304,0,0.551,0.247,0.551,0.552V19.051z
	 M11.73,11.112c0,0.305-0.247,0.552-0.551,0.552H7.086c-0.305,0-0.551-0.248-0.551-0.552V7.009c0-0.305,0.246-0.552,0.551-0.552
	h4.093c0.304,0,0.551,0.247,0.551,0.552V11.112z M20.266,26.991c0,0.305-0.247,0.551-0.551,0.551h-4.093
	c-0.305,0-0.55-0.246-0.55-0.551v-4.104c0-0.305,0.246-0.552,0.55-0.552h4.093c0.304,0,0.551,0.247,0.551,0.552V26.991z
	 M20.266,19.051c0,0.305-0.247,0.552-0.551,0.552h-4.093c-0.305,0-0.55-0.247-0.55-0.552v-4.103c0-0.306,0.246-0.552,0.55-0.552
	h4.093c0.304,0,0.551,0.247,0.551,0.552V19.051z M20.266,11.112c0,0.305-0.247,0.552-0.551,0.552h-4.093
	c-0.305,0-0.55-0.248-0.55-0.552V7.009c0-0.305,0.246-0.552,0.55-0.552h4.093c0.304,0,0.551,0.247,0.551,0.552V11.112z"/>
<path fill="#7AC5FF" d="M53.797,8.266H31.354c-1.213,0-2.197,0.823-2.197,1.836v33.051c0,1.014,0.984,1.836,2.197,1.836h5.442
	v-4.754c0-0.324,0.263-0.587,0.586-0.587h10.386c0.321,0,0.584,0.263,0.584,0.587v4.754h5.443c1.214,0,2.197-0.822,2.197-1.836
	v-33.05C55.994,9.089,55.011,8.266,53.797,8.266z M49.472,32.749c0,0.063-0.277,0.111-0.617,0.111H36.297
	c-0.341,0-0.616-0.05-0.616-0.111v-2.264c0-0.061,0.275-0.111,0.616-0.111h12.558c0.34,0,0.617,0.051,0.617,0.111V32.749z
	 M49.472,27.532c0,0.061-0.277,0.11-0.617,0.11H36.297c-0.341,0-0.616-0.05-0.616-0.11v-2.264c0-0.063,0.275-0.111,0.616-0.111
	h12.558c0.34,0,0.617,0.051,0.617,0.111V27.532z M49.472,22.314c0,0.061-0.277,0.111-0.617,0.111H36.297
	c-0.341,0-0.616-0.05-0.616-0.111V20.05c0-0.061,0.275-0.111,0.616-0.111h12.558c0.34,0,0.617,0.05,0.617,0.111V22.314z
	 M49.472,17.097c0,0.061-0.277,0.111-0.617,0.111H36.297c-0.341,0-0.616-0.05-0.616-0.111v-2.264c0-0.061,0.275-0.111,0.616-0.111
	h12.558c0.34,0,0.617,0.05,0.617,0.111V17.097z"/>
</svg>
