<?xml version="1.0" encoding="utf-8"?>
<!-- Generator: Adobe Illustrator 16.0.0, SVG Export Plug-In . SVG Version: 6.00 Build 0)  -->
<!DOCTYPE svg PUBLIC "-//W3C//DTD SVG 1.1//EN" "http://www.w3.org/Graphics/SVG/1.1/DTD/svg11.dtd">
<svg version="1.1" id="Layer_1" xmlns="http://www.w3.org/2000/svg" xmlns:xlink="http://www.w3.org/1999/xlink" x="0px" y="0px"
	 width="24px" height="24px" viewBox="0 0 24 24" enable-background="new 0 0 24 24" xml:space="preserve">
<path fill="#FFFFFF" d="M17,12c-3.313,0-6,2.688-6,6s2.688,6,6,6s6-2.688,6-6S20.313,12,17,12z M17.5,20.475V21H17v-0.499
	c-0.518-0.009-1.053-0.132-1.5-0.362l0.229-0.822c0.478,0.186,1.113,0.383,1.611,0.27c0.574-0.13,0.692-0.721,0.057-1.005
	c-0.465-0.218-1.889-0.401-1.889-1.622c0-0.682,0.52-1.292,1.492-1.425V15h0.5v0.509c0.361,0.011,0.768,0.073,1.221,0.21
	l-0.181,0.824c-0.384-0.135-0.808-0.257-1.222-0.232c-0.744,0.043-0.811,0.688-0.291,0.959C17.884,17.671,19,17.969,19,19.042
	C19.001,19.9,18.328,20.357,17.5,20.475z M19.124,10.295c1.132-0.223,2.162-0.626,2.876-1.197V9.75c0,0.499-0.387,0.955-1.007,1.328
	C20.412,10.741,19.785,10.478,19.124,10.295z M17,4.5c2.673,0,5-1.007,5-2.25S19.673,0,17,0c-2.672,0-5,1.007-5,2.25
	S14.328,4.5,17,4.5z M17.093,2.491c-0.299-0.09-1.214-0.166-1.214-0.675c0-0.284,0.334-0.537,0.958-0.593V1h0.321v0.211
	c0.234,0.005,0.494,0.03,0.783,0.09l-0.115,0.342c-0.221-0.051-0.467-0.099-0.708-0.099l-0.072,0.001
	c-0.481,0.02-0.521,0.287-0.188,0.399c0.547,0.169,1.268,0.292,1.268,0.74c0,0.357-0.434,0.548-0.967,0.596V3.5h-0.321V3.292
	c-0.328-0.003-0.676-0.056-0.962-0.152l0.146-0.343c0.244,0.063,0.553,0.126,0.828,0.126l0.209-0.014
	C17.427,2.856,17.501,2.609,17.093,2.491z M6,15.5c1.445,0,2.775-0.301,3.705-0.768c0.311-0.69,0.714-1.33,1.198-1.899
	C10.452,11.79,8.364,11,6,11c-2.672,0-5,1.007-5,2.25S3.328,15.5,6,15.5z M6.093,13.491c-0.299-0.091-1.214-0.166-1.214-0.675
	c0-0.285,0.335-0.538,0.958-0.593V12h0.321v0.211c0.234,0.005,0.494,0.03,0.784,0.09l-0.117,0.341
	c-0.22-0.051-0.466-0.099-0.707-0.099l-0.072,0.001c-0.482,0.02-0.52,0.287-0.188,0.398c0.547,0.17,1.267,0.293,1.267,0.74
	c0,0.357-0.434,0.549-0.967,0.596V14.5H5.837v-0.208c-0.329-0.003-0.676-0.056-0.962-0.151l0.147-0.344
	c0.244,0.063,0.552,0.126,0.828,0.126l0.208-0.014C6.426,13.855,6.501,13.609,6.093,13.491z M10.096,22.021
	C9.177,22.611,7.656,23,6,23c-2.672,0-5-1.007-5-2.25v-0.652C2.146,21.016,4.109,21.5,6,21.5c1.236,0,2.499-0.211,3.549-0.611
	C9.702,21.283,9.885,21.662,10.096,22.021z M1,18.25V17.6C2.146,18.516,4.109,19,6,19c1.039,0,2.094-0.15,3.028-0.436
	c0.033,0.47,0.107,0.927,0.218,1.371C8.358,20.281,7.222,20.5,6,20.5C3.328,20.5,1,19.493,1,18.25z M1,15.75v-0.652
	C2.146,16.016,4.109,16.5,6,16.5c1.127,0,2.275-0.176,3.266-0.509c-0.128,0.493-0.21,1.002-0.241,1.526C8.171,17.814,7.122,18,6,18
	C3.328,18,1,16.993,1,15.75z M12,4.75V4.098C13.146,5.016,15.109,5.5,17,5.5c1.893,0,3.854-0.484,5-1.402V4.75
	C22,5.993,19.673,7,17,7C14.328,7,12,5.993,12,4.75z M12,9.75V9.098c0.713,0.571,1.744,0.974,2.876,1.197
	c-0.661,0.183-1.287,0.446-1.868,0.783C12.386,10.705,12,10.249,12,9.75z M12,7.25V6.599C13.146,7.516,15.109,8,17,8
	c1.893,0,3.854-0.484,5-1.401V7.25c0,1.243-2.327,2.25-5,2.25C14.328,9.5,12,8.493,12,7.25z"/>
</svg>
