<?xml version="1.0" encoding="utf-8"?>
<!-- Generator: Adobe Illustrator 16.0.0, SVG Export Plug-In . SVG Version: 6.00 Build 0)  -->
<!DOCTYPE svg PUBLIC "-//W3C//DTD SVG 1.1//EN" "http://www.w3.org/Graphics/SVG/1.1/DTD/svg11.dtd">
<svg version="1.1" id="Layer_1" xmlns="http://www.w3.org/2000/svg" xmlns:xlink="http://www.w3.org/1999/xlink" x="0px" y="0px"
	 width="38.918px" height="30.873px" viewBox="0 0 38.918 30.873" enable-background="new 0 0 38.918 30.873" xml:space="preserve">
<path fill="none" stroke="#020202" stroke-width="2" stroke-linecap="round" stroke-linejoin="round" stroke-miterlimit="10" d="
	M31.709,27.534c0,1.292-1.344,2.339-3.002,2.339H10.211c-1.658,0-3.002-1.047-3.002-2.339V13.711c0-1.292,1.344-2.339,3.002-2.339
	h18.496c1.658,0,3.002,1.047,3.002,2.339V27.534z"/>
<line fill="none" stroke="#020202" stroke-width="2" stroke-linecap="round" stroke-linejoin="round" stroke-miterlimit="10" x1="1" y1="29.873" x2="37.918" y2="29.873"/>
<g>
	<path fill="none" stroke="#020202" stroke-width="2" stroke-linecap="round" stroke-linejoin="round" stroke-miterlimit="10" d="
		M12.543,12.189c0,1.91-1.548,3.458-3.458,3.458l0,0c-0.478,0-0.933-0.097-1.347-0.272"/>
	<path fill="none" stroke="#020202" stroke-width="2" stroke-linecap="round" stroke-linejoin="round" stroke-miterlimit="10" d="
		M19.459,12.189c0,1.91-1.548,3.458-3.458,3.458l0,0c-1.91,0-3.458-1.548-3.458-3.458"/>
	<path fill="none" stroke="#020202" stroke-width="2" stroke-linecap="round" stroke-linejoin="round" stroke-miterlimit="10" d="
		M26.375,12.189c0,1.91-1.548,3.458-3.458,3.458l0,0c-1.91,0-3.458-1.548-3.458-3.458"/>
	<path fill="none" stroke="#020202" stroke-width="2" stroke-linecap="round" stroke-linejoin="round" stroke-miterlimit="10" d="
		M31.021,15.438c-0.371,0.136-0.771,0.21-1.188,0.21l0,0c-1.91,0-3.458-1.548-3.458-3.458"/>
</g>
<line fill="none" stroke="#020202" stroke-width="2" stroke-linecap="round" stroke-linejoin="round" stroke-miterlimit="10" x1="14.001" y1="11.373" x2="14.001" y2="5.414"/>
<line fill="none" stroke="#020202" stroke-width="2" stroke-linecap="round" stroke-linejoin="round" stroke-miterlimit="10" x1="24.917" y1="11.373" x2="24.917" y2="5.414"/>
<line fill="none" stroke="#020202" stroke-width="2" stroke-linecap="round" stroke-linejoin="round" stroke-miterlimit="10" x1="13.361" y1="19.582" x2="13.361" y2="22.914"/>
<line fill="none" stroke="#020202" stroke-width="2" stroke-linecap="round" stroke-linejoin="round" stroke-miterlimit="10" x1="19.459" y1="19.582" x2="19.459" y2="22.914"/>
<line fill="none" stroke="#020202" stroke-width="2" stroke-linecap="round" stroke-linejoin="round" stroke-miterlimit="10" x1="25.442" y1="19.582" x2="25.442" y2="22.914"/>
<path fill="none" stroke="#020202" stroke-width="2" stroke-linecap="round" stroke-linejoin="round" stroke-miterlimit="10" d="
	M15.541,3.109c0-1.165-1.54-2.109-1.54-2.109S12.46,1.944,12.46,3.109s0.689,2.109,1.541,2.109
	C14.852,5.219,15.541,4.274,15.541,3.109z"/>
<path fill="none" stroke="#020202" stroke-width="2" stroke-linecap="round" stroke-linejoin="round" stroke-miterlimit="10" d="
	M26.458,3.109c0-1.165-1.54-2.109-1.54-2.109s-1.541,0.944-1.541,2.109s0.689,2.109,1.541,2.109
	C25.769,5.219,26.458,4.274,26.458,3.109z"/>
</svg>
