<?xml version="1.0" encoding="utf-8"?>
<!-- Generator: Adobe Illustrator 16.0.0, SVG Export Plug-In . SVG Version: 6.00 Build 0)  -->
<!DOCTYPE svg PUBLIC "-//W3C//DTD SVG 1.1//EN" "http://www.w3.org/Graphics/SVG/1.1/DTD/svg11.dtd">
<svg version="1.1" id="Layer_1" xmlns="http://www.w3.org/2000/svg" xmlns:xlink="http://www.w3.org/1999/xlink" x="0px" y="0px"
	 width="20px" height="32px" viewBox="0 0 20 32" enable-background="new 0 0 20 32" xml:space="preserve">
<path fill-rule="evenodd" clip-rule="evenodd" d="M16,32H4c-2.209,0-4-1.791-4-4V4c0-2.209,1.791-4,4-4h12c2.209,0,4,1.791,4,4v24
	C20,30.209,18.209,32,16,32z M18,4c0-1.104-0.896-2-2-2H4C2.896,2,2,2.896,2,4v1h16V4z M18,7H2v13h16V7z M18,22H2v6
	c0,1.104,0.896,2,2,2h12c1.104,0,2-0.896,2-2V22z M10,28c-1.104,0-2-0.896-2-2c0-1.105,0.896-2,2-2s2,0.895,2,2
	C12,27.104,11.104,28,10,28z"/>
</svg>
