<?xml version="1.0" encoding="utf-8"?>
<!-- Generator: Adobe Illustrator 16.0.0, SVG Export Plug-In . SVG Version: 6.00 Build 0)  -->
<!DOCTYPE svg PUBLIC "-//W3C//DTD SVG 1.1//EN" "http://www.w3.org/Graphics/SVG/1.1/DTD/svg11.dtd">
<svg version="1.1" id="Layer_1" xmlns="http://www.w3.org/2000/svg" xmlns:xlink="http://www.w3.org/1999/xlink" x="0px" y="0px"
	 width="83.686px" height="75.479px" viewBox="0 0 83.686 75.479" enable-background="new 0 0 83.686 75.479" xml:space="preserve">
<path d="M53.068,17.523c0,12.08-7.818,21.873-17.463,21.873c-9.644,0-17.463-9.792-17.463-21.873S25.961,0,35.605,0
	C45.25,0,53.068,5.443,53.068,17.523z"/>
<path d="M71.211,72.981c0-0.038-0.021-0.069-0.023-0.107c-0.229-15.052-9.871-27.799-23.318-32.722
	c-3.154,3.897-7.484,6.309-12.264,6.309c-4.78,0-9.11-2.411-12.263-6.309C9.895,45.075,0.252,57.822,0.023,72.874
	C0.02,72.912,0,72.943,0,72.981v0.283c0,0.01,0.006,0.016,0.006,0.025C0.006,73.333,0,73.375,0,73.42v0.568
	c0,1.322,1.152,1.473,2.466,1.484c0.015,0,0.027,0.006,0.042,0.006h0.124h65.947h0.124c0.015,0,0.025-0.006,0.042-0.006
	c1.313-0.012,2.466-0.162,2.466-1.484V73.42c0-0.045-0.006-0.087-0.006-0.131c0-0.01,0.006-0.016,0.006-0.025V72.981z"/>
<path d="M83.686,28.612c0,1.257-1.022,2.276-2.283,2.276H61.02c-1.262,0-2.283-1.019-2.283-2.276l0,0
	c0-1.257,1.021-2.275,2.283-2.275h20.383C82.663,26.336,83.686,27.355,83.686,28.612L83.686,28.612z"/>
<path d="M71.211,16.183c1.262,0,2.283,1.019,2.283,2.275v20.307c0,1.256-1.021,2.276-2.283,2.276l0,0
	c-1.262,0-2.285-1.02-2.285-2.276V18.458C68.926,17.202,69.949,16.183,71.211,16.183L71.211,16.183z"/>
</svg>
