<?xml version="1.0" encoding="utf-8"?>
<!-- Generator: Adobe Illustrator 16.0.0, SVG Export Plug-In . SVG Version: 6.00 Build 0)  -->
<!DOCTYPE svg PUBLIC "-//W3C//DTD SVG 1.1//EN" "http://www.w3.org/Graphics/SVG/1.1/DTD/svg11.dtd">
<svg version="1.1" id="Layer_1" xmlns="http://www.w3.org/2000/svg" xmlns:xlink="http://www.w3.org/1999/xlink" x="0px" y="0px"
	 width="35.301px" height="26.895px" viewBox="0 0 35.301 26.895" enable-background="new 0 0 35.301 26.895" xml:space="preserve">
<path fill="none" stroke="#020202" stroke-width="2" stroke-linecap="round" stroke-linejoin="round" stroke-miterlimit="10" d="
	M13.321,11.221c0-1.488-1.206-2.695-2.694-2.695l0,0c-1.488,0-2.694,1.207-2.694,2.695l0,0c0,1.488,1.206,2.695,2.694,2.695l0,0
	C12.115,13.916,13.321,12.709,13.321,11.221L13.321,11.221z"/>
<path fill="none" stroke="#020202" stroke-width="2" stroke-linecap="round" stroke-linejoin="round" stroke-miterlimit="10" d="
	M14.934,18.224L14.934,18.224c0-2.379-1.927-4.308-4.307-4.308l0,0c-2.379,0-4.307,1.929-4.307,4.308l0,0"/>
<line fill="none" stroke="#020202" stroke-width="2" stroke-linecap="round" stroke-linejoin="round" stroke-miterlimit="10" x1="20.78" y1="9.909" x2="28.28" y2="9.909"/>
<line fill="none" stroke="#020202" stroke-width="2" stroke-linecap="round" stroke-linejoin="round" stroke-miterlimit="10" x1="20.78" y1="13.72" x2="28.28" y2="13.72"/>
<line fill="none" stroke="#020202" stroke-width="2" stroke-linecap="round" stroke-linejoin="round" stroke-miterlimit="10" x1="20.78" y1="17.529" x2="28.28" y2="17.529"/>
<path fill="none" stroke="#020202" stroke-width="2" stroke-miterlimit="10" d="M34.301,22.409c0,1.926-1.739,3.485-3.885,3.485
	H4.885C2.739,25.895,1,24.335,1,22.409V4.485C1,2.56,2.739,1,4.885,1h25.531c2.146,0,3.885,1.56,3.885,3.485V22.409z"/>
</svg>
