<?xml version="1.0" encoding="utf-8"?>
<!-- Generator: Adobe Illustrator 16.0.0, SVG Export Plug-In . SVG Version: 6.00 Build 0)  -->
<!DOCTYPE svg PUBLIC "-//W3C//DTD SVG 1.1//EN" "http://www.w3.org/Graphics/SVG/1.1/DTD/svg11.dtd">
<svg version="1.1" id="Layer_1" xmlns="http://www.w3.org/2000/svg" xmlns:xlink="http://www.w3.org/1999/xlink" x="0px" y="0px"
	 width="26.973px" height="24.412px" viewBox="0 0 26.973 24.412" enable-background="new 0 0 26.973 24.412" xml:space="preserve">
<path fill="none" stroke="#2e5bca" stroke-width="1.5" stroke-miterlimit="10" d="M20.08,13.521v7.704
	c0,1.346-1.091,2.437-2.437,2.437H3.187c-1.346,0-2.437-1.091-2.437-2.437V3.187c0-1.346,1.091-2.437,2.437-2.437h14.457
	c1.346,0,2.437,1.091,2.437,2.437v1.772"/>
<path fill="none" stroke="#2e5bca" stroke-width="1.5" stroke-miterlimit="10" d="M20.149,13.571
	c-0.164,0.249-0.457,0.345-0.653,0.215l-3.088-2.038c-0.197-0.129-0.225-0.436-0.061-0.685l5.966-10.021
	c0.164-0.249,0.456-0.344,0.653-0.215l3.088,2.037c0.197,0.13,0.225,0.436,0.061,0.685L20.149,13.571z"/>
<polyline fill="none" stroke="#2e5bca" stroke-width="1.5" stroke-linecap="round" stroke-linejoin="round" stroke-miterlimit="10" points="
	16.153,11.359 14.552,17.923 20.006,13.788 "/>
<line fill="none" stroke="#2e5bca" stroke-width="1.5" stroke-linecap="round" stroke-miterlimit="10" x1="5.199" y1="17.923" x2="11.33" y2="17.923"/>
<line fill="none" stroke="#2e5bca" stroke-width="1.5" stroke-linecap="round" stroke-miterlimit="10" x1="5.199" y1="13.943" x2="11.33" y2="13.943"/>
<line fill="none" stroke="#2e5bca" stroke-width="1.5" stroke-linecap="round" stroke-miterlimit="10" x1="5.199" y1="9.917" x2="14.185" y2="9.917"/>
<line fill="none" stroke="#2e5bca" stroke-width="1.5" stroke-linecap="round" stroke-miterlimit="10" x1="5.199" y1="6.01" x2="14.185" y2="6.01"/>
</svg>
