<?xml version="1.0" encoding="utf-8"?>
<!-- Generator: Adobe Illustrator 16.0.0, SVG Export Plug-In . SVG Version: 6.00 Build 0)  -->
<!DOCTYPE svg PUBLIC "-//W3C//DTD SVG 1.1//EN" "http://www.w3.org/Graphics/SVG/1.1/DTD/svg11.dtd">
<svg version="1.1" id="Layer_1" xmlns="http://www.w3.org/2000/svg" xmlns:xlink="http://www.w3.org/1999/xlink" x="0px" y="0px"
	 width="32px" height="28px" viewBox="0 0 32 28" enable-background="new 0 0 32 28" xml:space="preserve">
<path fill-rule="evenodd" clip-rule="evenodd" d="M6,15H4c-2.209,0-4,1.791-4,4v2c0,2.209,1.791,4,4,4h2.142
	c0.446,1.723,1.997,3,3.858,3h12c1.861,0,3.412-1.277,3.858-3H28c2.209,0,4-1.791,4-4v-2c0-2.209-1.791-4-4-4h-2V4
	c0-2.209-1.791-4-4-4H10C7.791,0,6,1.791,6,4C6,4,6,14.349,6,15z M10,26h12c1.104,0,2-0.896,2-2c0-1.105-0.896-2-2-2H10
	c-1.104,0-2,0.895-2,2C8,25.104,8.896,26,10,26z M24,4c0-1.104-0.896-2-2-2H10C8.896,2,8,2.896,8,4v11h16V4z M30,19
	c0-1.105-0.896-2-2-2H4c-1.104,0-2,0.895-2,2v2c0,1.104,0.896,2,2,2h2.142c0.446-1.723,1.997-3,3.858-3h12
	c1.861,0,3.412,1.277,3.858,3H28c1.104,0,2-0.896,2-2V19z"/>
</svg>
