<?xml version="1.0" encoding="utf-8"?>
<!-- Generator: Adobe Illustrator 16.0.0, SVG Export Plug-In . SVG Version: 6.00 Build 0)  -->
<!DOCTYPE svg PUBLIC "-//W3C//DTD SVG 1.1//EN" "http://www.w3.org/Graphics/SVG/1.1/DTD/svg11.dtd">
<svg version="1.1" id="Layer_1" xmlns="http://www.w3.org/2000/svg" xmlns:xlink="http://www.w3.org/1999/xlink" x="0px" y="0px"
	 width="31.618px" height="27.28px" viewBox="0 0 31.618 27.28" enable-background="new 0 0 31.618 27.28" xml:space="preserve">
<path fill="none" stroke="#2e5bca" stroke-width="1.5" stroke-linecap="round" stroke-linejoin="round" stroke-miterlimit="10" d="
	M17.647,7.111c0,3.924-2.254,7.108-5.649,7.108c-3.396,0-5.523-3.066-5.523-6.991c0-3.925,2.127-6.478,5.523-6.478
	C15.394,0.75,17.647,3.186,17.647,7.111z"/>
<path fill="none" stroke="#2e5bca" stroke-width="1.5" stroke-linecap="round" stroke-linejoin="round" stroke-miterlimit="10" d="
	M9.573,14.751c-0.089-0.615-0.294-1.069-0.294-1.069L9.573,14.751z M14.419,14.751l0.295-1.069
	C14.714,13.683,14.512,14.137,14.419,14.751z M9.573,14.751c0.146,0.976,0.016,2.361-1.663,3.032
	c-2.729,1.093-7.16,3.006-7.16,8.746h22.493c0-5.74-4.429-7.653-7.163-8.746c-1.672-0.671-1.806-2.057-1.661-3.032"/>
<path fill="none" stroke="#2e5bca" stroke-width="1.5" stroke-linecap="round" stroke-linejoin="round" stroke-miterlimit="10" d="
	M6.514,6.449c0,0,7.863,1.09,8.477-4.509"/>
<path fill="none" stroke="#2e5bca" stroke-width="1.5" stroke-linecap="round" stroke-linejoin="round" stroke-miterlimit="10" d="
	M22.136,13.875c0,1.941,1.115,3.514,2.793,3.514c1.68,0,2.732-1.515,2.732-3.455c0-1.942-1.053-3.204-2.732-3.204
	C23.251,10.73,22.136,11.935,22.136,13.875z"/>
<path fill="none" stroke="#2e5bca" stroke-width="1.5" stroke-linecap="round" stroke-linejoin="round" stroke-miterlimit="10" d="
	M26.275,17.125c0,0-0.102,0.222-0.148,0.527L26.275,17.125z M23.585,17.125l0.146,0.527C23.687,17.347,23.585,17.125,23.585,17.125z
	 M23.731,17.653c0.069,0.482,0.007,1.167-0.821,1.498 M25.366,23.475h5.502c0-2.838-2.567-3.783-3.918-4.324
	c-0.828-0.331-0.897-1.016-0.823-1.498"/>
</svg>
