<?xml version="1.0" encoding="utf-8"?>
<!-- Generator: Adobe Illustrator 16.0.0, SVG Export Plug-In . SVG Version: 6.00 Build 0)  -->
<!DOCTYPE svg PUBLIC "-//W3C//DTD SVG 1.1//EN" "http://www.w3.org/Graphics/SVG/1.1/DTD/svg11.dtd">
<svg version="1.1" id="Layer_1" xmlns="http://www.w3.org/2000/svg" xmlns:xlink="http://www.w3.org/1999/xlink" x="0px" y="0px"
	 width="30px" height="28px" viewBox="0 0 30 28" enable-background="new 0 0 30 28" xml:space="preserve">
<path fill-rule="evenodd" clip-rule="evenodd" d="M30,24c0,2.209-1.791,4-4,4H4c-2.209,0-4-1.791-4-4C0,24,0,8.282,0,6l15-6l15,6
	C30,8.187,30,24,30,24z M3.556,25.946l8.187-8.187L15,20l3.258-2.24l8.187,8.187C26.301,25.979,3.699,25.979,3.556,25.946z M2,24
	c0,0.203,0.039,0.394,0.095,0.578l7.971-7.971L2,9.375V24z M15,17.656L2,7l12.98-4.669L28,7L15,17.656z M28,9.375l-8.066,7.233
	l7.971,7.971C27.961,24.394,28,24.203,28,24V9.375z"/>
</svg>
