<?xml version="1.0" encoding="utf-8"?>
<!-- Generator: Adobe Illustrator 16.0.0, SVG Export Plug-In . SVG Version: 6.00 Build 0)  -->
<!DOCTYPE svg PUBLIC "-//W3C//DTD SVG 1.1//EN" "http://www.w3.org/Graphics/SVG/1.1/DTD/svg11.dtd">
<svg version="1.1" id="Layer_1" xmlns="http://www.w3.org/2000/svg" xmlns:xlink="http://www.w3.org/1999/xlink" x="0px" y="0px"
	 width="36.456px" height="15.5px" viewBox="0 0 36.456 15.5" enable-background="new 0 0 36.456 15.5" xml:space="preserve">
<line fill="none" stroke="#2e5bca" stroke-width="1.5" stroke-linecap="round" stroke-linejoin="round" stroke-miterlimit="10" x1="23.926" y1="11.412" x2="11.852" y2="11.412"/>
<path fill="none" stroke="#2e5bca" stroke-width="1.5" stroke-linecap="round" stroke-linejoin="round" stroke-miterlimit="10" d="
	M5.184,11.412h-2.63c0,0-1.803,0.208-1.803-2.289c0-2.497,0.347-4.577,0.347-4.577s4.508-1.11,6.104-2.15l1.457,2.705l22.749,0.278
	c0,0,4.3,1.942,4.3,6.034h-4.694"/>
<path fill="none" stroke="#2e5bca" stroke-width="1.5" stroke-linecap="round" stroke-linejoin="round" stroke-miterlimit="10" d="
	M7.2,2.396c0,0,9.224-5.222,20.529,2.938"/>
<line fill="none" stroke="#2e5bca" stroke-width="1.5" stroke-linecap="round" stroke-linejoin="round" stroke-miterlimit="10" x1="14.97" y1="0.753" x2="17.604" y2="4.753"/>
<circle fill="none" stroke="#2e5bca" stroke-width="1.5" stroke-linecap="round" stroke-linejoin="round" stroke-miterlimit="10" cx="8.518" cy="11.417" r="3.334"/>
<circle fill="none" stroke="#2e5bca" stroke-width="1.5" stroke-linecap="round" stroke-linejoin="round" stroke-miterlimit="10" cx="27.421" cy="11.417" r="3.334"/>
<circle fill="#2e5bca" cx="8.518" cy="11.417" r="1.069"/>
<circle fill="#2e5bca" cx="27.421" cy="11.417" r="1.069"/>
</svg>
