<?xml version="1.0" encoding="utf-8"?>
<!-- Generator: Adobe Illustrator 16.0.0, SVG Export Plug-In . SVG Version: 6.00 Build 0)  -->
<!DOCTYPE svg PUBLIC "-//W3C//DTD SVG 1.1//EN" "http://www.w3.org/Graphics/SVG/1.1/DTD/svg11.dtd">
<svg version="1.1" id="Layer_1" xmlns="http://www.w3.org/2000/svg" xmlns:xlink="http://www.w3.org/1999/xlink" x="0px" y="0px"
	 width="34px" height="34px" viewBox="0 0 34 34" enable-background="new 0 0 34 34" xml:space="preserve">
<path fill="#999999" fill-rule="evenodd" clip-rule="evenodd" d="M30,34H4c-2.209,0-4-1.791-4-4V4c0-2.209,1.791-4,4-4h26c2.209,0,4,1.791,4,4v26
	C34,32.209,32.209,34,30,34z M32,4c0-1.104-0.896-2-2-2H4C2.896,2,2,2.896,2,4v2h30V4z M32,8H2v22c0,1.104,0.896,2,2,2h26
	c1.104,0,2-0.896,2-2V8z M21.299,18.718L18,14.727V29c0,0.553-0.448,1-1,1s-1-0.447-1-1V14.765l-3.267,3.953
	c-0.392,0.394-1.028,0.394-1.42,0s-0.392-1.031,0-1.424l4.942-5.98c0.209-0.209,0.486-0.299,0.76-0.285
	c0.274-0.015,0.551,0.075,0.76,0.285l4.943,5.98c0.392,0.393,0.392,1.03,0,1.424C22.326,19.111,21.69,19.111,21.299,18.718z"/>
</svg>
