<?xml version="1.0" encoding="utf-8"?>
<!-- Generator: Adobe Illustrator 16.0.0, SVG Export Plug-In . SVG Version: 6.00 Build 0)  -->
<!DOCTYPE svg PUBLIC "-//W3C//DTD SVG 1.1//EN" "http://www.w3.org/Graphics/SVG/1.1/DTD/svg11.dtd">
<svg version="1.1" id="Layer_1" xmlns="http://www.w3.org/2000/svg" xmlns:xlink="http://www.w3.org/1999/xlink" x="0px" y="0px"
	 width="34.652px" height="34px" viewBox="0 0 34.652 34" enable-background="new 0 0 34.652 34" xml:space="preserve">
<path fill-rule="evenodd" clip-rule="evenodd" fill="none" stroke="#999999" stroke-width="2" stroke-linecap="round" stroke-linejoin="round" stroke-miterlimit="10" d="
	M16.75,2.519c0,3.082,0,5.38,0,5.38c0,1.948,1.763,3.528,3.938,3.528c0,0,2.708,0,6.007,0C31.836,11.427,16.75-3.753,16.75,2.519z"
	/>
<path fill-rule="evenodd" clip-rule="evenodd" fill="none" stroke="#999999" stroke-width="2" stroke-linecap="round" stroke-linejoin="round" stroke-miterlimit="10" d="
	M20.381,33C15.389,33,5,33,5,33c-2.209,0-4-1.791-4-4V5c0-2.209,1.791-4,4-4c0,0,7.304,0,12.606,0"/>
<path fill-rule="evenodd" clip-rule="evenodd" fill="none" stroke="#999999" stroke-width="2" stroke-linecap="round" stroke-linejoin="round" stroke-miterlimit="10" d="
	M28.991,28.134L33.652,33"/>
<path fill-rule="evenodd" clip-rule="evenodd" fill="none" stroke="#999999" stroke-width="2" stroke-linecap="round" stroke-linejoin="round" stroke-miterlimit="10" d="
	M22.879,15.898c3.665-0.917,7.357,1.398,8.248,5.174c0.892,3.775-1.357,7.58-5.021,8.498s-7.357-1.398-8.248-5.174
	S19.215,16.816,22.879,15.898z"/>
<path fill="#999999" fill-rule="evenodd" clip-rule="evenodd" d="M6.29,15.399h8c0.552,0,1,0.448,1,1s-0.448,1-1,1h-8c-0.552,0-1-0.448-1-1
	S5.738,15.399,6.29,15.399z"/>
<path fill="#999999" fill-rule="evenodd" clip-rule="evenodd" d="M6.29,20.399h5c0.552,0,1,0.448,1,1c0,0.553-0.448,1-1,1h-5c-0.552,0-1-0.447-1-1
	C5.29,20.847,5.738,20.399,6.29,20.399z"/>
<path fill="#999999" fill-rule="evenodd" clip-rule="evenodd" d="M6.29,25.399h8c0.552,0,1,0.447,1,1s-0.448,1-1,1h-8c-0.552,0-1-0.447-1-1
	S5.738,25.399,6.29,25.399z"/>
</svg>
