<?xml version="1.0" encoding="utf-8"?>
<!-- Generator: Adobe Illustrator 16.0.0, SVG Export Plug-In . SVG Version: 6.00 Build 0)  -->
<!DOCTYPE svg PUBLIC "-//W3C//DTD SVG 1.1//EN" "http://www.w3.org/Graphics/SVG/1.1/DTD/svg11.dtd">
<svg version="1.1" id="Layer_1" xmlns="http://www.w3.org/2000/svg" xmlns:xlink="http://www.w3.org/1999/xlink" x="0px" y="0px"
	 width="49.475px" height="36.464px" viewBox="0 0 49.475 36.464" enable-background="new 0 0 49.475 36.464" xml:space="preserve">
<path fill="#999999" fill-rule="evenodd" clip-rule="evenodd" d="M22.167,27.084L40.916,0.89c0.71-0.993,1.807-1.167,2.791-0.462l4.879,3.492
	c0.982,0.705,1.172,1.798,0.462,2.791L30.299,32.905l-7.362,3.414c-1.033,0.406-1.677-0.055-1.626-1.163L22.167,27.084
	 M23.918,28.076l-0.62,6.021l5.499-2.528L23.918,28.076 M46.84,6.359c0.604-0.838,0.562-0.819-0.231-1.396l-3.253-2.328
	C42.577,2.04,42.51,2.045,41.96,2.867L39.633,6.12l4.879,3.492L46.84,6.359z M29.961,29.942l13.387-18.704l-4.879-3.492
	L25.082,26.45C25.555,26.788,28.291,28.746,29.961,29.942z"/>
<path fill="#999999" fill-rule="evenodd" clip-rule="evenodd" d="M0,35.407h18v1H0V35.407z"/>
</svg>
