<?xml version="1.0" encoding="utf-8"?>
<!-- Generator: Adobe Illustrator 16.0.0, SVG Export Plug-In . SVG Version: 6.00 Build 0)  -->
<!DOCTYPE svg PUBLIC "-//W3C//DTD SVG 1.1//EN" "http://www.w3.org/Graphics/SVG/1.1/DTD/svg11.dtd">
<svg version="1.1" id="Layer_1" xmlns="http://www.w3.org/2000/svg" xmlns:xlink="http://www.w3.org/1999/xlink" x="0px" y="0px"
	 width="22px" height="28px" viewBox="0 0 22 28" enable-background="new 0 0 22 28" xml:space="preserve">
<path fill-rule="evenodd" clip-rule="evenodd" d="M18,28H4c-2.209,0-4-1.791-4-4V6c0-2.209,1.791-4,4-4V0h2v2h4V0h2v2h4V0h2v2
	c2.209,0,4,1.791,4,4v18C22,26.209,20.209,28,18,28z M20,6c0-1.105-0.896-2-2-2H4C2.896,4,2,4.895,2,6v18c0,1.104,0.896,2,2,2h14
	c1.104,0,2-0.896,2-2V6z M17,22H5c-0.552,0-1-0.448-1-1c0-0.553,0.448-1,1-1h12c0.553,0,1,0.447,1,1C18,21.552,17.553,22,17,22z
	 M17,16H5c-0.552,0-1-0.447-1-1c0-0.552,0.448-1,1-1h12c0.553,0,1,0.448,1,1C18,15.553,17.553,16,17,16z M17,10H5
	c-0.552,0-1-0.448-1-1c0-0.552,0.448-1,1-1h12c0.553,0,1,0.448,1,1C18,9.552,17.553,10,17,10z"/>
</svg>
