<?xml version="1.0" encoding="utf-8"?>
<!-- Generator: Adobe Illustrator 16.0.0, SVG Export Plug-In . SVG Version: 6.00 Build 0)  -->
<!DOCTYPE svg PUBLIC "-//W3C//DTD SVG 1.1//EN" "http://www.w3.org/Graphics/SVG/1.1/DTD/svg11.dtd">
<svg version="1.1" id="Layer_1" xmlns="http://www.w3.org/2000/svg" xmlns:xlink="http://www.w3.org/1999/xlink" x="0px" y="0px"
	 width="15.311px" height="21.872px" viewBox="0 0 15.311 21.872" enable-background="new 0 0 15.311 21.872" xml:space="preserve">
<path fill="#010101" d="M1.372,21.611c0.336-1.095,0.843-2.639,1.522-4.866c2.959-0.479,4.184,0.38,6.063-3.047
	c-1.525,0.477-3.365-0.884-3.267-1.473c0.1-0.592,4.28,0.424,7.017-3.541C9.258,9.46,8.154,7.751,8.599,7.493
	c1.026-0.597,4.075-0.247,5.7-1.863c0.838-0.831,1.229-2.853,0.889-3.573c-0.408-0.872-2.904-2.171-4.28-2.049
	C9.533,0.13,7.375,5.354,6.735,5.313c-0.641-0.04-0.769-2.338,0.347-4.478C5.905,1.367,3.746,3.022,3.07,4.436
	c-1.262,2.631,0.118,8.665-0.325,8.88c-0.443,0.217-1.932-2.769-2.375-4.121c-0.606,2.073-0.621,4.15,1.153,6.912
	c-0.669,1.811-1.034,3.896-1.091,4.955C0.408,21.909,1.224,22.092,1.372,21.611z"/>
</svg>
