<?xml version="1.0" encoding="utf-8"?>
<!-- Generator: Adobe Illustrator 16.0.0, SVG Export Plug-In . SVG Version: 6.00 Build 0)  -->
<!DOCTYPE svg PUBLIC "-//W3C//DTD SVG 1.1//EN" "http://www.w3.org/Graphics/SVG/1.1/DTD/svg11.dtd">
<svg version="1.1" id="Layer_1" xmlns="http://www.w3.org/2000/svg" xmlns:xlink="http://www.w3.org/1999/xlink" x="0px" y="0px"
	 width="20.5px" height="15.375px" viewBox="0 0 20.5 15.375" enable-background="new 0 0 20.5 15.375" xml:space="preserve">
<path fill="#ffcc33" d="M20.073,3.417c0.235,0,0.427,0.192,0.427,0.427v0.437c0,0.677-0.791,0.844-1.381,0.844l-0.927-1.708H20.073z
	 M18.842,6.411c0.546,1.013,0.809,1.924,0.809,3.132c0,1.17-0.34,2.163-0.858,3.399v1.578c0,0.473-0.383,0.854-0.854,0.854h-1.281
	c-0.472,0-0.854-0.382-0.854-0.854v-0.854H4.698v0.854c0,0.473-0.383,0.854-0.854,0.854H2.563c-0.472,0-0.854-0.382-0.854-0.854
	v-1.578C1.189,11.706,0.85,10.713,0.85,9.543c0-1.208,0.263-2.119,0.809-3.132c0.707-1.313,1.581-2.949,2.503-4.486
	c0.707-1.18,1.077-1.458,1.944-1.614C7.416,0.077,8.599,0,10.25,0s2.834,0.077,4.145,0.312c0.867,0.156,1.237,0.434,1.944,1.614
	C17.261,3.462,18.135,5.098,18.842,6.411z M5.125,8.969c0-0.707-0.574-1.281-1.281-1.281S2.563,8.262,2.563,8.969
	s0.574,1.281,1.281,1.281S5.125,9.676,5.125,8.969z M13.667,9.823c0-0.235-0.192-0.428-0.428-0.428H7.261
	c-0.235,0-0.428,0.192-0.428,0.428s0.192,0.427,0.428,0.427h5.979C13.475,10.25,13.667,10.059,13.667,9.823z M16.179,5.102
	c0,0-0.632-1.56-1.393-2.684c-0.174-0.254-0.44-0.429-0.742-0.483c-1.292-0.232-2.423-0.307-3.794-0.307S7.748,1.703,6.456,1.935
	C6.154,1.989,5.888,2.163,5.714,2.418C4.953,3.542,4.321,5.102,4.321,5.102C5.723,5.37,8.002,5.527,10.25,5.527
	S14.777,5.37,16.179,5.102z M17.938,8.969c0-0.707-0.574-1.281-1.281-1.281s-1.281,0.574-1.281,1.281s0.574,1.281,1.281,1.281
	S17.938,9.676,17.938,8.969z M2.308,3.417H0.427C0.191,3.417,0,3.608,0,3.844v0.437c0,0.677,0.791,0.844,1.381,0.844L2.308,3.417z"
	/>
</svg>
