<?xml version="1.0" encoding="utf-8"?>
<!-- Generator: Adobe Illustrator 16.0.0, SVG Export Plug-In . SVG Version: 6.00 Build 0)  -->
<!DOCTYPE svg PUBLIC "-//W3C//DTD SVG 1.1//EN" "http://www.w3.org/Graphics/SVG/1.1/DTD/svg11.dtd">
<svg version="1.1" id="Layer_1" xmlns="http://www.w3.org/2000/svg" xmlns:xlink="http://www.w3.org/1999/xlink" x="0px" y="0px"
	 width="19.5px" height="15.6px" viewBox="0 0 19.5 15.6" enable-background="new 0 0 19.5 15.6" xml:space="preserve">
<g>
	<path fill="#b8d2f4" d="M17.55,0H1.95C0.878,0,0,0.877,0,1.95v11.7c0,1.073,0.878,1.95,1.95,1.95h15.6
		c1.073,0,1.95-0.877,1.95-1.95V1.95C19.5,0.877,18.623,0,17.55,0z M17.55,13.649H1.95V1.95h15.6V13.649z M8.776,9.847H3.901v1.755
		h4.875V9.847z M8.776,6.922H3.901v1.755h4.875V6.922z M8.776,3.997H3.901v1.755h4.875V3.997z M15.503,10.237
		c0,0-1.657-0.433-1.657-1.285c0-0.811,1.072-1.152,1.072-2.81c0-1.346-0.409-2.145-1.756-2.145c-1.346,0-1.754,0.799-1.754,2.145
		c0,1.658,1.072,2,1.072,2.81c0,0.853-1.657,1.285-1.657,1.285c-0.099,0-0.099,1.364-0.099,1.364H15.6
		C15.6,11.602,15.6,10.237,15.503,10.237z"/>
</g>
</svg>
