<?xml version="1.0" encoding="utf-8"?>
<!-- Generator: Adobe Illustrator 16.0.0, SVG Export Plug-In . SVG Version: 6.00 Build 0)  -->
<!DOCTYPE svg PUBLIC "-//W3C//DTD SVG 1.1//EN" "http://www.w3.org/Graphics/SVG/1.1/DTD/svg11.dtd">
<svg version="1.1" id="Layer_1" xmlns="http://www.w3.org/2000/svg" xmlns:xlink="http://www.w3.org/1999/xlink" x="0px" y="0px"
	 width="17.93px" height="14.074px" viewBox="0 0 17.93 14.074" enable-background="new 0 0 17.93 14.074" xml:space="preserve">
<path fill-rule="evenodd" clip-rule="evenodd" fill="#007396" d="M9.454,4.284l-4.1-4.087C5.21,0.054,5.018-0.009,4.829,0.001
	c-0.19-0.01-0.382,0.053-0.526,0.196L0.204,4.284c-0.271,0.271-0.271,0.71,0,0.98c0.271,0.271,0.698,0.259,1.186,0.259h2.069v6.234
	v1.972v0.041h0.009c0.022,0.17,0.165,0.304,0.346,0.304h2.052c0.181,0,0.323-0.134,0.346-0.304h0.009v-0.041v-1.972V5.523h2.07
	c0.444,0,0.893,0.012,1.164-0.259C9.724,4.994,9.724,4.556,9.454,4.284z"/>
<path fill-rule="evenodd" clip-rule="evenodd" fill="#007396" d="M8.477,9.791l4.099,4.086c0.145,0.144,0.337,0.206,0.526,0.196
	c0.189,0.01,0.381-0.053,0.526-0.196l4.099-4.086c0.271-0.271,0.271-0.71,0-0.98c-0.271-0.271-0.698-0.259-1.186-0.259h-2.07V2.316
	V0.345V0.304h-0.009C14.441,0.134,14.298,0,14.118,0h-2.052c-0.181,0-0.324,0.134-0.347,0.304h-0.008v0.041v1.972v6.235h-2.07
	c-0.444,0-0.893-0.012-1.164,0.259S8.206,9.52,8.477,9.791z"/>
</svg>
