<?xml version="1.0" encoding="utf-8"?>
<!-- Generator: Adobe Illustrator 16.0.0, SVG Export Plug-In . SVG Version: 6.00 Build 0)  -->
<!DOCTYPE svg PUBLIC "-//W3C//DTD SVG 1.1//EN" "http://www.w3.org/Graphics/SVG/1.1/DTD/svg11.dtd">
<svg version="1.1" id="Layer_1" xmlns="http://www.w3.org/2000/svg" xmlns:xlink="http://www.w3.org/1999/xlink" x="0px" y="0px"
	 width="21.4px" height="14.268px" viewBox="0 0 21.4 14.268" enable-background="new 0 0 21.4 14.268" xml:space="preserve">
<path fill="#b8d2f4" d="M19.616,0H1.784C0.8,0,0,0.8,0,1.783v10.7c0,0.984,0.8,1.784,1.784,1.784h17.832
	c0.984,0,1.784-0.8,1.784-1.784v-10.7C21.4,0.8,20.601,0,19.616,0z M19.616,12.037c0,0.246-0.2,0.446-0.444,0.446H2.229
	c-0.244,0-0.444-0.2-0.444-0.446V6.241h17.832V12.037z M19.616,3.566H1.784V2.229c0-0.246,0.2-0.446,0.444-0.446h16.943
	c0.244,0,0.444,0.2,0.444,0.446V3.566z M11.592,8.917H3.566V8.025h8.025V8.917z M8.916,10.7h-5.35V9.809h5.35V10.7z M17.834,8.917
	h-2.675V8.025h2.675V8.917z"/>
</svg>
