<?xml version="1.0" encoding="utf-8"?>
<!-- Generator: Adobe Illustrator 16.0.0, SVG Export Plug-In . SVG Version: 6.00 Build 0)  -->
<!DOCTYPE svg PUBLIC "-//W3C//DTD SVG 1.1//EN" "http://www.w3.org/Graphics/SVG/1.1/DTD/svg11.dtd">
<svg version="1.1" id="Layer_1" xmlns="http://www.w3.org/2000/svg" xmlns:xlink="http://www.w3.org/1999/xlink" x="0px" y="0px"
	 width="28px" height="32px" viewBox="0 0 28 32" enable-background="new 0 0 28 32" xml:space="preserve">
<path d="M24,32H4c-2.209,0-4-1.791-4-4V8c0-2.209,1.791-4,4-4h3V2h2.693C10.56,0.81,12.154,0,14,0s3.44,0.81,4.307,2H21v2h3
	c2.209,0,4,1.791,4,4v20C28,30.209,26.209,32,24,32z M19,4h-2.223c0-1.104-1.243-2-2.777-2s-2.778,0.896-2.778,2H9v4h10V4z M26,8
	c0-1.104-0.896-2-2-2h-3v4H7V6H4C2.896,6,2,6.896,2,8v20c0,1.104,0.896,2,2,2h20c1.104,0,2-0.896,2-2V8z M21,26H7
	c-0.552,0-1-0.447-1-1s0.448-1,1-1h14c0.553,0,1,0.447,1,1S21.553,26,21,26z M21,21H7c-0.552,0-1-0.447-1-1s0.448-1,1-1h14
	c0.553,0,1,0.447,1,1S21.553,21,21,21z M21,16H7c-0.552,0-1-0.448-1-1s0.448-1,1-1h14c0.553,0,1,0.448,1,1S21.553,16,21,16z"/>
</svg>
