<?xml version="1.0" encoding="utf-8"?>
<!-- Generator: Adobe Illustrator 16.0.0, SVG Export Plug-In . SVG Version: 6.00 Build 0)  -->
<!DOCTYPE svg PUBLIC "-//W3C//DTD SVG 1.1//EN" "http://www.w3.org/Graphics/SVG/1.1/DTD/svg11.dtd">
<svg version="1.1" id="Layer_1" xmlns="http://www.w3.org/2000/svg" xmlns:xlink="http://www.w3.org/1999/xlink" x="0px" y="0px"
	 width="15.952px" height="15.374px" viewBox="0 0 15.952 15.374" enable-background="new 0 0 15.952 15.374" xml:space="preserve">
<path fill-rule="evenodd" clip-rule="evenodd" fill="#007396" d="M13.509,6.668c-0.13,0.129-0.239,0.186-0.407,0.166
	c0,0-3.079,0-3.415,0c0,3.757,2.705,7.156,6.266,7.831c-1.044,0.454-2.195,0.709-3.405,0.709c-4.723,0-8.55-3.828-8.55-8.55H0.639
	C0.47,6.843,0.296,6.798,0.168,6.668c-0.224-0.227-0.224-0.591,0-0.816l6.235-5.688c0.12-0.119,0.278-0.171,0.436-0.162
	c0.155-0.009,0.314,0.043,0.433,0.162l6.202,5.657C13.653,6.032,13.757,6.418,13.509,6.668z"/>
</svg>
