<?xml version="1.0" encoding="utf-8"?>
<!-- Generator: Adobe Illustrator 16.0.0, SVG Export Plug-In . SVG Version: 6.00 Build 0)  -->
<!DOCTYPE svg PUBLIC "-//W3C//DTD SVG 1.1//EN" "http://www.w3.org/Graphics/SVG/1.1/DTD/svg11.dtd">
<svg version="1.1" id="Layer_1" xmlns="http://www.w3.org/2000/svg" xmlns:xlink="http://www.w3.org/1999/xlink" x="0px" y="0px"
	 width="17.698px" height="17.688px" viewBox="0 0 17.698 17.688" enable-background="new 0 0 17.698 17.688" xml:space="preserve">
<g>
	<circle fill-rule="evenodd" clip-rule="evenodd" fill="#007396" cx="8.85" cy="6.633" r="2.764"/>
	<path fill-rule="evenodd" clip-rule="evenodd" fill="#007396" d="M14.941,9.637c0.444-0.89,0.701-1.887,0.701-2.945
		C15.643,2.996,12.601,0,8.85,0C5.098,0,2.058,2.996,2.058,6.691c0,1.059,0.255,2.056,0.7,2.945L0,14.341
		c0,0,1.749,0.352,3.523,0.717c1.182,1.316,2.359,2.63,2.359,2.63l2.535-4.325c0.144,0.009,0.286,0.021,0.432,0.021
		s0.288-0.013,0.432-0.021l2.535,4.325c0,0,1.177-1.313,2.359-2.63c1.774-0.365,3.522-0.717,3.522-0.717L14.941,9.637z M8.85,10.502
		c-2.137,0-3.87-1.732-3.87-3.869c0-2.138,1.733-3.869,3.87-3.869s3.869,1.731,3.869,3.869C12.719,8.77,10.986,10.502,8.85,10.502z"
		/>
</g>
</svg>
