<?xml version="1.0" encoding="utf-8"?>
<!-- Generator: Adobe Illustrator 16.0.0, SVG Export Plug-In . SVG Version: 6.00 Build 0)  -->
<!DOCTYPE svg PUBLIC "-//W3C//DTD SVG 1.1//EN" "http://www.w3.org/Graphics/SVG/1.1/DTD/svg11.dtd">
<svg version="1.1" id="Layer_1" xmlns="http://www.w3.org/2000/svg" xmlns:xlink="http://www.w3.org/1999/xlink" x="0px" y="0px"
	 width="20.076px" height="18.402px" viewBox="0 0 20.076 18.402" enable-background="new 0 0 20.076 18.402" xml:space="preserve">
<path fill="#ffcc33" d="M15.476,17.148c1.74,0,3.545-0.406,4.601-1.174v0.547c0,1.039-2.142,1.881-4.601,1.881
	s-4.601-0.842-4.601-1.881v-0.547C11.929,16.742,13.735,17.148,15.476,17.148z M15.476,12.967c1.74,0,3.545-0.406,4.601-1.174v0.545
	c0,1.039-2.142,1.883-4.601,1.883s-4.601-0.842-4.601-1.883v-0.545C11.929,12.561,13.735,12.967,15.476,12.967z M15.476,15.057
	c1.74,0,3.545-0.404,4.601-1.172v0.545c0,1.039-2.142,1.883-4.601,1.883s-4.601-0.844-4.601-1.883v-0.545
	C11.929,14.652,13.735,15.057,15.476,15.057z M15.476,10.875c1.74,0,3.545-0.406,4.601-1.172v0.543c0,1.041-2.142,1.883-4.601,1.883
	s-4.601-0.842-4.601-1.883V9.703C11.929,10.469,13.735,10.875,15.476,10.875z M15.476,0c-2.459,0-4.601,0.842-4.601,1.882
	s2.142,1.882,4.601,1.882s4.601-0.842,4.601-1.882S17.935,0,15.476,0z M15.621,2.743v0.184h-0.296V2.753
	c-0.302-0.002-0.622-0.047-0.886-0.127l0.136-0.287c0.226,0.053,0.507,0.105,0.762,0.105l0.192-0.012
	c0.338-0.044,0.406-0.252,0.031-0.351c-0.274-0.075-1.118-0.139-1.118-0.564c0-0.238,0.308-0.449,0.883-0.496V0.836h0.296v0.176
	c0.215,0.004,0.455,0.025,0.722,0.075l-0.107,0.286c-0.203-0.043-0.43-0.083-0.651-0.083l-0.066,0.001
	c-0.444,0.017-0.479,0.24-0.173,0.334c0.503,0.141,1.166,0.244,1.166,0.619C16.51,2.544,16.112,2.704,15.621,2.743z M15.476,8.783
	c1.74,0,3.545-0.405,4.601-1.173v0.546c0,1.04-2.142,1.881-4.601,1.881s-4.601-0.842-4.601-1.881V7.61
	C11.929,8.378,13.735,8.783,15.476,8.783z M15.476,4.601c1.74,0,3.545-0.405,4.601-1.173v0.545c0,1.04-2.142,1.882-4.601,1.882
	s-4.601-0.842-4.601-1.882V3.428C11.929,4.196,13.735,4.601,15.476,4.601z M15.476,6.692c1.74,0,3.545-0.405,4.601-1.172v0.544
	c0,1.04-2.142,1.882-4.601,1.882s-4.601-0.842-4.601-1.882V5.52C11.929,6.287,13.735,6.692,15.476,6.692z M4.601,8.365
	C2.143,8.365,0,9.207,0,10.246c0,1.041,2.143,1.883,4.601,1.883c2.46,0,4.601-0.842,4.601-1.883
	C9.201,9.207,7.061,8.365,4.601,8.365z M4.746,11.107v0.186H4.451v-0.174c-0.302-0.004-0.622-0.047-0.886-0.127l0.136-0.287
	c0.226,0.051,0.509,0.105,0.763,0.105l0.191-0.012c0.339-0.045,0.407-0.252,0.031-0.352C4.412,10.373,3.57,10.309,3.57,9.883
	c0-0.237,0.308-0.45,0.881-0.496V9.201h0.296v0.176c0.216,0.004,0.456,0.025,0.722,0.075L5.362,9.738
	C5.159,9.696,4.934,9.656,4.71,9.656L4.644,9.657C4.2,9.673,4.165,9.896,4.471,9.99c0.504,0.143,1.165,0.246,1.165,0.619
	C5.636,10.91,5.237,11.068,4.746,11.107z M4.601,17.148c1.741,0,3.547-0.406,4.601-1.174v0.547c0,1.039-2.141,1.881-4.601,1.881
	C2.143,18.402,0,17.561,0,16.521v-0.547C1.055,16.742,2.861,17.148,4.601,17.148z M4.601,12.967c1.741,0,3.547-0.406,4.601-1.174
	v0.545c0,1.041-2.141,1.883-4.601,1.883C2.143,14.221,0,13.379,0,12.338v-0.545C1.055,12.561,2.861,12.967,4.601,12.967z
	 M4.601,15.057c1.741,0,3.547-0.404,4.601-1.172v0.545c0,1.039-2.141,1.883-4.601,1.883C2.143,16.313,0,15.469,0,14.43v-0.545
	C1.055,14.652,2.861,15.057,4.601,15.057z"/>
</svg>
