<?xml version="1.0" encoding="utf-8"?>
<!-- Generator: Adobe Illustrator 16.0.0, SVG Export Plug-In . SVG Version: 6.00 Build 0)  -->
<!DOCTYPE svg PUBLIC "-//W3C//DTD SVG 1.1//EN" "http://www.w3.org/Graphics/SVG/1.1/DTD/svg11.dtd">
<svg version="1.1" id="Layer_1" xmlns="http://www.w3.org/2000/svg" xmlns:xlink="http://www.w3.org/1999/xlink" x="0px" y="0px"
	 width="42px" height="42px" viewBox="0 0 42 42" enable-background="new 0 0 42 42" xml:space="preserve">
<path fill="#FECB38" d="M21,0C9.402,0,0,9.402,0,21c0,11.598,9.402,21,21,21c11.598,0,21-9.402,21-21C42,9.402,32.598,0,21,0z
	 M20.999,11c2.437,0,4.414,1.37,4.414,4.412c0,3.041-1.978,5.506-4.414,5.506c-2.437,0-4.413-2.465-4.413-5.506
	C16.585,12.371,18.562,11,20.999,11z M29.997,29.443L29.997,29.443c-0.001,0.004-0.003,0.005-0.003,0.007
	c0,0.011,0.002,0.022,0.002,0.032v0.145c0,0.332-0.291,0.371-0.623,0.373c-0.004,0-0.007,0.002-0.012,0.002h-0.03H12.666h-0.031
	c-0.004,0-0.007-0.002-0.011-0.002c-0.332-0.002-0.623-0.041-0.623-0.373v-0.145c0-0.01,0.001-0.021,0.001-0.032
	c0-0.002-0.001-0.003-0.001-0.007v-0.07c0-0.01,0.005-0.018,0.006-0.027c0.058-3.789,2.495-6.998,5.893-8.237
	c0.796,0.981,1.891,1.588,3.099,1.588s2.302-0.606,3.099-1.588c3.398,1.239,5.834,4.448,5.894,8.237c0,0.01,0.006,0.019,0.006,0.027
	V29.443z"/>
</svg>
