<?xml version="1.0" encoding="utf-8"?>
<!-- Generator: Adobe Illustrator 16.0.0, SVG Export Plug-In . SVG Version: 6.00 Build 0)  -->
<!DOCTYPE svg PUBLIC "-//W3C//DTD SVG 1.1//EN" "http://www.w3.org/Graphics/SVG/1.1/DTD/svg11.dtd">
<svg version="1.1" id="Layer_1" xmlns="http://www.w3.org/2000/svg" xmlns:xlink="http://www.w3.org/1999/xlink" x="0px" y="0px"
	 width="41.979px" height="44.008px" viewBox="0 0 41.979 44.008" enable-background="new 0 0 41.979 44.008" xml:space="preserve">
<path fill="#DDDDDD" d="M31.285,10.217c0,7.043-4.61,12.752-10.295,12.752c-5.687,0-10.296-5.709-10.296-12.752S15.305,0,20.99,0
	C26.675,0,31.285,3.174,31.285,10.217z"/>
<path fill="#DDDDDD" d="M41.979,42.551c0-0.02-0.012-0.039-0.013-0.061c-0.135-8.777-5.819-16.209-13.747-19.08
	c-1.859,2.272-4.412,3.678-7.229,3.678c-2.818,0-5.371-1.404-7.229-3.678C5.833,26.282,0.148,33.713,0.013,42.491
	C0.012,42.512,0,42.532,0,42.551v0.166c0,0.007,0.003,0.011,0.003,0.015C0.003,42.758,0,42.784,0,42.808v0.332
	c0,0.772,0.679,0.86,1.454,0.864c0.009,0,0.016,0.004,0.023,0.004h0.073h38.877h0.073c0.009,0,0.015-0.004,0.023-0.004
	c0.774-0.006,1.453-0.094,1.453-0.864v-0.332c0-0.024-0.003-0.05-0.003-0.076c0-0.004,0.003-0.008,0.003-0.015L41.979,42.551
	L41.979,42.551z"/>
</svg>
