<?xml version="1.0" encoding="utf-8"?>
<!-- Generator: Adobe Illustrator 16.0.0, SVG Export Plug-In . SVG Version: 6.00 Build 0)  -->
<!DOCTYPE svg PUBLIC "-//W3C//DTD SVG 1.1//EN" "http://www.w3.org/Graphics/SVG/1.1/DTD/svg11.dtd">
<svg version="1.1" id="Layer_1" xmlns="http://www.w3.org/2000/svg" xmlns:xlink="http://www.w3.org/1999/xlink" x="0px" y="0px"
	 width="17.012px" height="20.005px" viewBox="0 0 17.012 20.005" enable-background="new 0 0 17.012 20.005" xml:space="preserve">
<path fill="#ffffff" d="M14.869,1.021c-2.348-1.715-5.658-1.218-7.394,1.112c-1.077,1.445-1.293,3.254-0.743,4.83l-6.622,8.83
	c-0.075,0.049-0.121,0.137-0.108,0.23l0.501,3.791c0.016,0.125,0.131,0.21,0.256,0.188l3.785-0.64
	c0.04-0.007,0.075-0.025,0.105-0.049l-0.271-2.925l2.03-0.466l-0.153-2.1l2.114-0.484l-0.145-1.997l3.002-0.869l0.02-0.024
	c1.777,0.156,3.592-0.578,4.73-2.106C17.712,6.014,17.216,2.735,14.869,1.021z M13.543,6.566c-0.742,0.996-2.158,1.21-3.162,0.476
	C9.377,6.309,9.165,4.906,9.907,3.91C10.65,2.914,12.066,2.7,13.07,3.434C14.074,4.167,14.287,5.57,13.543,6.566z"/>
</svg>
