<?xml version="1.0" encoding="utf-8"?>
<!-- Generator: Adobe Illustrator 16.0.0, SVG Export Plug-In . SVG Version: 6.00 Build 0)  -->
<!DOCTYPE svg PUBLIC "-//W3C//DTD SVG 1.1//EN" "http://www.w3.org/Graphics/SVG/1.1/DTD/svg11.dtd">
<svg version="1.1" id="Layer_1" xmlns="http://www.w3.org/2000/svg" xmlns:xlink="http://www.w3.org/1999/xlink" x="0px" y="0px"
	 width="31.806px" height="28.81px" viewBox="0 0 31.806 28.81" enable-background="new 0 0 31.806 28.81" xml:space="preserve">
<path fill="none" stroke="#ffffff" stroke-width="2" stroke-miterlimit="10" d="M23.618,15.943v9.016
	c0,1.574-1.276,2.851-2.851,2.851H3.851C2.276,27.81,1,26.533,1,24.959V3.851C1,2.276,2.276,1,3.851,1h16.917
	c1.574,0,2.851,1.276,2.851,2.851v2.074"/>
<path fill="none" stroke="#ffffff" stroke-width="2" stroke-miterlimit="10" d="M23.699,16.002
	c-0.191,0.291-0.534,0.404-0.765,0.252l-3.612-2.385c-0.231-0.15-0.264-0.509-0.071-0.801l6.98-11.726
	c0.192-0.292,0.534-0.402,0.765-0.251l3.613,2.384c0.23,0.152,0.263,0.509,0.07,0.801L23.699,16.002z"/>
<polyline fill="none" stroke="#ffffff" stroke-width="2" stroke-linecap="round" stroke-linejoin="round" stroke-miterlimit="10" points="
	19.023,13.414 17.149,21.094 23.531,16.256 "/>
<line fill="none" stroke="#ffffff" stroke-width="2" stroke-linecap="round" stroke-miterlimit="10" x1="6.206" y1="21.094" x2="13.38" y2="21.094"/>
<line fill="none" stroke="#ffffff" stroke-width="2" stroke-linecap="round" stroke-miterlimit="10" x1="6.206" y1="16.438" x2="13.38" y2="16.438"/>
<line fill="none" stroke="#ffffff" stroke-width="2" stroke-linecap="round" stroke-miterlimit="10" x1="6.206" y1="11.727" x2="16.72" y2="11.727"/>
<line fill="none" stroke="#ffffff" stroke-width="2" stroke-linecap="round" stroke-miterlimit="10" x1="6.206" y1="7.154" x2="16.72" y2="7.154"/>
</svg>
