<?xml version="1.0" encoding="utf-8"?>
<!-- Generator: Adobe Illustrator 16.0.0, SVG Export Plug-In . SVG Version: 6.00 Build 0)  -->
<!DOCTYPE svg PUBLIC "-//W3C//DTD SVG 1.1//EN" "http://www.w3.org/Graphics/SVG/1.1/DTD/svg11.dtd">
<svg version="1.1" id="Layer_1" xmlns="http://www.w3.org/2000/svg" xmlns:xlink="http://www.w3.org/1999/xlink" x="0px" y="0px"
	 width="30px" height="32px" viewBox="0 0 30 32" enable-background="new 0 0 30 32" xml:space="preserve">
<path fill="#017197" fill-rule="evenodd" clip-rule="evenodd" d="M26,32H4c-2.209,0-4-1.791-4-4V6c0-2.209,1.791-4,4-4h4V1c0-0.552,0.447-1,1-1
	c0.552,0,1,0.448,1,1v1h10V1c0-0.552,0.447-1,1-1s1,0.448,1,1v1h4c2.209,0,4,1.791,4,4v22C30,30.209,28.209,32,26,32z M28,6
	c0-1.104-0.896-2-2-2h-4v1c0,0.552-0.447,1-1,1s-1-0.448-1-1V4H10v1c0,0.552-0.448,1-1,1C8.447,6,8,5.552,8,5V4H4
	C2.896,4,2,4.896,2,6v2h26V6z M28,10H2v18c0,1.104,0.896,2,2,2h22c1.104,0,2-0.896,2-2V10z M24,28h-2c-1.104,0-2-0.896-2-2v-2
	c0-1.104,0.896-2,2-2h2c1.104,0,2,0.896,2,2v2C26,27.104,25.104,28,24,28z M24,24h-2v2h2V24z M24,20h-2c-1.104,0-2-0.896-2-2v-2
	c0-1.104,0.896-2,2-2h2c1.104,0,2,0.896,2,2v2C26,19.104,25.104,20,24,20z M24,16h-2v2h2V16z M16,28h-2c-1.104,0-2-0.896-2-2v-2
	c0-1.104,0.896-2,2-2h2c1.104,0,2,0.896,2,2v2C18,27.104,17.104,28,16,28z M16,24h-2v2h2V24z M16,20h-2c-1.104,0-2-0.896-2-2v-2
	c0-1.104,0.896-2,2-2h2c1.104,0,2,0.896,2,2v2C18,19.104,17.104,20,16,20z M16,16h-2v2h2V16z M8,28H6c-1.104,0-2-0.896-2-2v-2
	c0-1.104,0.896-2,2-2h2c1.104,0,2,0.896,2,2v2C10,27.104,9.104,28,8,28z M8,24H6v2h2V24z M8,20H6c-1.104,0-2-0.896-2-2v-2
	c0-1.104,0.896-2,2-2h2c1.104,0,2,0.896,2,2v2C10,19.104,9.104,20,8,20z M8,16H6v2h2V16z"/>
</svg>
