<?xml version="1.0" encoding="utf-8"?>
<!-- Generator: Adobe Illustrator 16.0.0, SVG Export Plug-In . SVG Version: 6.00 Build 0)  -->
<!DOCTYPE svg PUBLIC "-//W3C//DTD SVG 1.1//EN" "http://www.w3.org/Graphics/SVG/1.1/DTD/svg11.dtd">
<svg version="1.1" id="Layer_1" xmlns="http://www.w3.org/2000/svg" xmlns:xlink="http://www.w3.org/1999/xlink" x="0px" y="0px"
	 width="26px" height="32.005px" viewBox="0 0 26 32.005" enable-background="new 0 0 26 32.005" xml:space="preserve">
<path fill="#017197" fill-rule="evenodd" clip-rule="evenodd" d="M22,32.005H4c-2.209,0-4-1.791-4-4v-24c0-2.209,1.791-4,4-4h12
	c1.339-0.021,1.871,0.029,2,0.029V0.005l8,8c0,1.469,0,1.688,0,2v18C26,30.214,24.209,32.005,22,32.005z M18,2.005c0,2.381,0,4,0,4
	c0,1.104,0.896,2,2,2h4L18,2.005z M24,10.005c-2.328,0-4,0-4,0c-2.209,0-4-1.791-4-4c0,0-0.047-1.605-0.028-4H4
	c-1.104,0-2,0.896-2,2v24c0,1.104,0.896,2,2,2h18c1.104,0,2-0.896,2-2V10.005z M19,24.005H7c-0.552,0-1-0.447-1-1s0.448-1,1-1h12
	c0.553,0,1,0.447,1,1S19.553,24.005,19,24.005z M19,18.005H7c-0.552,0-1-0.447-1-1c0-0.552,0.448-1,1-1h12c0.553,0,1,0.448,1,1
	C20,17.558,19.553,18.005,19,18.005z"/>
</svg>
