<?xml version="1.0" encoding="utf-8"?>
<!-- Generator: Adobe Illustrator 16.0.0, SVG Export Plug-In . SVG Version: 6.00 Build 0)  -->
<!DOCTYPE svg PUBLIC "-//W3C//DTD SVG 1.1//EN" "http://www.w3.org/Graphics/SVG/1.1/DTD/svg11.dtd">
<svg version="1.1" id="Layer_1" xmlns="http://www.w3.org/2000/svg" xmlns:xlink="http://www.w3.org/1999/xlink" x="0px" y="0px"
	 width="32px" height="32px" viewBox="0 0 32 32" enable-background="new 0 0 32 32" xml:space="preserve">
<path fill="#017197" fill-rule="evenodd" clip-rule="evenodd" d="M31,20h-6c-0.553,0-1-0.448-1-1c0-0.553,0.447-1,1-1h6c0.553,0,1,0.447,1,1
	C32,19.552,31.553,20,31,20z M31,14h-8c-0.553,0-1-0.447-1-1c0-0.553,0.447-1,1-1h8c0.553,0,1,0.448,1,1C32,13.552,31.553,14,31,14z
	 M31,8h-8c-0.553,0-1-0.447-1-1c0-0.553,0.447-1,1-1h8c0.553,0,1,0.447,1,1C32,7.552,31.553,8,31,8z M22,22v4c0,3.313-2.687,6-6,6H6
	c-3.313,0-6-2.687-6-6v-4c0-2.627,1.699-4.835,4.049-5.648C2.769,14.625,2,12.412,2,10C2,4.477,6.029,0,11,0s9,4.477,9,10
	c0,2.412-0.77,4.625-2.049,6.352C20.301,17.165,22,19.373,22,22z M18,10c0-4.418-3.134-8-7-8s-7,3.582-7,8c0,4.418,3.134,8,7,8
	S18,14.418,18,10z M20,22.5c0-2.126-1.613-3.896-3.775-4.367C14.75,19.303,12.95,20,11,20s-3.75-0.697-5.225-1.867
	C3.613,18.604,2,20.374,2,22.5v3C2,27.985,4.198,30,6.909,30h8.182C17.802,30,20,27.985,20,25.5V22.5z M25,24h6c0.553,0,1,0.447,1,1
	s-0.447,1-1,1h-6c-0.553,0-1-0.447-1-1S24.447,24,25,24z"/>
</svg>
