<?xml version="1.0" encoding="utf-8"?>
<!-- Generator: Adobe Illustrator 16.0.0, SVG Export Plug-In . SVG Version: 6.00 Build 0)  -->
<!DOCTYPE svg PUBLIC "-//W3C//DTD SVG 1.1//EN" "http://www.w3.org/Graphics/SVG/1.1/DTD/svg11.dtd">
<svg version="1.1" id="Layer_1" xmlns="http://www.w3.org/2000/svg" xmlns:xlink="http://www.w3.org/1999/xlink" x="0px" y="0px"
	 width="32px" height="32px" viewBox="0 0 32 32" enable-background="new 0 0 32 32" xml:space="preserve">
<path fill="#ffffff" fill-rule="evenodd" clip-rule="evenodd" d="M16,32C7.164,32,0,24.837,0,16C0,7.164,7.164,0,16,0c8.836,0,16,7.164,16,16
	C32,24.837,24.836,32,16,32z M27.596,23.829c1.34-1.974,2.188-4.308,2.366-6.829h-8.005c-0.051,1.859-0.207,3.675-0.502,5.408
	C23.621,22.715,25.681,23.192,27.596,23.829z M12.047,17c0.053,1.761,0.213,3.493,0.515,5.156C13.687,22.058,14.832,22,16,22
	c1.168,0,2.313,0.058,3.438,0.156C19.74,20.493,19.9,18.761,19.953,17H12.047z M19.953,15c-0.053-1.761-0.213-3.493-0.515-5.156
	C18.313,9.942,17.168,10,16,10c-1.168,0-2.313-0.058-3.438-0.156C12.26,11.507,12.1,13.239,12.047,15H19.953z M26.219,25.554
	c-1.633-0.516-3.357-0.909-5.154-1.175c-0.42,1.832-0.965,3.571-1.631,5.18C22.073,28.892,24.414,27.477,26.219,25.554z
	 M15.029,29.951C15.352,29.973,15.672,30,16,30s0.648-0.027,0.971-0.049c0.852-1.772,1.54-3.744,2.051-5.837
	c-0.994-0.087-2.002-0.139-3.021-0.139s-2.027,0.052-3.021,0.139C13.489,26.207,14.178,28.179,15.029,29.951z M12.566,29.559
	c-0.667-1.608-1.211-3.348-1.631-5.18c-1.797,0.266-3.521,0.659-5.154,1.175C7.586,27.477,9.927,28.892,12.566,29.559z
	 M10.545,22.408c-0.295-1.733-0.452-3.549-0.502-5.408H2.038c0.179,2.521,1.026,4.855,2.366,6.829
	C6.319,23.192,8.378,22.715,10.545,22.408z M4.404,8.171C3.064,10.146,2.217,12.479,2.038,15h8.005
	c0.05-1.859,0.207-3.675,0.502-5.408C8.378,9.285,6.319,8.808,4.404,8.171z M5.781,6.446c1.633,0.516,3.357,0.91,5.154,1.175
	c0.42-1.832,0.964-3.571,1.631-5.18C9.927,3.109,7.586,4.523,5.781,6.446z M16.971,2.049C16.648,2.027,16.328,2,16,2
	s-0.648,0.027-0.971,0.049c-0.852,1.773-1.54,3.745-2.051,5.837C13.973,7.973,14.98,8.024,16,8.024s2.027-0.052,3.021-0.139
	C18.511,5.793,17.822,3.822,16.971,2.049z M19.434,2.441c0.666,1.608,1.211,3.348,1.631,5.18c1.797-0.265,3.521-0.659,5.154-1.175
	C24.414,4.523,22.073,3.109,19.434,2.441z M21.455,9.592c0.295,1.733,0.451,3.548,0.502,5.408h8.005
	c-0.179-2.521-1.026-4.854-2.366-6.829C25.681,8.808,23.621,9.285,21.455,9.592z"/>
</svg>
