<?xml version="1.0" encoding="utf-8"?>
<!-- Generator: Adobe Illustrator 16.0.0, SVG Export Plug-In . SVG Version: 6.00 Build 0)  -->
<!DOCTYPE svg PUBLIC "-//W3C//DTD SVG 1.1//EN" "http://www.w3.org/Graphics/SVG/1.1/DTD/svg11.dtd">
<svg version="1.1" id="Layer_1" xmlns="http://www.w3.org/2000/svg" xmlns:xlink="http://www.w3.org/1999/xlink" x="0px" y="0px"
	 width="28px" height="32px" viewBox="0 0 28 32" enable-background="new 0 0 28 32" xml:space="preserve">
<path fill="#017197" fill-rule="evenodd" clip-rule="evenodd" d="M18,32l-4-3l-4,3l-4-3l-4.133,3H0V4c0-2.209,1.791-4,4-4h20c2.209,0,4,1.791,4,4
	v28h-1.867L22,29L18,32z M26,4c0-1.104-0.896-2-2-2H4C2.896,2,2,2.896,2,4v26.058L6,27l4,3.188L14,27l4,3.188L22,27l4,3.027V4z
	 M21,20H7c-0.552,0-1-0.448-1-1c0-0.553,0.448-1,1-1h14c0.552,0,1,0.447,1,1C22,19.552,21.552,20,21,20z M21,13.977H7
	c-0.552,0-1-0.448-1-1s0.448-1,1-1h14c0.552,0,1,0.448,1,1S21.552,13.977,21,13.977z M21,8H7C6.448,8,6,7.552,6,7s0.448-1,1-1h14
	c0.552,0,1,0.448,1,1S21.552,8,21,8z"/>
</svg>
