<?xml version="1.0" encoding="utf-8"?>
<!-- Generator: Adobe Illustrator 16.0.0, SVG Export Plug-In . SVG Version: 6.00 Build 0)  -->
<!DOCTYPE svg PUBLIC "-//W3C//DTD SVG 1.1//EN" "http://www.w3.org/Graphics/SVG/1.1/DTD/svg11.dtd">
<svg version="1.1" id="Layer_1" xmlns="http://www.w3.org/2000/svg" xmlns:xlink="http://www.w3.org/1999/xlink" x="0px" y="0px"
	 width="36.141px" height="40.236px" viewBox="0 0 36.141 40.236" enable-background="new 0 0 36.141 40.236" xml:space="preserve">
<g>
	<path fill="#E75151" d="M17.974,0c0.941,0,1.748,0.252,2.42,0.756c0.671,0.504,0.94,1.194,0.807,2.067l-1.008,13.513l11.496-7.563
		c0.671-0.47,1.395-0.57,2.168-0.303c0.772,0.27,1.361,0.841,1.765,1.714c0.47,0.807,0.621,1.598,0.454,2.37
		c-0.169,0.774-0.69,1.329-1.563,1.664L21.907,20.27l12.605,5.849c0.873,0.337,1.395,0.908,1.563,1.714
		c0.167,0.807,0.016,1.614-0.454,2.42c-0.403,0.807-0.993,1.346-1.765,1.613c-0.773,0.27-1.497,0.168-2.168-0.302l-11.396-7.462
		l0.908,13.311c0.134,0.942-0.136,1.648-0.807,2.118c-0.673,0.471-1.479,0.706-2.42,0.706c-0.942,0-1.731-0.235-2.37-0.706
		c-0.64-0.469-0.892-1.175-0.756-2.118l0.907-13.311L4.461,31.564c-0.741,0.471-1.48,0.572-2.219,0.302
		c-0.741-0.268-1.346-0.807-1.815-1.613c-0.403-0.807-0.521-1.614-0.353-2.42c0.167-0.807,0.688-1.377,1.563-1.714l12.504-5.849
		L1.638,14.219c-0.875-0.335-1.396-0.89-1.563-1.664c-0.169-0.772-0.051-1.563,0.353-2.37c0.47-0.873,1.075-1.445,1.815-1.714
		c0.739-0.268,1.478-0.167,2.219,0.303l11.294,7.563L14.848,2.824c-0.136-0.873,0.117-1.563,0.756-2.067
		C16.243,0.252,17.032,0,17.974,0z"/>
</g>
</svg>
