<?xml version="1.0" encoding="utf-8"?>
<!-- Generator: Adobe Illustrator 16.0.0, SVG Export Plug-In . SVG Version: 6.00 Build 0)  -->
<!DOCTYPE svg PUBLIC "-//W3C//DTD SVG 1.1//EN" "http://www.w3.org/Graphics/SVG/1.1/DTD/svg11.dtd">
<svg version="1.1" id="Layer_1" xmlns="http://www.w3.org/2000/svg" xmlns:xlink="http://www.w3.org/1999/xlink" x="0px" y="0px"
	 width="23px" height="27px" viewBox="0 0 23 27" enable-background="new 0 0 23 27" xml:space="preserve">
<path fill-rule="evenodd" clip-rule="evenodd" d="M19,27H4c-2.209,0-4-1.791-4-4V4c0-2.209,1.791-4,4-4h15c2.209,0,4,1.791,4,4v19
	C23,25.209,21.209,27,19,27z M19,2H4C3.602,2,3.233,2.12,2.921,2.32L7,6h9l4.078-3.68C19.768,2.12,19.398,2,19,2z M21,4.222L17,8H6
	L2,4.222V23c0,1.104,0.896,2,2,2h15c1.104,0,2-0.896,2-2V4.222z"/>
</svg>
