<?xml version="1.0" encoding="utf-8"?>
<!-- Generator: Adobe Illustrator 16.0.0, SVG Export Plug-In . SVG Version: 6.00 Build 0)  -->
<!DOCTYPE svg PUBLIC "-//W3C//DTD SVG 1.1//EN" "http://www.w3.org/Graphics/SVG/1.1/DTD/svg11.dtd">
<svg version="1.1" id="Layer_1" xmlns="http://www.w3.org/2000/svg" xmlns:xlink="http://www.w3.org/1999/xlink" x="0px" y="0px"
	 width="41px" height="31.992px" viewBox="0 0 41 31.992" enable-background="new 0 0 41 31.992" xml:space="preserve">
<path fill="#ffcc33" fill-rule="evenodd" clip-rule="evenodd" d="M40.405,28.481L22.573,0.889c-0.816-1.136-3.248-1.234-4.213,0L0.529,28.481
	c-0.884,1.635-1.002,3.511,2.402,3.511h35.118C41.499,31.992,41.383,29.98,40.405,28.481z M21.995,25.981c0,0.553-0.448,1-1,1h-1
	c-0.552,0-1-0.447-1-1v-0.615c0-0.553,0.448-1,1-1h1c0.552,0,1,0.447,1,1V25.981z M21.995,20.75c0,0.552-0.448,1-1,1h-1
	c-0.552,0-1-0.448-1-1v-9.77c0-0.552,0.448-1,1-1h1c0.552,0,1,0.448,1,1V20.75z"/>
</svg>
