<?xml version="1.0" encoding="utf-8"?>
<!-- Generator: Adobe Illustrator 16.0.0, SVG Export Plug-In . SVG Version: 6.00 Build 0)  -->
<!DOCTYPE svg PUBLIC "-//W3C//DTD SVG 1.1//EN" "http://www.w3.org/Graphics/SVG/1.1/DTD/svg11.dtd">
<svg version="1.1" id="Layer_1" xmlns="http://www.w3.org/2000/svg" xmlns:xlink="http://www.w3.org/1999/xlink" x="0px" y="0px"
	 width="23.733px" height="20.361px" viewBox="0 0 23.733 20.361" enable-background="new 0 0 23.733 20.361" xml:space="preserve">
<g>
	<path fill="#ffffff" d="M16.652,15.214c-2.789-1.019-3.681-1.874-3.681-3.71c0-1.103,0.853-0.742,1.227-2.76
		c0.154-0.838,0.906-0.014,1.051-1.926c0-0.762-0.411-0.95-0.411-0.95s0.209-1.128,0.29-1.995C15.23,2.793,14.504,0,10.634,0
		S6.038,2.793,6.14,3.873C6.221,4.74,6.43,5.868,6.43,5.868s-0.411,0.188-0.411,0.95C6.162,8.73,6.915,7.906,7.069,8.744
		c0.374,2.018,1.226,1.657,1.226,2.76c0,1.836-0.891,2.691-3.68,3.71C1.818,16.231,0,17.271,0,17.979c0,0.71,0,2.382,0,2.382h10.634
		h10.634c0,0,0-1.672,0-2.382C21.268,17.271,19.449,16.231,16.652,15.214z"/>
</g>
<rect x="17.718" y="8.957" fill="#ffffff" width="6.016" height="1.583"/>
<rect x="19.935" y="6.741" fill="#ffffff" width="1.582" height="6.016"/>
</svg>
