<?xml version="1.0" encoding="utf-8"?>
<!-- Generator: Adobe Illustrator 16.0.0, SVG Export Plug-In . SVG Version: 6.00 Build 0)  -->
<!DOCTYPE svg PUBLIC "-//W3C//DTD SVG 1.1//EN" "http://www.w3.org/Graphics/SVG/1.1/DTD/svg11.dtd">
<svg version="1.1" id="Layer_1" xmlns="http://www.w3.org/2000/svg" xmlns:xlink="http://www.w3.org/1999/xlink" x="0px" y="0px"
	 width="16.872px" height="17.07px" viewBox="0 0 16.872 17.07" enable-background="new 0 0 16.872 17.07" xml:space="preserve">
<path fill="#ffffff" fill-rule="evenodd" clip-rule="evenodd" d="M2.065,0.327l-1.562,1.58c-0.863,0.872-0.448,1.913,0,3.159
	c0,0,2.147,3.701,4.924,6.508c2.952,2.985,6.399,4.942,6.399,4.942c1.14,0.592,2.262,0.872,3.124,0l1.563-1.58
	c0.431-0.436,0.523-1.213-0.001-1.579l-3.123-2.369c-0.529-0.362-1.131-0.437-1.563,0l0,0l0,0l-0.924,0.935
	c-1.083-0.817-2.288-1.813-3.371-2.908C6.574,8.045,5.723,6.995,5.014,6.032L5.97,5.065c0.432-0.436,0.358-1.044,0-1.58L3.627,0.327
	C3.196-0.109,2.497-0.109,2.065,0.327"/>
</svg>
