<?xml version="1.0" encoding="utf-8"?>
<!-- Generator: Adobe Illustrator 16.0.0, SVG Export Plug-In . SVG Version: 6.00 Build 0)  -->
<!DOCTYPE svg PUBLIC "-//W3C//DTD SVG 1.1//EN" "http://www.w3.org/Graphics/SVG/1.1/DTD/svg11.dtd">
<svg version="1.1" id="Layer_1" xmlns="http://www.w3.org/2000/svg" xmlns:xlink="http://www.w3.org/1999/xlink" x="0px" y="0px"
	 width="56px" height="56px" viewBox="0 0 56 56" enable-background="new 0 0 56 56" xml:space="preserve">
<path fill="#E75253" d="M28,0c15.464,0,28,12.536,28,28S43.464,56,28,56S0,43.464,0,28S12.536,0,28,0z"/>
<path fill-rule="evenodd" clip-rule="evenodd" fill="#FFFFFF" d="M39.125,22.929L26.672,35.162c-1.146,1.127-3.005,1.127-4.151,0
	l-4.67-4.588c-1.146-1.126-1.146-2.951,0-4.078c1.146-1.126,3.005-1.126,4.151,0l2.594,2.548l10.378-10.194
	c1.146-1.126,3.004-1.126,4.15,0C40.271,19.977,40.271,21.803,39.125,22.929z"/>
</svg>
