<?xml version="1.0" encoding="utf-8"?>
<!-- Generator: Adobe Illustrator 16.0.0, SVG Export Plug-In . SVG Version: 6.00 Build 0)  -->
<!DOCTYPE svg PUBLIC "-//W3C//DTD SVG 1.1//EN" "http://www.w3.org/Graphics/SVG/1.1/DTD/svg11.dtd">
<svg version="1.1" id="Layer_1" xmlns="http://www.w3.org/2000/svg" xmlns:xlink="http://www.w3.org/1999/xlink" x="0px" y="0px"
	 width="25.6px" height="23.965px" viewBox="0 0 25.6 23.965" enable-background="new 0 0 25.6 23.965" xml:space="preserve">
<path fill="#9c55c8" fill-rule="evenodd" clip-rule="evenodd" d="M24.868,13.629l-10.861,4.883c-1.04,0.453-1.454,0.453-2.414,0L0.732,13.629
	C0.155,13.324,0,12.19,0,11.572c0.725,0.415,1.744,0.876,1.707,0.853L12.8,17.539l11.094-5.114c0.02-0.004,1.008-0.503,1.706-0.853
	C25.6,12.205,25.403,13.379,24.868,13.629z M24.868,8.516l-10.861,4.882c-1.04,0.452-1.454,0.452-2.414,0L0.732,8.516
	c-0.853-0.453-0.827-1.878,0-2.411L11.593,0.37c0.96-0.479,1.561-0.506,2.414,0l10.861,5.735
	C25.694,6.557,25.667,8.143,24.868,8.516z M12.8,1.343L1.707,7.31L12.8,11.985L23.894,7.31L12.8,1.343z M12.8,1.343 M12.8,22.653
	l11.094-5.114c0.02-0.005,1.008-0.503,1.706-0.853c0,0.633-0.196,1.809-0.731,2.059l-10.861,4.882c-1.04,0.452-1.454,0.452-2.414,0
	L0.732,18.745C0.155,18.438,0,17.305,0,16.686c0.725,0.414,1.744,0.876,1.707,0.853L12.8,22.653z"/>
</svg>
