<?xml version="1.0" encoding="utf-8"?>
<!-- Generator: Adobe Illustrator 16.0.0, SVG Export Plug-In . SVG Version: 6.00 Build 0)  -->
<!DOCTYPE svg PUBLIC "-//W3C//DTD SVG 1.1//EN" "http://www.w3.org/Graphics/SVG/1.1/DTD/svg11.dtd">
<svg version="1.1" id="Layer_1" xmlns="http://www.w3.org/2000/svg" xmlns:xlink="http://www.w3.org/1999/xlink" x="0px" y="0px"
	 width="25.6px" height="25.6px" viewBox="0 0 25.6 25.6" enable-background="new 0 0 25.6 25.6" xml:space="preserve">
<path fill="#9c55c8" fill-rule="evenodd" clip-rule="evenodd" d="M24.8,16H20c-0.441,0-0.799-0.357-0.799-0.799c0-0.442,0.357-0.801,0.799-0.801
	H24.8c0.441,0,0.8,0.358,0.8,0.801C25.6,15.642,25.242,16,24.8,16z M24.8,11.2h-6.4c-0.441,0-0.8-0.358-0.8-0.8
	c0-0.442,0.358-0.8,0.8-0.8h6.4c0.441,0,0.8,0.358,0.8,0.8C25.6,10.842,25.242,11.2,24.8,11.2z M24.8,6.4h-6.4
	c-0.441,0-0.8-0.358-0.8-0.8c0-0.442,0.358-0.8,0.8-0.8h6.4c0.441,0,0.8,0.358,0.8,0.8C25.6,6.042,25.242,6.4,24.8,6.4z M17.6,17.6
	v3.2c0,2.65-2.149,4.8-4.8,4.8h-8c-2.651,0-4.8-2.149-4.8-4.8v-3.2c0-2.101,1.359-3.868,3.24-4.518C2.215,11.7,1.6,9.93,1.6,8
	c0-4.418,3.224-8,7.2-8S16,3.582,16,8c0,1.93-0.615,3.7-1.639,5.082C16.242,13.732,17.6,15.5,17.6,17.6z M14.4,8
	c0-3.535-2.507-6.4-5.6-6.4S3.2,4.465,3.2,8c0,3.534,2.507,6.399,5.6,6.399S14.4,11.535,14.4,8z M16,18c0-1.7-1.29-3.117-3.02-3.493
	C11.8,15.443,10.36,16,8.8,16s-3-0.557-4.18-1.493C2.891,14.882,1.6,16.299,1.6,18v2.4C1.6,22.388,3.358,24,5.528,24h6.545
	C14.242,24,16,22.388,16,20.4V18z M20,19.201H24.8c0.441,0,0.8,0.357,0.8,0.8s-0.358,0.8-0.8,0.8H20c-0.441,0-0.799-0.357-0.799-0.8
	S19.558,19.201,20,19.201z"/>
</svg>
