<?xml version="1.0" encoding="utf-8"?>
<!-- Generator: Adobe Illustrator 16.0.0, SVG Export Plug-In . SVG Version: 6.00 Build 0)  -->
<!DOCTYPE svg PUBLIC "-//W3C//DTD SVG 1.1//EN" "http://www.w3.org/Graphics/SVG/1.1/DTD/svg11.dtd">
<svg version="1.1" id="Layer_1" xmlns="http://www.w3.org/2000/svg" xmlns:xlink="http://www.w3.org/1999/xlink" x="0px" y="0px"
	 width="20.988px" height="25.979px" viewBox="0 0 20.988 25.979" enable-background="new 0 0 20.988 25.979" xml:space="preserve">
<path fill="#9c55c8" fill-rule="evenodd" clip-rule="evenodd" d="M17.758,25.979H3.229C1.446,25.979,0,24.525,0,22.732V3.251
	c0-1.793,1.446-3.247,3.229-3.247h9.687c1.08-0.017,1.51,0.023,1.614,0.023V0.004l6.458,6.494c0,1.192,0,1.37,0,1.623v14.611
	C20.988,24.525,19.542,25.979,17.758,25.979z M14.53,1.628c0,1.933,0,3.247,0,3.247c0,0.896,0.723,1.624,1.614,1.624h3.229
	L14.53,1.628z M19.373,8.121c-1.879,0-3.229,0-3.229,0c-1.783,0-3.229-1.453-3.229-3.247c0,0-0.038-1.303-0.023-3.247H3.229
	c-0.892,0-1.615,0.727-1.615,1.624v19.48c0,0.896,0.723,1.623,1.615,1.623h14.529c0.892,0,1.614-0.727,1.614-1.623V8.121z
	 M15.337,19.486H5.65c-0.446,0-0.807-0.363-0.807-0.813c0-0.448,0.361-0.812,0.807-0.812h9.687c0.445,0,0.807,0.363,0.807,0.812
	C16.144,19.123,15.783,19.486,15.337,19.486z M15.337,14.615H5.65c-0.446,0-0.807-0.363-0.807-0.812s0.361-0.812,0.807-0.812h9.687
	c0.445,0,0.807,0.363,0.807,0.812S15.783,14.615,15.337,14.615z"/>
</svg>
