<?xml version="1.0" encoding="utf-8"?>
<!-- Generator: Adobe Illustrator 16.0.0, SVG Export Plug-In . SVG Version: 6.00 Build 0)  -->
<!DOCTYPE svg PUBLIC "-//W3C//DTD SVG 1.1//EN" "http://www.w3.org/Graphics/SVG/1.1/DTD/svg11.dtd">
<svg version="1.1" id="Layer_1" xmlns="http://www.w3.org/2000/svg" xmlns:xlink="http://www.w3.org/1999/xlink" x="0px" y="0px"
	 width="37.599px" height="25.145px" viewBox="0 0 37.599 25.145" enable-background="new 0 0 37.599 25.145" xml:space="preserve">
<path fill="none" stroke="#000000" stroke-width="2" stroke-linecap="round" stroke-linejoin="round" stroke-miterlimit="10" d="
	M31.892,6.438V4.014c0-0.495-0.131-0.955-0.344-1.367L20.001,12.986"/>
<path fill="none" stroke="#000000" stroke-width="2" stroke-linecap="round" stroke-linejoin="round" stroke-miterlimit="10" d="
	M1.344,2.647C1.131,3.059,1,3.519,1,4.014v16.937c0,0.625,0.191,1.206,0.52,1.688l11.371-9.652L1.344,2.647z"/>
<path fill="none" stroke="#000000" stroke-width="2" stroke-linecap="round" stroke-linejoin="round" stroke-miterlimit="10" d="
	M20.001,12.986L31.548,2.647C31.046,1.673,30.039,1,28.863,1H4.028C2.853,1,1.846,1.673,1.344,2.647l11.547,10.339"/>
<path fill="none" stroke="#000000" stroke-width="2" stroke-linecap="round" stroke-linejoin="round" stroke-miterlimit="10" d="
	M20.001,12.986l-2.676,2.396c-0.486,0.485-1.273,0.486-1.76,0l-2.675-2.395L1.52,22.639c0.544,0.8,1.465,1.327,2.509,1.327h17.357"
	/>
<path fill="none" stroke="#000000" stroke-width="2" stroke-linecap="round" stroke-linejoin="round" stroke-miterlimit="10" d="
	M12.891,12.987l2.675,2.395c0.486,0.486,1.273,0.485,1.76,0l2.676-2.396"/>
<circle fill="none" stroke="#000000" stroke-width="2" stroke-linecap="round" stroke-linejoin="round" stroke-miterlimit="10" cx="29.994" cy="17.54" r="6.604"/>
<g>
	
		<line fill="none" stroke="#000000" stroke-width="2" stroke-linecap="round" stroke-linejoin="round" stroke-miterlimit="10" x1="31.572" y1="15.631" x2="33.48" y2="17.54"/>
	
		<line fill="none" stroke="#000000" stroke-width="2" stroke-linecap="round" stroke-linejoin="round" stroke-miterlimit="10" x1="31.572" y1="19.449" x2="33.48" y2="17.54"/>
	
		<line fill="none" stroke="#000000" stroke-width="2" stroke-linecap="round" stroke-linejoin="round" stroke-miterlimit="10" x1="33.266" y1="17.54" x2="26.508" y2="17.54"/>
</g>
</svg>
