<?xml version="1.0" encoding="utf-8"?>
<!-- Generator: Adobe Illustrator 16.0.0, SVG Export Plug-In . SVG Version: 6.00 Build 0)  -->
<!DOCTYPE svg PUBLIC "-//W3C//DTD SVG 1.1//EN" "http://www.w3.org/Graphics/SVG/1.1/DTD/svg11.dtd">
<svg version="1.1" id="Layer_1" xmlns="http://www.w3.org/2000/svg" xmlns:xlink="http://www.w3.org/1999/xlink" x="0px" y="0px"
	 width="22.4px" height="25.6px" viewBox="0 0 22.4 25.6" enable-background="new 0 0 22.4 25.6" xml:space="preserve">
<path fill="#9c55c8" fill-rule="evenodd" clip-rule="evenodd" d="M3.076,3.222C1.383,3.222,0,4.753,0,6.4v16c0,1.646,1.507,3.2,3.2,3.2h12
	c1.692,0,3.2-1.554,3.2-3.2h0.8c1.692,0,3.2-1.553,3.2-3.199V8V6.419L16.8,0c-0.099,0-9.6,0-9.6,0C5.507,0,4,1.553,4,3.2
	L3.076,3.222z M7.2,22.4c-1.693,0-3.2-1.553-3.2-3.199V4.8L3.124,4.826C2.284,4.826,1.6,5.585,1.6,6.4v16c0,0.815,0.76,1.6,1.6,1.6
	h12c0.84,0,1.6-0.784,1.6-1.6H7.2z M16.8,1.624v0.001c0,1.555,0,2.396,0,2.396C16.8,4.852,17.548,6.4,18.4,6.4H20.8L16.8,1.624z
	 M20.8,8C19.25,8,18.4,8,18.4,8c-1.704,0-3.2-1.518-3.2-3.18c0,0-0.013-1.377,0-3.22h-8c-0.84,0-1.6,0.785-1.6,1.6v16
	c0,0.814,0.76,1.6,1.6,1.6h12c0.84,0,1.6-0.785,1.6-1.6V8z M16.8,16.808H9.6c-0.442,0-0.8-0.357-0.8-0.799s0.358-0.799,0.8-0.799
	h7.2c0.442,0,0.801,0.357,0.801,0.799S17.242,16.808,16.8,16.808z M16.8,12.813H9.6c-0.442,0-0.8-0.358-0.8-0.799
	s0.358-0.799,0.8-0.799h7.2c0.442,0,0.801,0.358,0.801,0.799S17.242,12.813,16.8,12.813z"/>
</svg>
