<?xml version="1.0" encoding="utf-8"?>
<!-- Generator: Adobe Illustrator 16.0.0, SVG Export Plug-In . SVG Version: 6.00 Build 0)  -->
<!DOCTYPE svg PUBLIC "-//W3C//DTD SVG 1.1//EN" "http://www.w3.org/Graphics/SVG/1.1/DTD/svg11.dtd">
<svg version="1.1" id="Layer_1" xmlns="http://www.w3.org/2000/svg" xmlns:xlink="http://www.w3.org/1999/xlink" x="0px" y="0px"
	 width="22.4px" height="25.6px" viewBox="0 0 22.4 25.6" enable-background="new 0 0 22.4 25.6" xml:space="preserve">
<path fill="#9c55c8" fill-rule="evenodd" clip-rule="evenodd" d="M19.2,25.6h-16c-1.768,0-3.2-1.433-3.2-3.2v-16c0-1.768,1.433-3.2,3.2-3.2h2.4V1.6
	h2.155C8.448,0.648,9.724,0,11.2,0s2.752,0.648,3.445,1.6H16.8v1.6h2.4c1.768,0,3.2,1.433,3.2,3.2v16
	C22.4,24.167,20.968,25.6,19.2,25.6z M15.2,3.2h-1.777c0-0.884-0.995-1.6-2.223-1.6S8.978,2.316,8.978,3.2H7.2v3.2h8V3.2z M20.8,6.4
	c0-0.884-0.716-1.6-1.6-1.6h-2.4V8H5.6V4.8H3.2c-0.884,0-1.6,0.716-1.6,1.6v16C1.6,23.284,2.316,24,3.2,24h16
	c0.884,0,1.6-0.717,1.6-1.601V6.4z M16.8,20.8H5.6c-0.442,0-0.8-0.358-0.8-0.8c0-0.442,0.358-0.8,0.8-0.8h11.2
	c0.442,0,0.801,0.357,0.801,0.8C17.601,20.442,17.242,20.8,16.8,20.8z M16.8,16.8H5.6c-0.442,0-0.8-0.357-0.8-0.801
	c0-0.441,0.358-0.799,0.8-0.799h11.2c0.442,0,0.801,0.357,0.801,0.799C17.601,16.443,17.242,16.8,16.8,16.8z M16.8,12.8H5.6
	c-0.442,0-0.8-0.358-0.8-0.8c0-0.442,0.358-0.8,0.8-0.8h11.2c0.442,0,0.801,0.358,0.801,0.8C17.601,12.442,17.242,12.8,16.8,12.8z"
	/>
</svg>
