<?xml version="1.0" encoding="utf-8"?>
<!-- Generator: Adobe Illustrator 16.0.0, SVG Export Plug-In . SVG Version: 6.00 Build 0)  -->
<!DOCTYPE svg PUBLIC "-//W3C//DTD SVG 1.1//EN" "http://www.w3.org/Graphics/SVG/1.1/DTD/svg11.dtd">
<svg version="1.1" id="Layer_1" xmlns="http://www.w3.org/2000/svg" xmlns:xlink="http://www.w3.org/1999/xlink" x="0px" y="0px"
	 width="31.88px" height="21.722px" viewBox="0 0 31.88 21.722" enable-background="new 0 0 31.88 21.722" xml:space="preserve">
<circle fill-rule="evenodd" clip-rule="evenodd" fill="#9c55c8" cx="7.376" cy="13.381" r="1.178"/>
<circle fill-rule="evenodd" clip-rule="evenodd" fill="#9c55c8" cx="24.219" cy="13.381" r="1.178"/>
<path fill-rule="evenodd" clip-rule="evenodd" fill="none" stroke="#9c55c8" stroke-width="1.5" stroke-linecap="round" stroke-linejoin="round" stroke-miterlimit="10" d="
	M0.96,6.705C0.511,7.518,0.805,8.541,1.618,8.991l1.629,0.9c-2.205,5.703,0.692,8.167,0.692,8.167h1.346v1.521
	c0,0.769,0.401,1.393,0.896,1.393h2.822c0.495,0,0.896-0.624,0.896-1.393v-1.521h3.767h4.544h3.708v1.395
	c0,0.839,0.401,1.52,0.896,1.52h2.822c0.495,0,0.896-0.68,0.896-1.52v-1.395h1.405c0,0,2.897-2.463,0.692-8.167l1.629-0.9
	c0.813-0.45,1.107-1.473,0.658-2.285"/>
<line fill-rule="evenodd" clip-rule="evenodd" fill="none" stroke="#9c55c8" stroke-width="1.5" stroke-linecap="round" stroke-linejoin="round" stroke-miterlimit="10" x1="12.391" y1="13.381" x2="19.489" y2="13.381"/>
<line fill-rule="evenodd" clip-rule="evenodd" fill="#9c55c8" stroke="#9c55c8" stroke-width="1.5" stroke-miterlimit="10" x1="3.248" y1="9.891" x2="4.817" y2="6.454"/>
<line fill-rule="evenodd" clip-rule="evenodd" fill="#9c55c8" stroke="#9c55c8" stroke-width="1.5" stroke-miterlimit="10" x1="28.632" y1="9.891" x2="27.062" y2="6.454"/>
<path fill-rule="evenodd" clip-rule="evenodd" fill="none" stroke="#9c55c8" stroke-width="1.5" stroke-linecap="round" stroke-linejoin="round" stroke-miterlimit="10" d="
	M27.896,8.521c0,0.496-0.621,0.897-1.386,0.897H5.37c-0.766,0-1.386-0.401-1.386-0.897l2.772-6.875c0-0.495,0.621-0.896,1.386-0.896
	h15.594c0.766,0,1.386,0.401,1.386,0.896L27.896,8.521z"/>
</svg>
