<?xml version="1.0" encoding="utf-8"?>
<!-- Generator: Adobe Illustrator 16.0.0, SVG Export Plug-In . SVG Version: 6.00 Build 0)  -->
<!DOCTYPE svg PUBLIC "-//W3C//DTD SVG 1.1//EN" "http://www.w3.org/Graphics/SVG/1.1/DTD/svg11.dtd">
<svg version="1.1" id="Layer_1" xmlns="http://www.w3.org/2000/svg" xmlns:xlink="http://www.w3.org/1999/xlink" x="0px" y="0px"
	 width="25.6px" height="19.2px" viewBox="0 0 25.6 19.2" enable-background="new 0 0 25.6 19.2" xml:space="preserve">
<path fill="#9c55c8" fill-rule="evenodd" clip-rule="evenodd" d="M22.399,19.2H3.2C1.433,19.2,0,17.767,0,16V3.2C0,1.433,1.433,0,3.2,0h19.2
	c1.768,0,3.2,1.433,3.2,3.2V16C25.6,17.767,24.167,19.2,22.399,19.2z M24,3.2c0-0.884-0.717-1.6-1.601-1.6H3.2
	c-0.883,0-1.6,0.716-1.6,1.6V16c0,0.883,0.717,1.6,1.6,1.6h19.2C23.283,17.6,24,16.883,24,16V3.2z M20.8,9.6h-3.2
	C16.716,9.6,16,8.884,16,8V4.8c0-0.883,0.716-1.6,1.6-1.6h3.2c0.884,0,1.6,0.717,1.6,1.6V8C22.399,8.884,21.684,9.6,20.8,9.6z
	 M20.8,5.6c0-0.442-0.358-0.8-0.8-0.8h-1.601c-0.441,0-0.8,0.358-0.8,0.8v1.6c0,0.442,0.358,0.8,0.8,0.8H20
	c0.441,0,0.8-0.358,0.8-0.8V5.6z M13.6,16H4c-0.442,0-0.8-0.359-0.8-0.801s0.358-0.8,0.8-0.8h9.6c0.442,0,0.8,0.358,0.8,0.8
	S14.042,16,13.6,16z M13.6,12.8H4c-0.442,0-0.8-0.358-0.8-0.8C3.2,11.558,3.558,11.2,4,11.2h9.6c0.442,0,0.8,0.358,0.8,0.801
	C14.399,12.442,14.042,12.8,13.6,12.8z"/>
</svg>
