<?xml version="1.0" encoding="utf-8"?>
<!-- Generator: Adobe Illustrator 16.0.0, SVG Export Plug-In . SVG Version: 6.00 Build 0)  -->
<!DOCTYPE svg PUBLIC "-//W3C//DTD SVG 1.1//EN" "http://www.w3.org/Graphics/SVG/1.1/DTD/svg11.dtd">
<svg version="1.1" id="Layer_1" xmlns="http://www.w3.org/2000/svg" xmlns:xlink="http://www.w3.org/1999/xlink" x="0px" y="0px"
	 width="24px" height="25.716px" viewBox="0 0 24 25.716" enable-background="new 0 0 24 25.716" xml:space="preserve">
<path fill="#9c55c8" fill-rule="evenodd" clip-rule="evenodd" d="M22.4,25.716H1.6C0.716,25.716,0,25,0,24.116v-16v-1.6l20.8-6.4
	c0.375-0.1,0.684-0.175,1-0.05c0.411,0.162,0.601,0.408,0.601,0.85v5.6c0.883,0,1.6,0.716,1.6,1.6v16
	C24,25,23.283,25.716,22.4,25.716z M20.8,1.715l-15.6,4.8h15.6V1.715z M22.4,16.916c0-0.441,0-0.2,0-0.801h-3.2
	c0,0.359,0,0.359,0,0.801s0,0.283,0,0.8h3.2C22.4,17.166,22.4,17.357,22.4,16.916z M1.6,8.116h20c0.442,0,0.801,0.358,0.801,0.8v5.6
	h-4c-0.442,0-0.801,0.358-0.801,0.801v3.199c0,0.442,0.358,0.801,0.801,0.801h4v4c0,0.441-0.358,0.8-0.801,0.8H2.4
	c-0.442,0-0.8-0.358-0.8-0.8C1.6,23.316,1.6,8.666,1.6,8.116z"/>
</svg>
