<?xml version="1.0" encoding="utf-8"?>
<!-- Generator: Adobe Illustrator 16.0.0, SVG Export Plug-In . SVG Version: 6.00 Build 0)  -->
<!DOCTYPE svg PUBLIC "-//W3C//DTD SVG 1.1//EN" "http://www.w3.org/Graphics/SVG/1.1/DTD/svg11.dtd">
<svg version="1.1" id="Layer_1" xmlns="http://www.w3.org/2000/svg" xmlns:xlink="http://www.w3.org/1999/xlink" x="0px" y="0px"
	 width="24px" height="25.6px" viewBox="0 0 24 25.6" enable-background="new 0 0 24 25.6" xml:space="preserve">
<path fill="#9c55c8" fill-rule="evenodd" clip-rule="evenodd" d="M20.8,25.6H3.2c-1.768,0-3.2-1.433-3.2-3.2V3.2C0,1.433,1.433,0,3.2,0h17.6
	C22.567,0,24,1.433,24,3.2v19.2C24,24.167,22.567,25.6,20.8,25.6z M20.8,1.6H3.2c-0.319,0-0.614,0.096-0.863,0.256L5.6,4.8h12.8
	l3.263-2.944C21.414,1.696,21.119,1.6,20.8,1.6z M22.4,3.377l-3.2,3.022H4.8L1.6,3.377v19.022c0,0.884,0.716,1.6,1.6,1.6h17.6
	c0.884,0,1.601-0.716,1.601-1.6V3.377z"/>
</svg>
