<?xml version="1.0" encoding="utf-8"?>
<!-- Generator: Adobe Illustrator 16.0.0, SVG Export Plug-In . SVG Version: 6.00 Build 0)  -->
<!DOCTYPE svg PUBLIC "-//W3C//DTD SVG 1.1//EN" "http://www.w3.org/Graphics/SVG/1.1/DTD/svg11.dtd">
<svg version="1.1" id="Layer_1" xmlns="http://www.w3.org/2000/svg" xmlns:xlink="http://www.w3.org/1999/xlink" x="0px" y="0px"
	 width="25.6px" height="25.6px" viewBox="0 0 25.6 25.6" enable-background="new 0 0 25.6 25.6" xml:space="preserve">
<path fill="#9c55c8" fill-rule="evenodd" clip-rule="evenodd" d="M24,19.201l-1.809-0.482C20.382,22.771,16.326,25.6,11.6,25.6
	C5.194,25.6,0,20.407,0,14C0,8.021,4.577,3.032,10.4,2.4V0H12c7.203,0,13.6,5.936,13.6,13.257C25.6,15.726,24.875,17.763,24,19.201z
	 M10.4,14.744V4C5.534,4.703,1.6,8.968,1.6,14C1.6,19.523,6.078,24,11.6,24c3.73,0,7.614-2.298,8.968-5.716L10.4,14.744z M12,1.6v12
	l10.841,3.69c0.64-1.139,1.07-2.387,1.07-4.033C23.912,6.946,18.224,1.568,12,1.6z"/>
</svg>
