<?xml version="1.0" encoding="utf-8"?>
<!-- Generator: Adobe Illustrator 16.0.0, SVG Export Plug-In . SVG Version: 6.00 Build 0)  -->
<!DOCTYPE svg PUBLIC "-//W3C//DTD SVG 1.1//EN" "http://www.w3.org/Graphics/SVG/1.1/DTD/svg11.dtd">
<svg version="1.1" id="Layer_1" xmlns="http://www.w3.org/2000/svg" xmlns:xlink="http://www.w3.org/1999/xlink" x="0px" y="0px"
	 width="25.61px" height="25.588px" viewBox="0 0 25.61 25.588" enable-background="new 0 0 25.61 25.588" xml:space="preserve">
<path fill="#9c55c8" fill-rule="evenodd" clip-rule="evenodd" d="M24.449,14.087L13.884,24.619c-1.296,1.293-3.398,1.293-4.695,0l-8.217-8.191
	c-1.296-1.293-1.296-3.388,0-4.681L11.537,1.214C12.344,0.37,12.499,0,13.345,0h10.731c0.847,0,1.533,0.685,1.533,1.529v10.698
	C25.61,13.071,25.129,13.409,24.449,14.087z M2.146,15.257l8.217,8.191c0.648,0.646,1.699,0.646,2.348,0l1.161-1.158L3.333,11.734
	l-1.187,1.183C1.498,13.563,1.498,14.61,2.146,15.257z M24.077,2.293c0-0.422-0.343-0.764-0.767-0.764h-9.198
	c-0.423,0-1.024,0.48-1.401,0.856l-8.204,8.179l10.552,10.545l8.217-8.192c0.413-0.412,0.802-1.032,0.802-1.454V2.293z
	 M15.645,9.991c-1.297-1.293-1.297-3.388,0-4.681c1.297-1.292,3.398-1.292,4.695,0c1.297,1.293,1.297,3.388,0,4.681
	C19.043,11.284,16.942,11.284,15.645,9.991z M19.167,6.48c-0.648-0.646-1.699-0.646-2.348,0s-0.648,1.694,0,2.34
	c0.648,0.646,1.699,0.646,2.348,0C19.815,8.174,19.815,7.127,19.167,6.48z"/>
</svg>
