<?xml version="1.0" encoding="utf-8"?>
<!-- Generator: Adobe Illustrator 16.0.0, SVG Export Plug-In . SVG Version: 6.00 Build 0)  -->
<!DOCTYPE svg PUBLIC "-//W3C//DTD SVG 1.1//EN" "http://www.w3.org/Graphics/SVG/1.1/DTD/svg11.dtd">
<svg version="1.1" id="Layer_1" xmlns="http://www.w3.org/2000/svg" xmlns:xlink="http://www.w3.org/1999/xlink" x="0px" y="0px"
	 width="123px" height="123px" viewBox="0 0 123 123" enable-background="new 0 0 123 123" xml:space="preserve">
<path fill="#ffcc33" d="M61.5,0C27.537,0,0,27.537,0,61.5C0,95.463,27.537,123,61.5,123c33.963,0,61.5-27.537,61.5-61.5C123,27.537,95.463,0,61.5,0
	z M102.5,61.5c0,22.643-18.357,41-41,41s-41-18.357-41-41s18.357-41,41-41S102.5,38.857,102.5,61.5z M5.125,61.5
	c0-31.083,25.292-56.375,56.375-56.375v10.25c-25.43,0-46.125,20.695-46.125,46.125c0,12.713,5.17,24.244,13.526,32.602
	l-7.248,7.247l0.078,0.07C11.481,91.199,5.125,77.08,5.125,61.5z"/>
</svg>
