<?xml version="1.0" encoding="utf-8"?>
<!-- Generator: Adobe Illustrator 16.0.0, SVG Export Plug-In . SVG Version: 6.00 Build 0)  -->
<!DOCTYPE svg PUBLIC "-//W3C//DTD SVG 1.1//EN" "http://www.w3.org/Graphics/SVG/1.1/DTD/svg11.dtd">
<svg version="1.1" id="Layer_1" xmlns="http://www.w3.org/2000/svg" xmlns:xlink="http://www.w3.org/1999/xlink" x="0px" y="0px"
	 width="28.018px" height="27.003px" viewBox="0 0 28.018 27.003" enable-background="new 0 0 28.018 27.003" xml:space="preserve">
<path fill="#ffffff" fill-rule="evenodd" clip-rule="evenodd" d="M5.12,15.018c-0.295-0.035-0.6,0.047-0.826,0.274
	c-0.003,0.003-0.003,0.006-0.006,0.009c-0.188,0.182-0.308,0.435-0.308,0.718c0,0.312,0.151,0.578,0.374,0.763l10.893,9.934
	c0.21,0.211,0.488,0.301,0.763,0.287c0.275,0.014,0.553-0.076,0.763-0.287l10.952-9.989c0.394-0.396,0.394-1.038,0-1.434
	c-0.227-0.228-0.531-0.309-0.826-0.274h-5.898C20.999,6.724,14.275,0,5.981,0C3.854,0,1.833,0.448,0,1.246
	C6.255,2.431,11.006,8.4,11.006,15C10.665,15,5.12,15.018,5.12,15.018z M12.989,17.02H7.612l8.396,7.658l8.396-7.658h-5.408
	c0,0,0.025-2.5,0.01-3.02C18.788,6.938,10.746,2.033,6.983,2.002C9.753,4.16,13.006,9.829,13.006,14
	C13.006,14.654,12.989,17.02,12.989,17.02z"/>
</svg>
