<?xml version="1.0" encoding="utf-8"?>
<!-- Generator: Adobe Illustrator 16.0.0, SVG Export Plug-In . SVG Version: 6.00 Build 0)  -->
<!DOCTYPE svg PUBLIC "-//W3C//DTD SVG 1.1//EN" "http://www.w3.org/Graphics/SVG/1.1/DTD/svg11.dtd">
<svg version="1.1" id="Layer_1" xmlns="http://www.w3.org/2000/svg" xmlns:xlink="http://www.w3.org/1999/xlink" x="0px" y="0px"
	 width="35.297px" height="36.764px" viewBox="0 0 35.297 36.764" enable-background="new 0 0 35.297 36.764" xml:space="preserve">
<path fill-rule="evenodd" clip-rule="evenodd" d="M10.889,26.13c-0.267,0.313-0.619,0.485-0.987,0.588l-8.339,4.966
	c-0.941,0.529-1.791-0.286-1.507-1.291l3.612-9.013c0.043-0.38,0.16-0.754,0.427-1.066L21.303,0.695
	c0.713-0.834,1.967-0.932,2.801-0.218l3.775,3.231c0.834,0.714,0.932,1.969,0.218,2.803L10.889,26.13z M1.859,29.047
	c-0.191,0.475,0.283,0.909,0.753,0.645l5.104-3.661l-3.032-2.596L1.859,29.047z M5.604,21.605l13.31-15.058l3.798,3.205
	L9.379,24.838C7.963,23.625,6.005,21.949,5.604,21.605z M25.832,4.574l-2.265-1.939c-0.417-0.357-1.044-0.308-1.401,0.109
	l-1.891,2.212l3.729,3.286l1.938-2.266C26.298,5.558,26.249,4.931,25.832,4.574z"/>
<path fill-rule="evenodd" clip-rule="evenodd" fill="none" stroke="#000000" stroke-width="2" stroke-linecap="round" stroke-linejoin="round" stroke-miterlimit="10" d="
	M1.296,33.393c0,0,7.352,4.588,9,1c1.648-3.587,2.879-7.586,6-4c3.119,3.586,4.887,5.997,6,3c1.111-2.996-1.049-7.199,3-9
	s3.328,11.517,9,10"/>
</svg>
