<?xml version="1.0" encoding="utf-8"?>
<!-- Generator: Adobe Illustrator 16.0.0, SVG Export Plug-In . SVG Version: 6.00 Build 0)  -->
<!DOCTYPE svg PUBLIC "-//W3C//DTD SVG 1.1//EN" "http://www.w3.org/Graphics/SVG/1.1/DTD/svg11.dtd">
<svg version="1.1" id="Layer_1" xmlns="http://www.w3.org/2000/svg" xmlns:xlink="http://www.w3.org/1999/xlink" x="0px" y="0px"
	 width="22px" height="17.6px" viewBox="0 0 22 17.6" enable-background="new 0 0 22 17.6" xml:space="preserve">
<g>
	<path fill="#010101" d="M20.976,5.5H1.023c-1.014,0-1.063,0.493-1.009,1.095l0.908,9.909C0.978,17.106,1.121,17.6,2.131,17.6
		h17.737c1.031,0,1.152-0.493,1.208-1.096l0.909-9.909C22.039,5.993,21.99,5.5,20.976,5.5z M20.244,3.08
		c-0.122-0.484-0.72-0.88-1.33-0.88h-7.494c-0.61,0-1.463-0.349-1.894-0.776L8.87,0.776C8.438,0.349,7.586,0,6.977,0H3.395
		c-0.61,0-1.164,0.492-1.23,1.093L1.842,3.959h18.623L20.244,3.08z"/>
</g>
</svg>
