<?xml version="1.0" encoding="utf-8"?>
<!-- Generator: Adobe Illustrator 16.0.0, SVG Export Plug-In . SVG Version: 6.00 Build 0)  -->
<!DOCTYPE svg PUBLIC "-//W3C//DTD SVG 1.1//EN" "http://www.w3.org/Graphics/SVG/1.1/DTD/svg11.dtd">
<svg version="1.1" xmlns="http://www.w3.org/2000/svg" xmlns:xlink="http://www.w3.org/1999/xlink" x="0px" y="0px" width="25px"
	 height="25px" viewBox="0 0 25 25" enable-background="new 0 0 25 25" xml:space="preserve">
<g id="Layer_1" display="none">
	<title>i_document</title>
	<desc>Created with Sketch.</desc>
	<g id="Group" transform="translate(6.000000, 3.000000)" display="inline">
		<path fill="#FFFFFF" d="M13.695,18.469H0.304c-0.443,0-0.804-0.362-0.804-0.807V0.776c0-0.445,0.36-0.807,0.804-0.807h9.559
			c0.134,0,0.262,0.054,0.355,0.149l4.138,4.191C14.448,4.402,14.5,4.529,14.5,4.66v13.002C14.5,18.106,14.139,18.469,13.695,18.469
			z M0.5,17.469h13V4.865L9.653,0.969H0.5V17.469z"/>
		<path id="Stroke-8" fill="#FFFFFF" stroke="#FFFFFF" stroke-linecap="round" stroke-linejoin="round" d="M13.899,4.757h-3.86
			c-0.114,0-0.207-0.088-0.207-0.197V0.875L13.899,4.757z"/>
		<path id="Stroke-1" fill="#FFFFFF" d="M2.5,10C2.224,10,2,9.776,2,9.5S2.224,9,2.5,9h8C10.776,9,11,9.224,11,9.5
			S10.776,10,10.5,10H2.5z"/>
		<path id="Stroke-1_1_" fill="#FFFFFF" d="M2.5,12.5C2.224,12.5,2,12.276,2,12s0.224-0.5,0.5-0.5h8c0.276,0,0.5,0.224,0.5,0.5
			s-0.224,0.5-0.5,0.5H2.5z"/>
		<path id="Stroke-1_2_" fill="#FFFFFF" d="M2.5,15C2.224,15,2,14.776,2,14.5S2.224,14,2.5,14h4C6.776,14,7,14.224,7,14.5
			S6.776,15,6.5,15H2.5z"/>
	</g>
</g>
<g id="Layer_2" display="none">
	<g display="inline">
		<g>
			<path d="M4.066,7.399c1.327,0,2.403-1.081,2.403-2.403S5.394,2.589,4.066,2.589c-1.327,0-2.403,1.081-2.403,2.403
				S2.744,7.399,4.066,7.399z M4.066,3.706c0.711,0,1.286,0.579,1.286,1.286c0,0.707-0.579,1.286-1.286,1.286
				c-0.707,0-1.286-0.579-1.286-1.286C2.781,4.285,3.36,3.706,4.066,3.706z"/>
			<path d="M4.066,14.822c1.327,0,2.403-1.08,2.403-2.403c0-1.322-1.076-2.403-2.403-2.403c-1.327,0-2.403,1.076-2.403,2.403
				C1.664,13.746,2.744,14.822,4.066,14.822z M4.066,11.134c0.711,0,1.286,0.579,1.286,1.286c0,0.708-0.579,1.286-1.286,1.286
				c-0.707,0-1.286-0.574-1.286-1.286S3.36,11.134,4.066,11.134z"/>
			<path d="M4.066,22.25c1.327,0,2.403-1.08,2.403-2.402c0-1.328-1.081-2.404-2.403-2.404c-1.322,0-2.403,1.082-2.403,2.404
				S2.744,22.25,4.066,22.25z M4.066,18.557c0.711,0,1.286,0.58,1.286,1.285c0,0.713-0.579,1.287-1.286,1.287
				c-0.707,0-1.286-0.58-1.286-1.287C2.781,19.137,3.36,18.557,4.066,18.557z"/>
			<path d="M9.684,5.553h13.748c0.31,0,0.561-0.251,0.561-0.561s-0.251-0.561-0.561-0.561H9.684c-0.31,0-0.561,0.25-0.561,0.561
				S9.374,5.553,9.684,5.553z"/>
			<path d="M9.684,12.98h13.748c0.31,0,0.561-0.251,0.561-0.561s-0.251-0.561-0.561-0.561H9.684c-0.31,0-0.561,0.251-0.561,0.561
				S9.374,12.98,9.684,12.98z"/>
			<path d="M9.684,20.404h13.748c0.31,0,0.561-0.252,0.561-0.563c0-0.309-0.251-0.561-0.561-0.561H9.684
				c-0.31,0-0.561,0.252-0.561,0.561C9.124,20.152,9.374,20.404,9.684,20.404z"/>
		</g>
	</g>
</g>
<g id="Layer_3">
	<path fill="#979797" d="M7.698,5.604H6.094V4c0-0.276-0.224-0.5-0.5-0.5s-0.5,0.224-0.5,0.5v1.604H3.49c-0.276,0-0.5,0.224-0.5,0.5
		s0.224,0.5,0.5,0.5h1.604v1.604c0,0.276,0.224,0.5,0.5,0.5s0.5-0.224,0.5-0.5V6.604h1.604c0.276,0,0.5-0.224,0.5-0.5
		S7.975,5.604,7.698,5.604z"/>
	<path fill="#979797" d="M15.865,12.321c1.15-0.702,1.926-1.958,1.926-3.405c0-2.209-1.791-4-4-4s-4,1.791-4,4
		c0,1.447,0.775,2.703,1.926,3.405c-2.799,1.103-4.926,4.304-4.926,7.622c0,0.275,0.224,0.5,0.5,0.5s0.5-0.225,0.5-0.5
		c0-3.586,2.846-7.027,6-7.027c3.154,0,6,3.441,6,7.027c0,0.275,0.224,0.5,0.5,0.5s0.5-0.225,0.5-0.5
		C20.791,16.625,18.664,13.424,15.865,12.321z M10.791,8.917c0-1.657,1.344-3,3-3s3,1.343,3,3s-1.344,3-3,3
		S10.791,10.573,10.791,8.917z"/>
</g>
</svg>
