<?xml version="1.0" encoding="utf-8"?>
<!-- Generator: Adobe Illustrator 16.0.0, SVG Export Plug-In . SVG Version: 6.00 Build 0)  -->
<!DOCTYPE svg PUBLIC "-//W3C//DTD SVG 1.1//EN" "http://www.w3.org/Graphics/SVG/1.1/DTD/svg11.dtd">
<svg version="1.1" id="Layer_1" xmlns="http://www.w3.org/2000/svg" xmlns:xlink="http://www.w3.org/1999/xlink" x="0px" y="0px"
	 width="24px" height="24px" viewBox="0 0 24 24" enable-background="new 0 0 24 24" xml:space="preserve">
<path fill="#999999" fill-rule="evenodd" clip-rule="evenodd" d="M12,24C5.373,24,0,18.627,0,12C0,5.373,5.373,0,12,0c6.627,0,12,5.373,12,12
	C24,18.627,18.627,24,12,24z M12,3c-4.97,0-9,4.029-9,9s4.03,9,9,9c4.971,0,9-4.029,9-9S16.971,3,12,3z M16.5,13.5H12
	c-0.828,0-1.5-0.671-1.5-1.5V7.5C10.5,6.671,11.172,6,12,6c0.829,0,1.5,0.671,1.5,1.5v3h3c0.828,0,1.5,0.672,1.5,1.5
	C18,12.829,17.328,13.5,16.5,13.5z"/>
</svg>
