<?xml version="1.0" encoding="utf-8"?>
<!-- Generator: Adobe Illustrator 16.0.0, SVG Export Plug-In . SVG Version: 6.00 Build 0)  -->
<!DOCTYPE svg PUBLIC "-//W3C//DTD SVG 1.1//EN" "http://www.w3.org/Graphics/SVG/1.1/DTD/svg11.dtd">
<svg version="1.1" id="Layer_1" xmlns="http://www.w3.org/2000/svg" xmlns:xlink="http://www.w3.org/1999/xlink" x="0px" y="0px"
	 width="870.13px" height="426.941px" viewBox="179.395 -83.782 870.13 426.941"
	 enable-background="new 179.395 -83.782 870.13 426.941" xml:space="preserve">
<g display="none">
	<path display="inline" fill="#FFCD33" d="M163.007,218.34c-19.659,5.283-39.429,7.959-58.836,7.959
		c-21.087,0-36.862-3.862-46.886-11.481c-10.254-7.792-15.992-20.67-17.055-38.275l-0.224-3.711H170.46
		c0.12-1.624,0.219-3.229,0.296-4.794c0.122-2.612,0.185-5.544,0.185-8.708c0-32.193-6.432-55.617-19.117-69.619
		c-12.599-13.902-33.716-20.951-62.765-20.951c-15.929,0-29.751,1.79-41.083,5.32c-11.085,3.458-20.243,8.93-27.218,16.26
		c-7.002,7.356-12.252,17.037-15.604,28.771C1.734,131.07,0,145.618,0,162.352c0,16.698,1.914,31.147,5.689,42.945
		c3.7,11.588,9.613,21.257,17.576,28.74c7.986,7.512,18.363,13.082,30.843,16.558c12.742,3.549,28.315,5.349,46.286,5.349
		c12.109,0,23.654-0.688,34.314-2.048c9.709-1.246,19.217-3.183,28.299-5.764V218.34L163.007,218.34z M40.23,145.139
		c1.051-17.419,5.462-30.129,13.108-37.774c7.7-7.699,19.718-11.604,35.722-11.604c14.615,0,25.367,3.979,31.959,11.827
		c6.497,7.749,9.915,20.064,10.452,37.656l0.11,3.605H40.006L40.23,145.139z"/>
	<g display="inline">
		<path d="M517.054,126.384l-8.485-2.802l8.132-3.706c18.705-8.525,27.797-24.661,27.797-49.329
			c0-23.279-5.773-40.262-17.159-50.475c-11.5-10.313-30.861-15.539-57.544-15.539H337.819l-3.073,16.204l10.888,4.234
			c3.301,1.325,5.232,2.57,6.296,4.052c1.113,1.576,1.603,3.89,1.603,7.521V251.41h122.306c27.692,0,47.818-5.421,59.818-16.113
			c11.881-10.591,17.906-27.889,17.906-51.412C553.563,153.305,541.621,134.497,517.054,126.384z M394.89,34.18h65.081
			c15.402,0,26.187,3.02,32.967,9.229c6.77,6.208,10.201,16.102,10.201,29.404c0,13.311-3.433,23.202-10.201,29.403
			c-6.774,6.211-17.559,9.231-32.967,9.231H394.89V34.18z M500.469,212.365c-7.028,6.324-18.298,9.398-34.453,9.398H394.89v-81.803
			h71.126c16.152,0,27.423,3.074,34.452,9.396c7.037,6.34,10.604,16.938,10.604,31.506
			C511.072,195.43,507.505,206.031,500.469,212.365z"/>
		<path d="M603.669,24.973c3.301,1.325,5.231,2.57,6.296,4.051c1.114,1.577,1.604,3.891,1.604,7.521V251.41h179.253v-31.535H654.815
			v-79.158h105.781v-30.023H654.815V36.069h132.982V4.534H595.855l-3.074,16.205L603.669,24.973z"/>
		<path d="M1025.427,183.508c0-11.74-1.976-21.706-5.874-29.622c-3.912-7.941-9.128-14.604-15.504-19.802
			c-6.477-5.273-13.967-9.533-22.259-12.661c-8.532-3.21-17.439-6.032-26.472-8.388c-9.172-2.385-18.15-4.533-26.685-6.39
			c-8.866-1.927-16.879-4.339-23.813-7.17c-7.184-2.923-13.088-6.601-17.548-10.928c-4.843-4.69-7.298-10.875-7.298-18.379
			c0-14.082,4.882-24.235,14.507-30.179c9.21-5.691,23.28-8.458,43.019-8.458c12.953,0,26.101,1.03,39.077,3.064
			c11.473,1.804,22.18,4.231,31.893,7.229l5.875-30.918c-9.048-3.011-19.882-5.548-32.259-7.556C968.362,1.128,954.504,0,940.902,0
			c-34.912,0-61.219,5.593-78.186,16.625c-16.725,10.872-24.854,28.633-24.854,54.3c0,15.508,3.377,27.754,10.039,36.398
			c6.811,8.846,15.481,15.878,25.774,20.902c10.519,5.139,22.002,9.048,34.138,11.622c12.377,2.625,24.192,5.438,35.123,8.354
			c11.149,2.984,20.588,7.021,28.051,11.991c8.179,5.455,12.325,13.554,12.325,24.069c0,14.303-4.989,24.763-14.83,31.089
			c-9.481,6.094-24.065,9.057-44.583,9.057c-27.871,0-55.648-4.149-82.639-12.341v32.267c27.514,7.705,56.569,11.608,86.415,11.608
			c33.595,0,58.643-5.813,74.449-17.277C1017.588,227.455,1025.427,208.897,1025.427,183.508z"/>
		<polygon points="1261.549,4.534 1053.583,4.534 1053.583,36.069 1135.943,36.069 1135.943,251.411 1179.189,251.411 
			1179.189,36.069 1261.549,36.069 		"/>
	</g>
	<rect x="204.025" y="140.497" display="inline" width="104.882" height="35"/>
</g>
<g>
	<path fill="#FFCD33" d="M291.455,66.316c-13.516,3.632-27.106,5.471-40.448,5.471c-14.496,0-25.34-2.655-32.23-7.893
		c-7.05-5.356-10.995-14.209-11.726-26.312l-0.153-2.551h89.68c0.083-1.117,0.151-2.22,0.205-3.295
		c0.083-1.796,0.126-3.812,0.126-5.987c0-22.132-4.422-38.234-13.141-47.86c-8.663-9.557-23.18-14.402-43.149-14.402
		c-10.95,0-20.452,1.23-28.242,3.657c-7.62,2.377-13.916,6.139-18.712,11.178c-4.813,5.057-8.422,11.713-10.727,19.779
		c-2.351,8.221-3.543,18.223-3.543,29.726c0,11.479,1.315,21.413,3.911,29.523c2.544,7.965,6.608,14.612,12.083,19.757
		c5.49,5.164,12.624,8.993,21.202,11.383c8.76,2.439,19.466,3.677,31.82,3.677c8.324,0,16.261-0.474,23.589-1.408
		c6.675-0.856,13.211-2.188,19.455-3.961V66.316L291.455,66.316z M207.051,15.993c0.723-11.974,3.755-20.711,9.011-25.968
		c5.294-5.292,13.556-7.977,24.559-7.977c10.047,0,17.438,2.736,21.969,8.13c4.468,5.327,6.817,13.794,7.187,25.888l0.075,2.479
		h-62.953L207.051,15.993z"/>
	<g>
		<path d="M534.845,3.101l-5.833-1.926l5.591-2.547c12.858-5.861,19.108-16.954,19.108-33.913c0-16.002-3.969-27.678-11.796-34.698
			c-7.905-7.089-21.217-10.683-39.56-10.683H411.63l-2.112,11.14l7.484,2.911c2.269,0.91,3.597,1.766,4.328,2.785
			c0.766,1.084,1.102,2.674,1.102,5.171V89.051h84.079c19.037,0,32.873-3.727,41.122-11.077c8.168-7.28,12.31-19.171,12.31-35.343
			C559.942,21.608,551.733,8.679,534.845,3.101z M450.863-60.285h44.739c10.589,0,18.003,2.076,22.663,6.344
			c4.654,4.268,7.014,11.07,7.014,20.214c0,9.15-2.359,15.95-7.014,20.213c-4.657,4.27-12.07,6.347-22.663,6.347h-44.739V-60.285z
			 M523.443,62.209c-4.831,4.347-12.579,6.461-23.685,6.461h-48.896V12.435h48.896c11.104,0,18.852,2.113,23.685,6.459
			c4.837,4.358,7.29,11.645,7.29,21.658C530.733,50.567,528.28,57.854,523.443,62.209z"/>
		<path d="M594.389-66.615c2.27,0.911,3.597,1.767,4.328,2.785c0.766,1.084,1.102,2.675,1.102,5.171V89.051h123.229V67.371H629.55
			V12.954h72.72v-20.64h-72.72v-51.301h91.419v-21.678H589.018l-2.114,11.14L594.389-66.615z"/>
		<path d="M884.327,42.371c0-8.072-1.357-14.922-4.038-20.364c-2.688-5.459-6.275-10.039-10.658-13.613
			c-4.452-3.625-9.601-6.553-15.301-8.704c-5.866-2.207-11.99-4.147-18.199-5.766c-6.306-1.639-12.478-3.116-18.344-4.393
			c-6.096-1.324-11.604-2.983-16.37-4.93c-4.938-2.009-8.998-4.537-12.063-7.512c-3.329-3.224-5.017-7.476-5.017-12.634
			c0-9.681,3.356-16.661,9.973-20.747c6.331-3.913,16.004-5.814,29.573-5.814c8.905,0,17.942,0.708,26.864,2.107
			c7.886,1.239,15.246,2.909,21.924,4.969l4.039-21.255c-6.22-2.069-13.668-3.813-22.177-5.193
			c-9.436-1.53-18.962-2.305-28.312-2.305c-24.001,0-42.086,3.844-53.75,11.429c-11.497,7.474-17.086,19.683-17.086,37.328
			c0,10.661,2.322,19.08,6.902,25.022c4.682,6.081,10.643,10.916,17.719,14.369c7.23,3.533,15.125,6.221,23.468,7.99
			c8.508,1.805,16.631,3.738,24.146,5.744c7.664,2.051,14.152,4.826,19.283,8.242c5.623,3.75,8.474,9.318,8.474,16.546
			c0,9.833-3.43,17.023-10.195,21.373c-6.519,4.189-16.544,6.226-30.648,6.226c-19.16,0-38.256-2.852-56.81-8.483v22.182
			c18.913,5.297,38.888,7.98,59.405,7.98c23.096,0,40.313-3.995,51.181-11.877C878.938,72.582,884.327,59.824,884.327,42.371z"/>
		<polygon points="1046.649,-80.664 903.684,-80.664 903.684,-58.986 960.302,-58.986 960.302,89.052 990.032,89.052 
			990.032,-58.986 1046.649,-58.986 		"/>
	</g>
	<rect x="319.652" y="12.803" width="72.102" height="24.061"/>
</g>
<g>
	<path d="M294.737,306.947v9.577H182.505v-9.577H294.737z M267.651,227.487h-71.23v-9.428h82.154v36.962h-68.536v14.365
		c0,2.895,0.472,4.863,1.421,5.911c0.947,1.048,3.117,1.571,6.51,1.571h64.795v9.428h-67.638c-3.194,0-5.813-0.248-7.856-0.748
		c-2.046-0.498-3.666-1.272-4.863-2.32c-1.197-1.047-2.046-2.418-2.544-4.115c-0.5-1.695-0.748-3.74-0.748-6.135V255.47
		c0-0.898-0.5-1.546-1.497-1.945l-4.489-1.945l1.047-5.537h73.475V227.487z"/>
	<path d="M336.036,258.462c0,2.895,0.524,4.863,1.571,5.911c1.048,1.048,3.267,1.571,6.659,1.571h59.109v9.577h-35.017v31.425h50.58
		v9.577H306.706v-9.577h50.579v-31.425h-16.311c-3.194,0-5.813-0.248-7.856-0.749c-2.046-0.498-3.666-1.271-4.863-2.318
		c-1.197-1.048-2.046-2.418-2.544-4.115c-0.5-1.695-0.748-3.741-0.748-6.136v-34.717c0-0.897-0.5-1.546-1.497-1.946l-4.489-1.945
		l1.047-5.536h14.665c0.898,0,1.347,0.501,1.347,1.497V258.462z"/>
	<path d="M472.808,225.241c0,5.588,0.846,10.676,2.544,15.264c1.695,4.59,3.965,8.705,6.809,12.346
		c2.843,3.643,6.185,6.834,10.026,9.577c3.839,2.745,7.856,5.163,12.046,7.258l-6.135,8.829c-2.993-1.796-6.112-3.94-9.353-6.436
		c-3.243-2.492-6.311-5.137-9.203-7.931c-2.895-2.792-5.462-5.661-7.707-8.604c-2.245-2.941-3.868-5.811-4.864-8.604
		c-0.998,2.993-2.644,6.187-4.938,9.577c-2.296,3.393-5.013,6.734-8.155,10.026c-3.143,3.292-6.535,6.36-10.176,9.202
		c-3.643,2.844-7.309,5.164-10.999,6.959l-5.985-8.529c4.489-1.895,8.754-4.414,12.794-7.557c4.04-3.143,7.631-6.684,10.774-10.625
		c3.143-3.939,5.635-8.205,7.482-12.795c1.845-4.587,2.817-9.227,2.918-13.916c0-0.898-0.5-1.546-1.497-1.945l-4.938-1.945
		l1.047-5.537h16.162c0.897,0,1.347,0.5,1.347,1.496V225.241z M459.19,301.709c0-0.897-0.5-1.546-1.497-1.945l-4.489-1.946
		l1.048-5.536h75.42v47.735h-54.171c-3.194,0-5.836-0.25-7.931-0.748c-2.095-0.5-3.767-1.271-5.013-2.318
		c-1.249-1.048-2.121-2.42-2.619-4.115c-0.5-1.698-0.748-3.742-0.748-6.136V301.709z M470.264,322.958
		c0,2.893,0.472,4.863,1.421,5.911c0.947,1.048,3.117,1.571,6.51,1.571h40.403v-28.582h-48.334V322.958z M550.023,243.198v9.578
		h-20.351v33.369h-11.074v-67.189c0-0.897-0.5-1.545-1.497-1.945l-5.237-1.945l1.047-5.537h15.413c0.898,0,1.347,0.501,1.347,1.497
		v32.173H550.023z"/>
	<path d="M586.086,229.282c0-0.898-0.5-1.546-1.497-1.945l-4.938-1.945l1.047-5.537h16.162c0.897,0,1.347,0.5,1.347,1.496v3.741
		c0,5.888,0.898,11.175,2.693,15.862c1.796,4.69,4.165,8.854,7.108,12.495c2.941,3.643,6.285,6.835,10.026,9.577
		c3.741,2.744,7.606,5.064,11.597,6.958l-6.135,8.829c-2.794-1.496-5.787-3.465-8.979-5.91c-3.194-2.443-6.236-5.111-9.128-8.006
		c-2.895-2.893-5.513-5.912-7.856-9.055c-2.345-3.143-4.066-6.158-5.163-9.053c-1.099,3.094-2.82,6.385-5.163,9.877
		c-2.345,3.492-5.064,6.908-8.155,10.25c-3.093,3.344-6.46,6.411-10.101,9.203c-3.643,2.794-7.257,5.088-10.849,6.883l-5.985-8.529
		c4.288-1.894,8.478-4.414,12.57-7.557c4.089-3.143,7.73-6.734,10.924-10.774c3.191-4.04,5.735-8.354,7.632-12.944
		C585.137,238.612,586.086,233.972,586.086,229.282z M626.939,287.343c5.087,0,9.726,0.674,13.917,2.021
		c4.189,1.347,7.781,3.269,10.773,5.761c2.992,2.495,5.313,5.439,6.959,8.83c1.645,3.393,2.469,7.133,2.469,11.223
		c0,4.092-0.824,7.805-2.469,11.148c-1.646,3.341-3.967,6.233-6.959,8.68c-2.992,2.443-6.584,4.339-10.773,5.686
		c-4.191,1.348-8.83,2.021-13.917,2.021c-5.088,0-9.704-0.673-13.842-2.021c-4.141-1.347-7.707-3.242-10.699-5.686
		c-2.993-2.446-5.289-5.339-6.884-8.68c-1.597-3.344-2.394-7.057-2.394-11.148c0-4.09,0.797-7.83,2.394-11.223
		c1.595-3.391,3.891-6.335,6.884-8.83c2.993-2.492,6.559-4.414,10.699-5.761C617.235,288.017,621.851,287.343,626.939,287.343z
		 M626.939,333.283c2.993,0,5.835-0.374,8.529-1.122s5.063-1.896,7.109-3.441c2.043-1.549,3.689-3.442,4.938-5.688
		c1.246-2.244,1.871-4.863,1.871-7.855c0-2.993-0.625-5.635-1.871-7.932c-1.248-2.293-2.895-4.213-4.938-5.761
		c-2.047-1.546-4.416-2.743-7.109-3.591s-5.536-1.272-8.529-1.272c-2.993,0-5.836,0.399-8.53,1.196
		c-2.694,0.801-5.088,1.998-7.183,3.592c-2.095,1.598-3.741,3.543-4.938,5.836c-1.197,2.297-1.796,4.938-1.796,7.932
		c0,2.992,0.599,5.611,1.796,7.855c1.197,2.245,2.843,4.115,4.938,5.612c2.095,1.497,4.489,2.642,7.183,3.442
		C621.103,332.884,623.946,333.283,626.939,333.283z M661.058,287.792h-11.074v-34.867h-24.84v-9.576h24.84v-24.393
		c0-0.897-0.5-1.545-1.496-1.945l-5.238-1.945l1.049-5.537h15.412c0.898,0,1.348,0.501,1.348,1.497V287.792z"/>
	<path d="M723.756,252.028c1.097,4.89,2.769,9.479,5.013,13.767c2.245,4.291,4.887,8.282,7.932,11.973
		c3.042,3.691,6.408,7.01,10.101,9.951c3.689,2.943,7.531,5.513,11.522,7.706l-6.136,8.979c-3.393-2.394-6.983-5.261-10.773-8.604
		c-3.793-3.342-7.408-6.981-10.85-10.924c-3.441-3.939-6.486-8.104-9.128-12.495c-2.645-4.389-4.466-8.829-5.462-13.318
		c-0.8,4.59-2.346,9.154-4.639,13.692c-2.297,4.541-5.014,8.904-8.156,13.094s-6.609,8.031-10.399,11.522
		c-3.793,3.493-7.632,6.486-11.522,8.979l-6.585-8.38c3.091-1.496,6.26-3.517,9.503-6.061c3.24-2.544,6.334-5.537,9.277-8.979
		c2.941-3.441,5.611-7.307,8.006-11.598c2.395-4.288,4.288-8.979,5.687-14.066c1.097-3.79,1.87-7.98,2.319-12.57
		c0.449-4.587,0.723-9.127,0.823-13.617h-28.881v-9.128h70.931v9.128H721.96c0,3.793,0.124,7.508,0.374,11.148
		C722.582,245.868,723.057,249.136,723.756,252.028z M779.273,258.911h20.65v9.577h-20.65v68.237h-11.074v-117.77
		c0-0.897-0.5-1.545-1.496-1.945l-5.237-1.945l1.048-5.537h15.413c0.897,0,1.347,0.501,1.347,1.497V258.911z"/>
	<path d="M901.23,216.114v9.577h-67.189v15.264c0,2.895,0.473,4.863,1.422,5.91c0.947,1.048,3.117,1.572,6.51,1.572h60.306v9.576
		h-34.717v14.516h52.075v9.428H804.412v-9.428h52.075v-14.516h-17.208c-3.194,0-5.837-0.248-7.932-0.748
		c-2.095-0.498-3.767-1.271-5.013-2.319c-1.249-1.048-2.121-2.417-2.619-4.114c-0.5-1.695-0.748-3.742-0.748-6.137V225.54
		c0-0.896-0.5-1.545-1.496-1.945l-4.489-1.945l1.047-5.536H901.23z M861.127,290.036c4.887,0,9.525,0.6,13.916,1.797
		c4.39,1.197,8.23,2.918,11.522,5.162c3.293,2.244,5.911,5.039,7.856,8.38c1.945,3.344,2.918,7.159,2.918,11.448
		c0,4.287-0.973,8.055-2.918,11.297c-1.945,3.241-4.563,5.986-7.856,8.23c-3.292,2.245-7.133,3.94-11.522,5.088
		c-4.391,1.146-9.029,1.721-13.916,1.721c-4.789,0-9.353-0.574-13.692-1.721c-4.34-1.147-8.155-2.843-11.448-5.088
		c-3.292-2.244-5.91-4.989-7.855-8.23c-1.945-3.242-2.918-7.01-2.918-11.297c0-4.289,0.973-8.104,2.918-11.448
		c1.945-3.341,4.563-6.136,7.855-8.38c3.293-2.244,7.108-3.965,11.448-5.162S856.338,290.036,861.127,290.036z M861.127,333.583
		c2.791,0,5.687-0.25,8.679-0.748c2.993-0.501,5.71-1.373,8.156-2.619c2.443-1.248,4.438-2.97,5.985-5.162
		c1.545-2.196,2.319-4.939,2.319-8.23c0-3.293-0.774-6.035-2.319-8.23c-1.548-2.193-3.542-3.989-5.985-5.388
		c-2.446-1.396-5.163-2.394-8.156-2.993c-2.992-0.598-5.888-0.897-8.679-0.897c-2.794,0-5.663,0.3-8.604,0.897
		c-2.944,0.6-5.638,1.572-8.081,2.918c-2.445,1.348-4.44,3.143-5.985,5.388c-1.548,2.245-2.319,5.013-2.319,8.306
		c0,3.291,0.771,6.009,2.319,8.154c1.545,2.145,3.54,3.865,5.985,5.164c2.443,1.295,5.137,2.192,8.081,2.693
		C855.464,333.333,858.333,333.583,861.127,333.583z"/>
	<path d="M971.71,237.812c0,7.384,0.872,14.043,2.619,19.977c1.744,5.938,4.164,11.275,7.258,16.012
		c3.091,4.74,6.809,8.904,11.148,12.496s9.103,6.685,14.291,9.277l-6.585,8.529c-5.088-3.291-9.651-6.782-13.692-10.475
		c-4.04-3.689-7.533-7.332-10.475-10.924c-2.943-3.592-5.313-7.033-7.108-10.325c-1.795-3.292-3.044-6.185-3.74-8.679
		c-0.599,2.494-1.796,5.588-3.592,9.277c-1.796,3.691-4.141,7.533-7.033,11.522c-2.895,3.991-6.359,7.956-10.4,11.896
		c-4.04,3.942-8.506,7.407-13.393,10.4l-6.585-8.979c4.489-1.893,8.853-4.713,13.094-8.454c4.239-3.741,8.006-8.179,11.299-13.318
		c3.292-5.137,5.96-10.924,8.006-17.358c2.043-6.435,3.067-13.393,3.067-20.875h-31.126v-9.577h31.275v-13.618h11.672v13.618h31.275
		v9.577H971.71z M1028.874,258.911h20.65v9.577h-20.65v68.237H1017.8v-117.77c0-0.897-0.5-1.545-1.496-1.945l-5.237-1.945
		l1.048-5.537h15.413c0.897,0,1.347,0.501,1.347,1.497V258.911z"/>
</g>
</svg>
