<?xml version="1.0" encoding="utf-8"?>
<!-- Generator: Adobe Illustrator 16.0.0, SVG Export Plug-In . SVG Version: 6.00 Build 0)  -->
<!DOCTYPE svg PUBLIC "-//W3C//DTD SVG 1.1//EN" "http://www.w3.org/Graphics/SVG/1.1/DTD/svg11.dtd">
<svg version="1.1" id="All_glyphs" xmlns="http://www.w3.org/2000/svg" xmlns:xlink="http://www.w3.org/1999/xlink" x="0px" y="0px"
	 width="14px" height="17px" viewBox="0 0 14 17" enable-background="new 0 0 14 17" xml:space="preserve">
<g>
	<path d="M12.8,6H11V4.601C11,1.703,9.666,0,7,0S3,1.703,3,4.601V6H1C0.448,6,0,6.647,0,7.2V15c0,0.55,0.428,1.139,0.952,1.308
		l1.197,0.386C2.672,16.862,3.55,17,4.1,17h5.8c0.55,0,1.428-0.138,1.952-0.307l1.197-0.386C13.572,16.139,14,15.55,14,15V7.2
		C14,6.647,13.353,6,12.8,6z M5,4.2C5,2.755,5.797,2,7,2s2,0.755,2,2.2V6H5V4.2z"/>
</g>
</svg>
