<?xml version="1.0" encoding="utf-8"?>
<!-- Generator: Adobe Illustrator 16.0.0, SVG Export Plug-In . SVG Version: 6.00 Build 0)  -->
<!DOCTYPE svg PUBLIC "-//W3C//DTD SVG 1.1//EN" "http://www.w3.org/Graphics/SVG/1.1/DTD/svg11.dtd">
<svg version="1.1" id="All_glyphs" xmlns="http://www.w3.org/2000/svg" xmlns:xlink="http://www.w3.org/1999/xlink" x="0px" y="0px"
	 width="18.8px" height="18px" viewBox="0 0 18.8 18" enable-background="new 0 0 18.8 18" xml:space="preserve">
<g>
	<path d="M14.72,13.448c-2.465-0.899-3.253-1.657-3.253-3.279c0-0.974,0.752-0.656,1.083-2.44c0.137-0.74,0.802-0.012,0.929-1.701
		c0-0.673-0.363-0.841-0.363-0.841s0.185-0.996,0.257-1.763C13.463,2.469,12.821,0,9.4,0S5.337,2.469,5.427,3.424
		c0.072,0.767,0.256,1.763,0.256,1.763S5.32,5.354,5.32,6.028c0.127,1.689,0.792,0.961,0.929,1.701
		c0.331,1.784,1.083,1.466,1.083,2.44c0,1.623-0.788,2.38-3.253,3.279C1.606,14.349,0,15.268,0,15.895S0,18,0,18h9.4h9.4
		c0,0,0-1.479,0-2.105S17.193,14.349,14.72,13.448z"/>
</g>
</svg>
