<?xml version="1.0" encoding="utf-8"?>
<!-- Generator: Adobe Illustrator 16.0.0, SVG Export Plug-In . SVG Version: 6.00 Build 0)  -->
<!DOCTYPE svg PUBLIC "-//W3C//DTD SVG 1.1//EN" "http://www.w3.org/Graphics/SVG/1.1/DTD/svg11.dtd">
<svg version="1.1" id="Layer_1" xmlns="http://www.w3.org/2000/svg" xmlns:xlink="http://www.w3.org/1999/xlink" x="0px" y="0px"
	 width="36px" height="36px" viewBox="-9 -1.5 36 36" enable-background="new -9 -1.5 36 36" xml:space="preserve">
<path d="M14,32.5H4c-2.209,0-4-1.791-4-4v-24c0-2.209,1.791-4,4-4h10c2.209,0,4,1.791,4,4v24C18,30.709,16.209,32.5,14,32.5z
	 M16,4.5c0-1.104-0.896-2-2-2H4c-1.104,0-2,0.896-2,2v1h14V4.5z M16,7.5H2v13h14V7.5z M16,22.5H2v6c0,1.104,0.896,2,2,2h10
	c1.104,0,2-0.896,2-2V22.5z M9,28.5c-1.104,0-2-0.896-2-2s0.896-2,2-2c1.104,0,2,0.896,2,2S10.104,28.5,9,28.5z"/>
</svg>
