<?xml version="1.0" encoding="utf-8"?>
<!-- Generator: Adobe Illustrator 16.0.0, SVG Export Plug-In . SVG Version: 6.00 Build 0)  -->
<!DOCTYPE svg PUBLIC "-//W3C//DTD SVG 1.1//EN" "http://www.w3.org/Graphics/SVG/1.1/DTD/svg11.dtd">
<svg version="1.1" id="Layer_1" xmlns="http://www.w3.org/2000/svg" xmlns:xlink="http://www.w3.org/1999/xlink" x="0px" y="0px"
	 width="36px" height="36px" viewBox="-2 -1.5 36 36" enable-background="new -2 -1.5 36 36" xml:space="preserve">
<path d="M30,24.5l-2.262-0.604C25.479,28.963,20.406,32.5,14.5,32.5C6.492,32.5,0,26.008,0,18C0,10.526,5.721,4.289,13,3.5v-3h2
	c9.005,0,17,7.419,17,16.57C32,20.157,31.093,22.705,30,24.5z M13,18.93V5.5C6.917,6.378,2,11.71,2,18c0,6.904,5.597,12.5,12.5,12.5
	c4.662,0,9.518-2.872,11.209-7.145L13,18.93z M15,2.5v15l13.551,4.613c0.801-1.424,1.338-2.984,1.338-5.043
	C29.889,9.182,22.779,2.46,15,2.5z"/>
</svg>
