<?xml version="1.0" encoding="utf-8"?>
<!-- Generator: Adobe Illustrator 16.0.0, SVG Export Plug-In . SVG Version: 6.00 Build 0)  -->
<!DOCTYPE svg PUBLIC "-//W3C//DTD SVG 1.1//EN" "http://www.w3.org/Graphics/SVG/1.1/DTD/svg11.dtd">
<svg version="1.1" id="Layer_1" xmlns="http://www.w3.org/2000/svg" xmlns:xlink="http://www.w3.org/1999/xlink" x="0px" y="0px"
	 width="36px" height="36px" viewBox="-8 -1.5 36 36" enable-background="new -8 -1.5 36 36" xml:space="preserve">
<g>
	<path d="M10,20.5c-0.552,0-1,0.447-1,1v4c0,0.553,0.448,1,1,1s1-0.447,1-1v-4C11,20.947,10.552,20.5,10,20.5z"/>
	<path d="M18,16.518V8.5c0-4.418-3.582-8-8-8s-8,3.582-8,8v8.018c-1.25,1.67-2,3.736-2,5.982c0,5.523,4.477,10,10,10
		c5.521,0,10-4.477,10-10C20,20.254,19.25,18.188,18,16.518z M4,8.5c0-3.313,2.687-6,6-6c3.313,0,6,2.687,6,6v6.014
		c-1.673-1.259-3.746-2.014-6-2.014s-4.327,0.755-6,2.014V8.5z M10,30.5c-4.418,0-8-3.582-8-8s3.582-8,8-8c4.268,0,8,3.732,8,8
		C18,26.918,14.418,30.5,10,30.5z"/>
</g>
</svg>
