<?xml version="1.0" encoding="utf-8"?>
<!-- Generator: Adobe Illustrator 16.0.0, SVG Export Plug-In . SVG Version: 6.00 Build 0)  -->
<!DOCTYPE svg PUBLIC "-//W3C//DTD SVG 1.1//EN" "http://www.w3.org/Graphics/SVG/1.1/DTD/svg11.dtd">
<svg version="1.1" id="Layer_1" xmlns="http://www.w3.org/2000/svg" xmlns:xlink="http://www.w3.org/1999/xlink" x="0px" y="0px"
	 width="36px" height="36px" viewBox="-5 -1.499 36 36" enable-background="new -5 -1.499 36 36" xml:space="preserve">
<path d="M22,32.503H4c-2.209,0-4-1.791-4-4v-24c0-2.209,1.791-4,4-4h12c1.338-0.021,1.871,0.029,2,0.029V0.504l8,8
	c0,1.469,0,1.688,0,2v18C26,30.712,24.209,32.503,22,32.503z M18,2.504c0,2.381,0,4,0,4c0,1.104,0.896,2,2,2h4L18,2.504z M24,10.504
	c-2.328,0-4,0-4,0c-2.209,0-4-1.791-4-4c0,0-0.047-1.605-0.027-4H4c-1.104,0-2,0.896-2,2v24c0,1.104,0.896,2,2,2h18
	c1.104,0,2-0.896,2-2V10.504z M19,24.503H7c-0.552,0-1-0.446-1-1c0-0.553,0.448-1,1-1h12c0.553,0,1,0.447,1,1
	C20,24.057,19.553,24.503,19,24.503z M19,18.503H7c-0.552,0-1-0.446-1-1c0-0.551,0.448-0.999,1-0.999h12c0.553,0,1,0.448,1,0.999
	C20,18.057,19.553,18.503,19,18.503z"/>
</svg>
