<?xml version="1.0" encoding="utf-8"?>
<!-- Generator: Adobe Illustrator 16.0.0, SVG Export Plug-In . SVG Version: 6.00 Build 0)  -->
<!DOCTYPE svg PUBLIC "-//W3C//DTD SVG 1.1//EN" "http://www.w3.org/Graphics/SVG/1.1/DTD/svg11.dtd">
<svg version="1.1" id="Layer_1" xmlns="http://www.w3.org/2000/svg" xmlns:xlink="http://www.w3.org/1999/xlink" x="0px" y="0px"
	 width="36px" height="36px" viewBox="-3 -1 36 36" enable-background="new -3 -1 36 36" xml:space="preserve">
<path d="M26,32.5H4c-2.209,0-4-1.791-4-4v-22c0-2.209,1.791-4,4-4h4v-1c0-0.552,0.448-1,1-1s1,0.448,1,1v1h10v-1
	c0-0.552,0.447-1,1-1s1,0.448,1,1v1h4c2.209,0,4,1.791,4,4v22C30,30.709,28.209,32.5,26,32.5z M28,6.5c0-1.104-0.896-2-2-2h-4v1
	c0,0.552-0.447,1-1,1s-1-0.448-1-1v-1H10v1c0,0.552-0.448,1-1,1s-1-0.448-1-1v-1H4c-1.104,0-2,0.896-2,2v2h26V6.5z M28,10.5H2v18
	c0,1.104,0.896,2,2,2h22c1.104,0,2-0.896,2-2V10.5z M24,28.5h-2c-1.104,0-2-0.896-2-2v-2c0-1.104,0.896-2,2-2h2c1.104,0,2,0.896,2,2
	v2C26,27.604,25.104,28.5,24,28.5z M24,24.5h-2v2h2V24.5z M24,20.5h-2c-1.104,0-2-0.896-2-2v-2c0-1.104,0.896-2,2-2h2
	c1.104,0,2,0.896,2,2v2C26,19.604,25.104,20.5,24,20.5z M24,16.5h-2v2h2V16.5z M16,28.5h-2c-1.104,0-2-0.896-2-2v-2
	c0-1.104,0.896-2,2-2h2c1.104,0,2,0.896,2,2v2C18,27.604,17.104,28.5,16,28.5z M16,24.5h-2v2h2V24.5z M16,20.5h-2
	c-1.104,0-2-0.896-2-2v-2c0-1.104,0.896-2,2-2h2c1.104,0,2,0.896,2,2v2C18,19.604,17.104,20.5,16,20.5z M16,16.5h-2v2h2V16.5z
	 M8,28.5H6c-1.104,0-2-0.896-2-2v-2c0-1.104,0.896-2,2-2h2c1.104,0,2,0.896,2,2v2C10,27.604,9.104,28.5,8,28.5z M8,24.5H6v2h2V24.5z
	 M8,20.5H6c-1.104,0-2-0.896-2-2v-2c0-1.104,0.896-2,2-2h2c1.104,0,2,0.896,2,2v2C10,19.604,9.104,20.5,8,20.5z M8,16.5H6v2h2V16.5z
	"/>
</svg>
