<?xml version="1.0" encoding="utf-8"?>
<!-- Generator: Adobe Illustrator 16.0.0, SVG Export Plug-In . SVG Version: 6.00 Build 0)  -->
<!DOCTYPE svg PUBLIC "-//W3C//DTD SVG 1.1//EN" "http://www.w3.org/Graphics/SVG/1.1/DTD/svg11.dtd">
<svg version="1.1" id="Layer_1" xmlns="http://www.w3.org/2000/svg" xmlns:xlink="http://www.w3.org/1999/xlink" x="0px" y="0px"
	 width="36px" height="36px" viewBox="-2.167 -1.833 36 36" enable-background="new -2.167 -1.833 36 36" xml:space="preserve">
<path d="M15.833,0.167l-16,9c0,2.281,0,19,0,19c0,2.209,1.791,4,4,4h24c2.209,0,4-1.791,4-4c0,0,0-16.812,0-19L15.833,0.167z
	 M1.833,28.167V12.542l9.066,7.232l-8.971,8.971C1.873,28.562,1.833,28.37,1.833,28.167z M3.39,30.112l9.187-9.187l3.257,2.241
	l3.258-2.24l9.188,9.188C28.135,30.146,3.533,30.146,3.39,30.112z M29.834,28.167c0,0.203-0.039,0.395-0.096,0.578l-8.971-8.971
	l9.066-7.232V28.167z M15.833,20.823l-14-10.656l13.98-7.669l14.021,7.669L15.833,20.823z"/>
</svg>
