<?xml version="1.0" encoding="utf-8"?>
<!-- Generator: Adobe Illustrator 16.0.0, SVG Export Plug-In . SVG Version: 6.00 Build 0)  -->
<!DOCTYPE svg PUBLIC "-//W3C//DTD SVG 1.1//EN" "http://www.w3.org/Graphics/SVG/1.1/DTD/svg11.dtd">
<svg version="1.1" id="Layer_1" xmlns="http://www.w3.org/2000/svg" xmlns:xlink="http://www.w3.org/1999/xlink" x="0px" y="0px"
	 width="36px" height="36px" viewBox="-7 -1.5 36 36" enable-background="new -7 -1.5 36 36" xml:space="preserve">
<path d="M16,32.5H6c-3.313,0-6-2.686-6-6v-4c0-2.627,1.699-4.835,4.049-5.646C2.769,15.125,2,12.912,2,10.5c0-5.522,4.029-10,9-10
	c4.971,0,9,4.478,9,10c0,2.412-0.77,4.625-2.049,6.354C20.301,17.665,22,19.873,22,22.5v4C22,29.814,19.313,32.5,16,32.5z M18,10.5
	c0-4.418-3.134-8-7-8s-7,3.582-7,8s3.134,8,7,8S18,14.918,18,10.5z M20,23c0-2.126-1.613-3.896-3.775-4.367
	C14.75,19.805,12.95,20.5,11,20.5s-3.75-0.695-5.225-1.867C3.613,19.104,2,20.874,2,23v3c0,2.484,2.198,4.5,4.909,4.5h8.182
	C17.802,30.5,20,28.484,20,26V23z"/>
</svg>
