<?xml version="1.0" encoding="utf-8"?>
<!-- Generator: Adobe Illustrator 16.0.0, SVG Export Plug-In . SVG Version: 6.00 Build 0)  -->
<!DOCTYPE svg PUBLIC "-//W3C//DTD SVG 1.1//EN" "http://www.w3.org/Graphics/SVG/1.1/DTD/svg11.dtd">
<svg version="1.1" id="Layer_1" xmlns="http://www.w3.org/2000/svg" xmlns:xlink="http://www.w3.org/1999/xlink" x="0px" y="0px"
	 width="56.059px" height="56.059px" viewBox="-5.015 -6.015 56.059 56.059" enable-background="new -5.015 -6.015 56.059 56.059"
	 xml:space="preserve">
<path fill="#222222" d="M35.015,37.015h-24c-2.209,0-4-1.791-4-4v-18c0-2.209,1.791-4,4-4h6v-2c0-1.104,0.896-2,2-2h8
	c1.104,0,2,0.896,2,2v2h6c2.209,0,4,1.791,4,4v18C39.015,35.224,37.224,37.015,35.015,37.015z M27.015,11.015v-1
	c0-0.553-0.447-1-1-1h-6c-0.554,0-1,0.447-1,1v1C19.609,11.015,26.421,11.015,27.015,11.015z M37.015,15.015c0-1.104-0.896-2-2-2
	h-24c-1.104,0-2,0.896-2,2v5h28V15.015z M21.015,23.015c0,1.104,0.896,2,2,2c1.104,0,2-0.896,2-2c0-0.366-0.105-0.705-0.277-1
	h-3.444C21.119,22.31,21.015,22.648,21.015,23.015z M37.015,22.015H26.872c0.084,0.322,0.143,0.652,0.143,1c0,2.209-1.791,4-4,4
	s-4-1.791-4-4c0-0.348,0.06-0.678,0.142-1H9.015v11c0,1.104,0.896,2,2,2h24c1.104,0,2-0.896,2-2V22.015z"/>
</svg>
