<?xml version="1.0" encoding="utf-8"?>
<!-- Generator: Adobe Illustrator 16.0.0, SVG Export Plug-In . SVG Version: 6.00 Build 0)  -->
<!DOCTYPE svg PUBLIC "-//W3C//DTD SVG 1.1//EN" "http://www.w3.org/Graphics/SVG/1.1/DTD/svg11.dtd">
<svg version="1.1" id="Layer_1" xmlns="http://www.w3.org/2000/svg" xmlns:xlink="http://www.w3.org/1999/xlink" x="0px" y="0px"
	 width="56px" height="56px" viewBox="-13 45.5 56 56" enable-background="new -13 45.5 56 56" xml:space="preserve">
<g>
	<path d="M26,89.5H4c-2.209,0-4-1.791-4-4v-22c0-2.209,1.791-4,4-4h4v-1c0-0.552,0.447-1,1-1c0.552,0,1,0.448,1,1v1h10v-1
		c0-0.552,0.447-1,1-1s1,0.448,1,1v1h4c2.209,0,4,1.791,4,4v22C30,87.709,28.209,89.5,26,89.5z M28,63.5c0-1.104-0.896-2-2-2h-4v1
		c0,0.552-0.447,1-1,1s-1-0.448-1-1v-1H10v1c0,0.552-0.448,1-1,1c-0.553,0-1-0.448-1-1v-1H4c-1.104,0-2,0.896-2,2v2h26V63.5z
		 M28,67.5H2v18c0,1.104,0.896,2,2,2h22c1.104,0,2-0.896,2-2V67.5z M24,85.5h-2c-1.104,0-2-0.896-2-2v-2c0-1.104,0.896-2,2-2h2
		c1.104,0,2,0.896,2,2v2C26,84.604,25.104,85.5,24,85.5z M24,81.5h-2v2h2V81.5z M24,77.5h-2c-1.104,0-2-0.896-2-2v-2
		c0-1.104,0.896-2,2-2h2c1.104,0,2,0.896,2,2v2C26,76.604,25.104,77.5,24,77.5z M24,73.5h-2v2h2V73.5z M16,85.5h-2
		c-1.104,0-2-0.896-2-2v-2c0-1.104,0.896-2,2-2h2c1.104,0,2,0.896,2,2v2C18,84.604,17.104,85.5,16,85.5z M16,81.5h-2v2h2V81.5z
		 M16,77.5h-2c-1.104,0-2-0.896-2-2v-2c0-1.104,0.896-2,2-2h2c1.104,0,2,0.896,2,2v2C18,76.604,17.104,77.5,16,77.5z M16,73.5h-2v2
		h2V73.5z M8,85.5H6c-1.104,0-2-0.896-2-2v-2c0-1.104,0.896-2,2-2h2c1.104,0,2,0.896,2,2v2C10,84.604,9.104,85.5,8,85.5z M8,81.5H6
		v2h2V81.5z M8,77.5H6c-1.104,0-2-0.896-2-2v-2c0-1.104,0.896-2,2-2h2c1.104,0,2,0.896,2,2v2C10,76.604,9.104,77.5,8,77.5z M8,73.5
		H6v2h2V73.5z"/>
</g>
</svg>
