<?xml version="1.0" encoding="utf-8"?>
<!-- Generator: Adobe Illustrator 16.0.0, SVG Export Plug-In . SVG Version: 6.00 Build 0)  -->
<!DOCTYPE svg PUBLIC "-//W3C//DTD SVG 1.1//EN" "http://www.w3.org/Graphics/SVG/1.1/DTD/svg11.dtd">
<svg version="1.1" id="Layer_1" xmlns="http://www.w3.org/2000/svg" xmlns:xlink="http://www.w3.org/1999/xlink" x="0px" y="0px"
	 width="56.059px" height="56.059px" viewBox="0 0 56.059 56.059" enable-background="new 0 0 56.059 56.059" xml:space="preserve">
<g>
	<g>
		
			<line fill="none" stroke="#222222" stroke-width="2" stroke-linecap="round" stroke-linejoin="round" stroke-miterlimit="10" x1="39.119" y1="34.786" x2="26.412" y2="34.786"/>
		<path fill="none" stroke="#222222" stroke-width="2" stroke-linecap="round" stroke-linejoin="round" stroke-miterlimit="10" d="
			M19.394,34.786h-2.769c0,0-1.897,0.219-1.897-2.409c0-2.627,0.365-4.818,0.365-4.818s4.744-1.167,6.424-2.262l1.533,2.846
			l23.94,0.292c0,0,4.526,2.045,4.526,6.352h-4.941"/>
		<path fill="none" stroke="#222222" stroke-width="2" stroke-linecap="round" stroke-linejoin="round" stroke-miterlimit="10" d="
			M21.517,25.296c0,0,9.706-5.496,21.604,3.092"/>
		
			<line fill="none" stroke="#222222" stroke-width="2" stroke-linecap="round" stroke-linejoin="round" stroke-miterlimit="10" x1="29.693" y1="23.568" x2="32.465" y2="27.776"/>
		
			<circle fill="none" stroke="#222222" stroke-width="2" stroke-linecap="round" stroke-linejoin="round" stroke-miterlimit="10" cx="22.903" cy="34.79" r="3.509"/>
		
			<circle fill="none" stroke="#222222" stroke-width="2" stroke-linecap="round" stroke-linejoin="round" stroke-miterlimit="10" cx="42.796" cy="34.79" r="3.509"/>
		<circle fill="#202120" cx="22.903" cy="34.791" r="1.125"/>
		<circle fill="#222222" cx="42.796" cy="34.791" r="1.125"/>
	</g>
	<path fill="none" stroke="#222222" stroke-width="2" stroke-linecap="round" stroke-linejoin="round" stroke-miterlimit="10" d="
		M8.57,27.439H6.181c0,0-1.637,0.188-1.637-2.079c0-2.267,0.315-4.155,0.315-4.155s4.091-1.007,5.54-1.952l1.322,2.456l0,0"/>
	<path fill="none" stroke="#222222" stroke-width="2" stroke-linecap="round" stroke-linejoin="round" stroke-miterlimit="10" d="
		M10.399,19.254c0,0,7.028-3.978,16.096,1.05"/>
	
		<line fill="none" stroke="#222222" stroke-width="2" stroke-linecap="round" stroke-linejoin="round" stroke-miterlimit="10" x1="17.451" y1="17.763" x2="19.844" y2="21.394"/>
	<path fill="none" stroke="#222222" stroke-width="2" stroke-linecap="round" stroke-linejoin="round" stroke-miterlimit="10" d="
		M11.597,24.417c-1.673,0-3.027,1.356-3.027,3.026c0,1.67,1.355,3.027,3.027,3.027"/>
</g>
</svg>
