<?xml version="1.0" encoding="utf-8"?>
<!-- Generator: Adobe Illustrator 16.0.0, SVG Export Plug-In . SVG Version: 6.00 Build 0)  -->
<!DOCTYPE svg PUBLIC "-//W3C//DTD SVG 1.1//EN" "http://www.w3.org/Graphics/SVG/1.1/DTD/svg11.dtd">
<svg version="1.1" id="All_glyphs" xmlns="http://www.w3.org/2000/svg" xmlns:xlink="http://www.w3.org/1999/xlink" x="0px" y="0px"
	 width="30px" height="24px" viewBox="0 0 30 24" enable-background="new 0 0 30 24" xml:space="preserve">
<g>
	<path fill="#ffcc33" d="M27,0H3C1.35,0,0,1.35,0,3v18c0,1.65,1.35,3,3,3h24c1.65,0,3-1.35,3-3V3C30,1.35,28.65,0,27,0z M27,21H3V3h24V21z
		 M13.5,15.15H6v2.699h7.5V15.15z M13.5,10.65H6v2.699h7.5V10.65z M13.5,6.15H6V8.85h7.5V6.15z M23.85,15.75
		c0,0-2.55-0.667-2.55-1.977c0-1.248,1.649-1.773,1.649-4.323c0-2.071-0.629-3.3-2.7-3.3c-2.072,0-2.7,1.229-2.7,3.3
		c0,2.55,1.649,3.075,1.649,4.323c0,1.31-2.55,1.977-2.55,1.977c-0.15,0-0.15,2.1-0.15,2.1H24C24,17.85,24,15.75,23.85,15.75z"/>
</g>
</svg>
