<?xml version="1.0" encoding="utf-8"?>
<!-- Generator: Adobe Illustrator 16.0.0, SVG Export Plug-In . SVG Version: 6.00 Build 0)  -->
<!DOCTYPE svg PUBLIC "-//W3C//DTD SVG 1.1//EN" "http://www.w3.org/Graphics/SVG/1.1/DTD/svg11.dtd">
<svg version="1.1" id="Layer_1" xmlns="http://www.w3.org/2000/svg" xmlns:xlink="http://www.w3.org/1999/xlink" x="0px" y="0px"
	 width="56.059px" height="56.059px" viewBox="-1.015 -19.515 56.059 56.059" enable-background="new -1.015 -19.515 56.059 56.059"
	 xml:space="preserve">
<g>
	<path fill="#222222" d="M21.015,12.515c0.552,0,1-0.448,1-1v-4c0-0.552-0.448-1-1-1s-1,0.448-1,1v4
		C20.015,12.066,20.463,12.515,21.015,12.515z"/>
	<path fill="#222222" d="M33.015,12.515c0.552,0,1-0.448,1-1v-9c0-0.552-0.448-1-1-1s-1,0.448-1,1v9
		C32.015,12.066,32.463,12.515,33.015,12.515z"/>
	<path fill="#222222" d="M27.015,12.515c0.552,0,1-0.448,1-1v-12c0-0.552-0.448-1-1-1s-1,0.448-1,1v12
		C26.015,12.066,26.463,12.515,27.015,12.515z"/>
	<path fill="#222222" d="M11.015-7.485v2h2c0,1.623,0,19,0,19c0,2.37,1.644,4,4,4h6l-4,7l3.013-0.014l3.987-6.986h2l3.988,6.986
		l3.012,0.014l-4-7h6c2.355,0,4-1.63,4-4c0,0,0-17.267,0-19h2v-2H11.015z M39.015,13.515c0,1.229-0.793,2-2,2h-20
		c-1.207,0-2-0.771-2-2c0,0-0.015-17.744-0.015-19.01H39.03C39.03-3.479,39.015,13.515,39.015,13.515z"/>
</g>
</svg>
