<?xml version="1.0" encoding="utf-8"?>
<!-- Generator: Adobe Illustrator 16.0.0, SVG Export Plug-In . SVG Version: 6.00 Build 0)  -->
<!DOCTYPE svg PUBLIC "-//W3C//DTD SVG 1.1//EN" "http://www.w3.org/Graphics/SVG/1.1/DTD/svg11.dtd">
<svg version="1.1" id="Layer_1" xmlns="http://www.w3.org/2000/svg" xmlns:xlink="http://www.w3.org/1999/xlink" x="0px" y="0px"
	 width="56.059px" height="56.059px" viewBox="-7.015 -4.515 56.059 56.059" enable-background="new -7.015 -4.515 56.059 56.059"
	 xml:space="preserve">
<path fill="#222222" d="M25.015,39.515l-4-3l-4,3l-4-3l-4.133,3H7.015v-28c0-2.209,1.791-4,4-4h20c2.209,0,4,1.791,4,4v28h-1.867
	l-4.133-3L25.015,39.515z M33.015,11.515c0-1.104-0.896-2-2-2h-20c-1.104,0-2,0.896-2,2v26.059l4-3.059l4,3.188l4-3.188l4,3.188
	l4-3.188l4,3.027V11.515z M28.015,27.515h-14c-0.552,0-1-0.448-1-1s0.448-1,1-1h14c0.552,0,1,0.448,1,1S28.566,27.515,28.015,27.515
	z M28.015,21.492h-14c-0.552,0-1-0.449-1-1c0-0.553,0.448-1,1-1h14c0.552,0,1,0.447,1,1C29.015,21.043,28.566,21.492,28.015,21.492z
	 M28.015,15.515h-14c-0.552,0-1-0.448-1-1s0.448-1,1-1h14c0.552,0,1,0.448,1,1S28.566,15.515,28.015,15.515z"/>
</svg>
