<?xml version="1.0" encoding="utf-8"?>
<!-- Generator: Adobe Illustrator 16.0.0, SVG Export Plug-In . SVG Version: 6.00 Build 0)  -->
<!DOCTYPE svg PUBLIC "-//W3C//DTD SVG 1.1//EN" "http://www.w3.org/Graphics/SVG/1.1/DTD/svg11.dtd">
<svg version="1.1" id="All_glyphs" xmlns="http://www.w3.org/2000/svg" xmlns:xlink="http://www.w3.org/1999/xlink" x="0px" y="0px"
	 width="32.075px" height="32.075px" viewBox="0 0 32.075 32.075" enable-background="new 0 0 32.075 32.075" xml:space="preserve">
<g>
	<path fill="#444444" d="M28.991,16.038c0-2,1.23-3.579,3.084-4.664c-0.334-1.116-0.775-2.185-1.32-3.192
		c-2.078,0.543-3.762-0.271-5.176-1.685c-1.414-1.415-1.848-3.098-1.304-5.176C23.269,0.776,22.2,0.333,21.083,0
		c-1.084,1.854-3.045,3.085-5.044,3.085c-2,0-3.959-1.23-5.045-3.085C9.876,0.333,8.807,0.776,7.801,1.321
		C8.344,3.4,7.912,5.083,6.497,6.497S3.399,8.726,1.321,8.183C0.777,9.189,0.334,10.258,0,11.374
		c1.854,1.085,3.085,2.664,3.085,4.664c0,2-1.231,3.96-3.085,5.044c0.334,1.117,0.777,2.187,1.321,3.192
		c2.079-0.544,3.761-0.11,5.176,1.304c1.414,1.414,1.847,3.096,1.304,5.176c1.006,0.543,2.075,0.988,3.192,1.32
		c1.085-1.854,3.044-3.084,5.044-3.084c2,0,3.959,1.23,5.045,3.084c1.117-0.334,2.186-0.775,3.191-1.32
		c-0.543-2.078-0.111-3.762,1.305-5.176c1.414-1.414,3.096-2.229,5.176-1.686c0.543-1.008,0.986-2.076,1.32-3.191
		C30.222,19.616,28.991,18.038,28.991,16.038z M16.038,23.012c-3.851,0-6.974-3.123-6.974-6.975s3.123-6.975,6.974-6.975
		c3.852,0,6.974,3.123,6.974,6.975S19.89,23.012,16.038,23.012z"/>
</g>
</svg>
