<?xml version="1.0" encoding="utf-8"?>
<!-- Generator: Adobe Illustrator 16.0.0, SVG Export Plug-In . SVG Version: 6.00 Build 0)  -->
<!DOCTYPE svg PUBLIC "-//W3C//DTD SVG 1.1//EN" "http://www.w3.org/Graphics/SVG/1.1/DTD/svg11.dtd">
<svg version="1.1" id="Layer_1" xmlns="http://www.w3.org/2000/svg" xmlns:xlink="http://www.w3.org/1999/xlink" x="0px" y="0px"
	 width="56px" height="56px" viewBox="-10.289 41.553 56 56" enable-background="new -10.289 41.553 56 56" xml:space="preserve">
<g>
	<g>
		<path d="M12.981,76.171c-0.033-0.89-0.065-1.953-0.065-3.041h-0.022c-0.241,0.944-0.549,1.998-0.834,2.865l-0.899,2.889H9.853
			l-0.791-2.865c-0.242-0.868-0.482-1.91-0.67-2.889H8.371c-0.033,1-0.077,2.142-0.121,3.063l-0.143,2.81H6.56l0.473-7.398h2.228
			l0.725,2.471c0.241,0.855,0.461,1.777,0.626,2.646h0.044c0.197-0.856,0.45-1.834,0.702-2.657l0.78-2.459h2.195l0.396,7.399h-1.625
			L12.981,76.171z"/>
		<path d="M21.431,78.796c-0.296,0.143-0.999,0.317-1.889,0.317c-2.559,0-3.875-1.604-3.875-3.711c0-2.515,1.8-3.908,4.039-3.908
			c0.869,0,1.525,0.177,1.822,0.318l-0.352,1.327c-0.328-0.143-0.801-0.273-1.404-0.273c-1.318,0-2.35,0.803-2.35,2.448
			c0,1.471,0.879,2.403,2.362,2.403c0.514,0,1.063-0.099,1.403-0.242L21.431,78.796z"/>
		<path d="M24.36,77.104l-0.516,1.898h-1.735l2.262-7.398h2.187l2.306,7.398h-1.802l-0.569-1.898H24.36z M26.238,75.853
			l-0.462-1.569c-0.12-0.438-0.253-0.999-0.362-1.427H25.38c-0.098,0.439-0.219,0.999-0.328,1.427l-0.45,1.569H26.238z"/>
	</g>
	<g>
		<path d="M17.556,56.913c0.085-0.262,0.224-0.262,0.31,0l0.745,2.292c0.086,0.263,0.379,0.477,0.655,0.477h2.407
			c0.275,0,0.318,0.132,0.097,0.294l-1.951,1.417c-0.223,0.162-0.335,0.508-0.249,0.77l0.746,2.292
			c0.086,0.263-0.025,0.344-0.249,0.183l-1.95-1.417c-0.223-0.162-0.586-0.162-0.81,0l-1.947,1.417
			c-0.222,0.162-0.335,0.08-0.25-0.183l0.742-2.292c0.085-0.262-0.028-0.607-0.25-0.77l-1.949-1.417
			c-0.222-0.162-0.179-0.294,0.096-0.294h2.408c0.275,0,0.569-0.214,0.655-0.477L17.556,56.913z"/>
	</g>
	<circle fill="none" stroke="#000000" stroke-width="2" stroke-miterlimit="10" cx="17.711" cy="60.984" r="6.537"/>
	<path fill="none" stroke="#000000" stroke-width="2" stroke-miterlimit="10" d="M24.51,59.942h6.265
		c1.854,0,3.357,1.365,3.357,3.048v18.619c0,1.683-1.506,3.048-3.357,3.048H4.646c-1.852-0.001-3.357-1.366-3.357-3.048V62.99
		c0-1.683,1.505-3.048,3.357-3.048h6.113"/>
</g>
</svg>
