<?xml version="1.0" encoding="utf-8"?>
<!-- Generator: Adobe Illustrator 16.0.0, SVG Export Plug-In . SVG Version: 6.00 Build 0)  -->
<!DOCTYPE svg PUBLIC "-//W3C//DTD SVG 1.1//EN" "http://www.w3.org/Graphics/SVG/1.1/DTD/svg11.dtd">
<svg version="1.1" id="Layer_1" xmlns="http://www.w3.org/2000/svg" xmlns:xlink="http://www.w3.org/1999/xlink" x="0px" y="0px"
	 width="56.059px" height="56.059px" viewBox="-13.296 -12.733 56.059 56.059"
	 enable-background="new -13.296 -12.733 56.059 56.059" xml:space="preserve">
<g>
	<path fill="#222222" d="M21.733,13.314h-9c-0.552,0-1,0.447-1,0.999c0,0.552,0.448,0.999,1,0.999h9c0.553,0,1-0.447,1-0.999
		C22.733,13.761,22.286,13.314,21.733,13.314z"/>
	<path fill="#222222" d="M21.733,18.31h-9c-0.552,0-1,0.446-1,0.998c0,0.553,0.448,0.999,1,0.999h9c0.553,0,1-0.446,1-0.999
		C22.733,18.756,22.286,18.31,21.733,18.31z"/>
	<path fill="#222222" d="M21.733-0.704c-0.124,0-12,0-12,0c-2.116,0-4,1.941-4,4L4.579,3.323c-2.116,0-3.845,1.914-3.845,3.973v20
		c0,2.059,1.884,4,4,4h15c2.115,0,4-1.941,4-4h1c2.115,0,4-1.941,4-4v-14V7.319L21.733-0.704z M19.733,29.296h-15
		c-1.05,0-2-0.98-2-2v-20c0-1.019,0.855-1.967,1.905-1.967l1.095-0.033v18c0,2.059,1.884,4,4,4h12
		C21.733,28.315,20.782,29.296,19.733,29.296z M26.733,23.296c0,1.02-0.95,2-2,2h-15c-1.05,0-2-0.98-2-2v-20c0-1.019,0.95-2,2-2h10
		c-0.016,2.303,0,4.025,0,4.025c0,2.078,1.869,3.975,4,3.975c0,0,1.063,0,3,0V23.296z M23.733,7.296c-1.064,0-2-1.935-2-2.974
		c0,0,0-1.052,0-2.996V1.325l5,5.971H23.733z"/>
</g>
</svg>
