<?xml version="1.0" encoding="utf-8"?>
<!-- Generator: Adobe Illustrator 16.0.0, SVG Export Plug-In . SVG Version: 6.00 Build 0)  -->
<!DOCTYPE svg PUBLIC "-//W3C//DTD SVG 1.1//EN" "http://www.w3.org/Graphics/SVG/1.1/DTD/svg11.dtd">
<svg version="1.1" id="Layer_1" xmlns="http://www.w3.org/2000/svg" xmlns:xlink="http://www.w3.org/1999/xlink" x="0px" y="0px"
	 width="56.059px" height="56.059px" viewBox="-5.265 -5.015 56.059 56.059" enable-background="new -5.265 -5.015 56.059 56.059"
	 xml:space="preserve">
<path fill="#222222" d="M31.265,32.471c3.008-1.695,5-4.623,5-7.957c0-2.107-0.805-4.05-2.15-5.626
	c0.088-0.614,0.15-1.237,0.15-1.873c0-0.291-0.032-0.575-0.051-0.862c2.49,2.072,4.051,4.992,4.051,8.237
	c0,3.641-1.96,6.872-5,8.954v5.671l-5.605-3.451c-0.776,0.127-1.576,0.201-2.395,0.201c-3.851,0-6.299-1.475-8.681-3.801
	c0.393,0.021,0.783,0.051,1.181,0.051c0.56,0,1.108-0.027,1.653-0.07c1.881,1.293,3.257,2.07,5.847,2.07
	c0.893,0,1.756-0.102,2.587-0.275l3.413,2.275V32.471z M20.265,30.015c-0.819,0-2.586-0.136-3.362-0.264l-5.638,3.264v-5.671
	c-2.613-2.226-4-5.314-4-8.954c0-6.282,5.811-11.375,13-11.375c5.977,0,12,5.093,12,11.375S27.444,30.015,20.265,30.015z
	 M16.678,27.739c0.831,0.174,2.693,0.275,3.587,0.275c6.075,0,10-4.253,10-9.5c0-5.246-5.027-9.5-10-9.5c-6.247,0-11,4.254-11,9.5
	c0,3.333,1.561,5.977,4,7.957v3.543L16.678,27.739z M25.765,20.015c-0.829,0-1.5-0.671-1.5-1.5c0-0.828,0.671-1.5,1.5-1.5
	s1.5,0.672,1.5,1.5S26.594,20.015,25.765,20.015z M19.765,20.015c-0.829,0-1.5-0.671-1.5-1.5c0-0.828,0.671-1.5,1.5-1.5
	s1.5,0.672,1.5,1.5S20.594,20.015,19.765,20.015z M13.765,20.015c-0.829,0-1.5-0.672-1.5-1.5s0.671-1.5,1.5-1.5s1.5,0.672,1.5,1.5
	S14.594,20.015,13.765,20.015z"/>
</svg>
