<?xml version="1.0" encoding="utf-8"?>
<!-- Generator: Adobe Illustrator 16.0.0, SVG Export Plug-In . SVG Version: 6.00 Build 0)  -->
<!DOCTYPE svg PUBLIC "-//W3C//DTD SVG 1.1//EN" "http://www.w3.org/Graphics/SVG/1.1/DTD/svg11.dtd">
<svg version="1.1" id="Layer_1" xmlns="http://www.w3.org/2000/svg" xmlns:xlink="http://www.w3.org/1999/xlink" x="0px" y="0px"
	 width="56.059px" height="56.058px" viewBox="-5.015 -7.015 56.059 56.058" enable-background="new -5.015 -7.015 56.059 56.058"
	 xml:space="preserve">
<path fill="#222222" d="M35.015,35.014h-24c-2.209,0-4-1.791-4-4v-20c0-2.209,1.791-4,4-4h24c2.209,0,4,1.791,4,4v20
	C39.015,33.223,37.224,35.014,35.015,35.014z M37.015,11.015c0-1.104-0.896-2-2-2h-24c-1.104,0-2,0.896-2,2v4h28V11.015z
	 M37.015,17.015h-28v13.999c0,1.104,0.896,2,2,2h24c1.104,0,2-0.896,2-2V17.015z M12.015,11.015c0.552,0,1,0.448,1,1s-0.448,1-1,1
	s-1-0.448-1-1S11.463,11.015,12.015,11.015z M16.015,11.015c0.552,0,1,0.448,1,1s-0.448,1-1,1s-1-0.448-1-1
	S15.463,11.015,16.015,11.015z M20.015,11.015c0.552,0,1,0.448,1,1s-0.448,1-1,1s-1-0.448-1-1S19.463,11.015,20.015,11.015z"/>
</svg>
