<?xml version="1.0" encoding="utf-8"?>
<!-- Generator: Adobe Illustrator 16.0.0, SVG Export Plug-In . SVG Version: 6.00 Build 0)  -->
<!DOCTYPE svg PUBLIC "-//W3C//DTD SVG 1.1//EN" "http://www.w3.org/Graphics/SVG/1.1/DTD/svg11.dtd">
<svg version="1.1" id="Layer_1" xmlns="http://www.w3.org/2000/svg" xmlns:xlink="http://www.w3.org/1999/xlink" x="0px" y="0px"
	 width="56.059px" height="56.059px" viewBox="-5.015 -5.015 56.059 56.059" enable-background="new -5.015 -5.015 56.059 56.059"
	 xml:space="preserve">
<path fill="#222222" d="M38.015,27.015h-6c-0.553,0-1-0.447-1-1s0.447-1,1-1h6c0.553,0,1,0.447,1,1S38.567,27.015,38.015,27.015z
	 M38.015,21.015h-8c-0.553,0-1-0.447-1-1c0-0.552,0.447-1,1-1h8c0.553,0,1,0.448,1,1C39.015,20.567,38.567,21.015,38.015,21.015z
	 M38.015,15.015h-8c-0.553,0-1-0.447-1-1c0-0.552,0.447-1,1-1h8c0.553,0,1,0.448,1,1C39.015,14.567,38.567,15.015,38.015,15.015z
	 M29.015,29.015v4c0,3.314-2.688,6-6,6h-10c-3.313,0-6-2.686-6-6v-4c0-2.627,1.699-4.835,4.049-5.647
	c-1.28-1.728-2.049-3.94-2.049-6.353c0-5.522,4.029-10,9-10c4.972,0,9,4.478,9,10c0,2.412-0.77,4.625-2.049,6.353
	C27.315,24.18,29.015,26.388,29.015,29.015z M25.015,17.015c0-4.418-3.134-8-7-8s-7,3.582-7,8s3.134,8,7,8
	S25.015,21.433,25.015,17.015z M27.015,29.515c0-2.126-1.613-3.896-3.776-4.367c-1.474,1.172-3.273,1.867-5.224,1.867
	s-3.75-0.695-5.224-1.867c-2.163,0.471-3.776,2.241-3.776,4.367v3c0,2.484,2.198,4.5,4.909,4.5h8.182c2.712,0,4.909-2.016,4.909-4.5
	V29.515z M32.015,31.015h6c0.553,0,1,0.447,1,1s-0.447,1-1,1h-6c-0.553,0-1-0.447-1-1S31.462,31.015,32.015,31.015z"/>
</svg>
