<?xml version="1.0" encoding="utf-8"?>
<!-- Generator: Adobe Illustrator 16.0.0, SVG Export Plug-In . SVG Version: 6.00 Build 0)  -->
<!DOCTYPE svg PUBLIC "-//W3C//DTD SVG 1.1//EN" "http://www.w3.org/Graphics/SVG/1.1/DTD/svg11.dtd">
<svg version="1.1" id="All_glyphs" xmlns="http://www.w3.org/2000/svg" xmlns:xlink="http://www.w3.org/1999/xlink" x="0px" y="0px"
	 width="18.872px" height="24.268px" viewBox="0 0 18.872 24.268" enable-background="new 0 0 18.872 24.268" xml:space="preserve">
<g>
	<path fill="#ffcc33" d="M17.256,9.438H14.83V6.201C14.83,2.296,13.031,0,9.437,0C5.843,0,4.044,2.296,4.044,6.201v0.54h2.696V5.663
		c0-1.948,1.075-2.967,2.696-2.967c1.622,0,2.697,1.019,2.697,2.967v3.774H1.348C0.604,9.438,0,10.31,0,11.056v10.516
		c0,0.74,0.577,1.534,1.283,1.762l1.613,0.521c0.706,0.227,1.89,0.413,2.632,0.413h7.819c0.742,0,1.925-0.187,2.631-0.413
		l1.613-0.521c0.705-0.228,1.281-1.021,1.281-1.762V11.056C18.872,10.31,18.001,9.438,17.256,9.438z"/>
</g>
</svg>
