<?xml version="1.0" encoding="utf-8"?>
<!-- Generator: Adobe Illustrator 16.0.0, SVG Export Plug-In . SVG Version: 6.00 Build 0)  -->
<!DOCTYPE svg PUBLIC "-//W3C//DTD SVG 1.1//EN" "http://www.w3.org/Graphics/SVG/1.1/DTD/svg11.dtd">
<svg version="1.1" id="Layer_1" xmlns="http://www.w3.org/2000/svg" xmlns:xlink="http://www.w3.org/1999/xlink" x="0px" y="0px"
	 width="56px" height="56px" viewBox="-10.5 13.917 56 56" enable-background="new -10.5 13.917 56 56" xml:space="preserve">
<path d="M29.5,42.917h-2v-11c0-2.209-1.791-4-4-4h-12c-2.209,0-4,1.791-4,4c0,0,0,10.349,0,11h-2c-2.209,0-4,1.791-4,4v2
	c0,2.209,1.791,4,4,4h2.142c0.446,1.723,1.997,3,3.858,3h12c1.861,0,3.412-1.277,3.857-3H29.5c2.209,0,4-1.791,4-4v-2
	C33.5,44.708,31.709,42.917,29.5,42.917z M9.5,31.917c0-1.104,0.896-2,2-2h12c1.104,0,2,0.896,2,2v11h-16V31.917z M23.5,53.917h-12
	c-1.104,0-2-0.896-2-2s0.896-2,2-2h12c1.104,0,2,0.896,2,2S24.604,53.917,23.5,53.917z M31.5,48.917c0,1.104-0.896,2-2,2h-2.143
	c-0.445-1.723-1.996-3-3.857-3h-12c-1.861,0-3.412,1.277-3.858,3H5.5c-1.104,0-2-0.896-2-2v-2c0-1.104,0.896-2,2-2h24
	c1.104,0,2,0.896,2,2V48.917z"/>
</svg>
