<?xml version="1.0" encoding="utf-8"?>
<!-- Generator: Adobe Illustrator 16.0.0, SVG Export Plug-In . SVG Version: 6.00 Build 0)  -->
<!DOCTYPE svg PUBLIC "-//W3C//DTD SVG 1.1//EN" "http://www.w3.org/Graphics/SVG/1.1/DTD/svg11.dtd">
<svg version="1.1" id="Layer_1" xmlns="http://www.w3.org/2000/svg" xmlns:xlink="http://www.w3.org/1999/xlink" x="0px" y="0px"
	 width="56px" height="56px" viewBox="-3.362 28.866 56 56" enable-background="new -3.362 28.866 56 56" xml:space="preserve">
<g>
	<path fill="none" stroke="#000000" stroke-width="2" stroke-linecap="round" stroke-linejoin="round" stroke-miterlimit="10" d="
		M36.611,60.726l-2.54-1.467c0.199-0.777,0.316-1.588,0.316-2.43c0-0.841-0.117-1.65-0.316-2.429l2.54-1.468
		c0.411-0.237,0.554-0.764,0.314-1.178l-1.76-3.049c-0.239-0.412-0.767-0.553-1.179-0.314l-2.535,1.464
		c-1.158-1.138-2.604-1.981-4.214-2.429v-2.933c0.001-0.476-0.384-0.86-0.859-0.86h-3.521c-0.477,0-0.861,0.385-0.861,0.86v2.931
		c-1.609,0.449-3.054,1.293-4.213,2.43l-2.537-1.465c-0.409-0.237-0.938-0.096-1.177,0.316l-1.76,3.049
		c-0.238,0.412-0.097,0.939,0.315,1.178l2.538,1.467c-0.198,0.777-0.314,1.589-0.314,2.429c0,0.841,0.116,1.651,0.314,2.431
		l-2.538,1.467c-0.412,0.236-0.555,0.764-0.315,1.176l1.76,3.049c0.238,0.414,0.768,0.557,1.177,0.318l2.535-1.465
		c1.161,1.137,2.604,1.98,4.215,2.43v2.932c0,0.475,0.386,0.861,0.861,0.859h3.521c0.477,0,0.86-0.385,0.86-0.859v-2.932
		c1.61-0.449,3.056-1.291,4.214-2.43l2.535,1.465c0.412,0.238,0.938,0.096,1.179-0.318l1.76-3.049
		C37.165,61.489,37.022,60.964,36.611,60.726z"/>
	
		<circle fill="none" stroke="#000000" stroke-width="2" stroke-linecap="round" stroke-linejoin="round" stroke-miterlimit="10" cx="24.617" cy="56.829" r="3.377"/>
	
		<polyline fill="none" stroke="#000000" stroke-width="2" stroke-linecap="round" stroke-linejoin="round" stroke-miterlimit="10" points="
		9.805,57.536 4.528,57.536 4.528,50.903 	"/>
	
		<circle fill="none" stroke="#000000" stroke-width="2" stroke-linecap="round" stroke-linejoin="round" stroke-miterlimit="10" cx="4.528" cy="47.434" r="3.167"/>
	
		<polyline fill="none" stroke="#000000" stroke-width="2" stroke-linecap="round" stroke-linejoin="round" stroke-miterlimit="10" points="
		39.471,56.831 44.749,56.831 44.749,63.464 	"/>
	
		<circle fill="none" stroke="#000000" stroke-width="2" stroke-linecap="round" stroke-linejoin="round" stroke-miterlimit="10" cx="44.749" cy="66.934" r="3.167"/>
</g>
</svg>
