<?xml version="1.0" encoding="utf-8"?>
<!-- Generator: Adobe Illustrator 16.0.0, SVG Export Plug-In . SVG Version: 6.00 Build 0)  -->
<!DOCTYPE svg PUBLIC "-//W3C//DTD SVG 1.1//EN" "http://www.w3.org/Graphics/SVG/1.1/DTD/svg11.dtd">
<svg version="1.1" id="Layer_1" xmlns="http://www.w3.org/2000/svg" xmlns:xlink="http://www.w3.org/1999/xlink" x="0px" y="0px"
	 width="56.059px" height="56.059px" viewBox="-5.265 -5.015 56.059 56.059" enable-background="new -5.265 -5.015 56.059 56.059"
	 xml:space="preserve">
<path fill="#222222" d="M34.265,33.015h-7v4h2c0.552,0,1,0.448,1,1s-0.448,1-1,1h-12c-0.552,0-1-0.448-1-1s0.448-1,1-1h2v-4h-8
	c-2.209,0-4-1.791-4-4v-18c0-2.209,1.791-4,4-4h23c2.209,0,4,1.791,4,4v18C38.265,31.224,36.474,33.015,34.265,33.015z
	 M25.265,37.015v-4h-4v4H25.265z M36.265,11.015c0-1.104-0.896-2-2-2h-23c-1.104,0-2,0.896-2,2v14h27V11.015z M36.265,27.015h-27v2
	c0,1.104,0.896,2,2,2h23c1.104,0,2-0.896,2-2V27.015z"/>
</svg>
