<svg xmlns="http://www.w3.org/2000/svg" width="24" height="24" viewBox="0 0 24 24">
    <defs>
        <style>
            .cls-1,.cls-3{fill:none}.cls-2{clip-path:url(#clip-path)}.cls-3{opacity:.3}
        </style>
        <clipPath id="clip-path">
            <path d="M0 0h24v24H0z" class="cls-1"/>
        </clipPath>
    </defs>
    <g id="btn_edit" class="cls-2">
        <path id="사각형_1919" d="M0 0h24v24H0z" class="cls-3" data-name="사각형 1919"/>
        <g id="그룹_1142" data-name="그룹 1142" transform="translate(4 3.176)">
            <path id="패스_1267" d="M380.618 260.976v-.988h13.352v.988zM378 258.561a25.618 25.618 0 0 1 .869-4.711l10.631-10.674 4.5 4.524-10.615 10.639a22.933 22.933 0 0 1-4.685.886h-.035zm1.715-4.062a16.386 16.386 0 0 0-.528 2.2 10.473 10.473 0 0 1 1.364 1.346c.664-.141 1.362-.3 2.128-.531a70.372 70.372 0 0 0-2.964-3.014zm.69-.756a56.7 56.7 0 0 1 3.054 3.078l9.049-9.073-3.03-3.078z" data-name="패스 1267" transform="translate(-378 -243.176)"/>
        </g>
    </g>
</svg>
