<svg xmlns="http://www.w3.org/2000/svg" width="60" height="60" viewBox="0 0 60 60">
    <defs>
        <style>
            .cls-1,.cls-3{fill:none}.cls-2{clip-path:url(#clip-path)}.cls-3{opacity:.1}.cls-4{fill:#ccc}
        </style>
        <clipPath id="clip-path">
            <path d="M0 0h60v60H0z" class="cls-1"/>
        </clipPath>
    </defs>
    <g id="icon_info" class="cls-2" data-name="icon)info">
        <path id="사각형_1821" d="M0 0h60v60H0z" class="cls-3" data-name="사각형 1821"/>
        <g id="그룹_907" data-name="그룹 907" transform="translate(10.7 10.7)">
            <path id="패스_987" d="M61.8 585a22.794 22.794 0 0 1-2.8 4.3h-1.9a22.794 22.794 0 0 1-2.8-4.3H43a4.042 4.042 0 0 1-4.3-4.3v-25.8a4.016 4.016 0 0 1 4.3-4.2h30c2.8 0 4.3 1.4 4.3 4.3v25.7A3.944 3.944 0 0 1 73 585zm-3.7 2.2a22.094 22.094 0 0 0 2.5-4.3H73a1.974 1.974 0 0 0 2.2-2.1V555a1.929 1.929 0 0 0-2.2-2.1H43a1.918 1.918 0 0 0-2.1 2v25.8a1.944 1.944 0 0 0 2.1 2.1h12.6a26.55 26.55 0 0 0 2.5 4.4zm-5-23.6h6v10.7h3.7v2h-9.7v-2H57v-8.6h-3.9zm6.6-3.8c0 1.2-.5 1.7-1.7 1.7s-1.7-.5-1.7-1.7.5-1.7 1.7-1.7 1.7.5 1.7 1.7z" class="cls-4" data-name="패스 987" transform="translate(-38.7 -550.7)"/>
        </g>
    </g>
</svg>
