<?xml version="1.0" encoding="utf-8"?>
<!-- Generator: Adobe Illustrator 16.0.0, SVG Export Plug-In . SVG Version: 6.00 Build 0)  -->
<!DOCTYPE svg PUBLIC "-//W3C//DTD SVG 1.1//EN" "http://www.w3.org/Graphics/SVG/1.1/DTD/svg11.dtd">
<svg version="1.1" id="Layer_1" xmlns="http://www.w3.org/2000/svg" xmlns:xlink="http://www.w3.org/1999/xlink" x="0px" y="0px"
	 width="100px" height="100px" viewBox="0 0 100 100" enable-background="new 0 0 100 100" xml:space="preserve">
<g id="_x33_">
	<path id="profile_4_" fill="#E7F4FA" d="M50,100.001c-30.6,0-50-19.39-50-50c0-30.842,19.158-50,50-50s50,19.16,50,50
		S80.84,100.001,50,100.001z"/>
	<g>
		<g id="그룹_779">
			<path id="패스_877" fill="#FFFFFF" stroke="#000000" stroke-miterlimit="10" d="M86.852,64.01
				c-1.166-2.681-2.746-5.158-4.688-7.342l1.091-1.215c0,0-7.885-1.942-12.193-2.186c-4.31-0.242-7.465-0.242-11.043,1.396
				c-3.58,1.639-10.013,5.644-10.013,5.644s-6.065,0.445-8.491,0.688c-2.426,0.244-5.541,2.191-6.026,4.377
				c-0.322,1.673-0.51,3.369-0.563,5.068h6.704c-0.02-2.148,1.307-3.979,3.181-4.229c2.059-0.277,3.993,1.457,4.317,3.874
				c0.018,0.119,0.024,0.238,0.032,0.354h25.196c-0.019-2.148,1.31-3.979,3.184-4.229c2.059-0.277,3.992,1.457,4.316,3.874
				c0.018,0.119,0.023,0.238,0.033,0.354h1.938c1.346-0.107,2.674-0.364,3.962-0.767C87.682,67.758,87.365,65.857,86.852,64.01
				L86.852,64.01z"/>
			<path id="패스_878" fill="#FFCC33" d="M54.809,60.236c0,0,6.936-3.99,8.448-4.563c1.675-0.628,6.202-0.472,9.929-0.124
				c3.654,0.345,5.56,0.695,5.56,0.695l1.649,2.188c-2.517,1.078-5.211,1.685-7.945,1.783
				C68.341,60.255,54.809,60.236,54.809,60.236L54.809,60.236z"/>
			<path id="선_4" fill="none" stroke="#000000" stroke-miterlimit="10" d="M60.98,63.486h2.805"/>
			
				<ellipse id="타원_102" transform="matrix(-0.9911 0.1335 -0.1335 -0.9911 99.8145 134.4776)" fill="#FFFFFF" stroke="#000000" stroke-miterlimit="10" cx="45.4" cy="70.584" rx="3.761" ry="4.414"/>
			
				<ellipse id="타원_103" transform="matrix(-0.9911 0.1334 -0.1334 -0.9911 164.9766 130.1109)" fill="#FFFFFF" stroke="#000000" stroke-miterlimit="10" cx="78.129" cy="70.583" rx="3.762" ry="4.416"/>
			
				<ellipse id="타원_100" transform="matrix(-0.991 0.1337 -0.1337 -0.991 99.8238 134.4683)" fill="#FFCC33" cx="45.396" cy="70.586" rx="1.435" ry="1.684"/>
			
				<ellipse id="타원_101" transform="matrix(-0.9911 0.1331 -0.1331 -0.9911 164.9566 130.1517)" fill="#FFCC33" cx="78.129" cy="70.588" rx="1.435" ry="1.684"/>
		</g>
		<path id="prefix__선_115_1_" fill="none" stroke="#000000" stroke-miterlimit="10" d="M27.577,44.156H13.862"/>
		<path id="prefix__선_116" fill="none" stroke="#000000" stroke-miterlimit="10" d="M47.9,50.977H11.195"/>
		<g id="prefix__그룹_693">
			<path id="prefix__패스_835" fill="#4CC992" d="M37.421,43.035c-5.187,0-8.479-3.271-8.479-8.434
				c0-5.202,3.249-8.434,8.479-8.434S45.9,29.4,45.9,34.602S42.652,43.035,37.421,43.035z"/>
			<path id="prefix__패스_836" fill="none" stroke="#FFFFFF" stroke-width="2" stroke-miterlimit="10" d="M33.681,33.75
				l2.743,2.598l4.738-4.489"/>
		</g>
	</g>
</g>
</svg>
