<?xml version="1.0" encoding="utf-8"?>
<!-- Generator: Adobe Illustrator 16.0.0, SVG Export Plug-In . SVG Version: 6.00 Build 0)  -->
<!DOCTYPE svg PUBLIC "-//W3C//DTD SVG 1.1//EN" "http://www.w3.org/Graphics/SVG/1.1/DTD/svg11.dtd">
<svg version="1.1" id="Layer_1" xmlns="http://www.w3.org/2000/svg" xmlns:xlink="http://www.w3.org/1999/xlink" x="0px" y="0px"
	 width="100px" height="100px" viewBox="0 0 100 100" enable-background="new 0 0 100 100" xml:space="preserve">
<g id="_x31_">
	<path id="profile_2_" fill="#E7F4FA" d="M50,100.001c-30.6,0-50-19.39-50-50c0-30.842,19.158-50,50-50s50,19.16,50,50
		S80.84,100.001,50,100.001z"/>
	<g>
		<path fill="#FFFFFF" stroke="#000000" stroke-miterlimit="10" d="M76.43,80.215c0,1.521-1.231,2.754-2.754,2.754H29.617
			c-1.521,0-2.753-1.232-2.753-2.754V19.787c0-1.521,1.233-2.754,2.753-2.754h44.059c1.521,0,2.754,1.233,2.754,2.754V80.215z"/>
		<g id="그룹_1139">
			<path id="사각형_1704" fill="none" stroke="#000000" stroke-miterlimit="10" d="M38.584,56.501h26.619v14.687H38.584V56.501z"
				/>
			<path id="패스_856" d="M37.679,72.27V55.328h5.494v-2.518c0.005-4.679,3.794-8.47,8.472-8.477h0.688l-0.036,0.027
				c4.412,0.341,7.819,4.02,7.821,8.446v2.517h5.495V72.27H37.679z M63.782,70.441V57.164H39.515v13.277H63.782z M58.287,55.324
				v-2.514c0-3.667-2.973-6.64-6.639-6.64c-3.667,0-6.64,2.972-6.64,6.64l0,0v2.518L58.287,55.324z"/>
			<path id="패스_857" d="M50.734,61.635h1.832v4.581H50.73L50.734,61.635z"/>
		</g>
		<line fill="none" stroke="#000000" stroke-miterlimit="10" x1="32.236" y1="24.475" x2="51.646" y2="24.475"/>
		<line fill="none" stroke="#000000" stroke-miterlimit="10" x1="32.236" y1="29.309" x2="58.091" y2="29.309"/>
		<line fill="none" stroke="#000000" stroke-miterlimit="10" x1="32.236" y1="34.143" x2="58.091" y2="34.143"/>
		<line fill="none" stroke="#000000" stroke-miterlimit="10" x1="32.236" y1="38.978" x2="71.857" y2="38.978"/>
		<g>
			<path fill="#E85252" d="M68.814,30.792l0.705-1.141l1.269-0.433l0.142-1.333l0.954-0.94l-0.452-1.262l0.452-1.262l-0.954-0.94
				l-0.142-1.333l-1.269-0.433l-0.705-1.141l-1.328,0.161l-1.131-0.721l-1.131,0.721l-1.33-0.161l-0.703,1.141l-1.27,0.433
				l-0.141,1.333l-0.955,0.94l0.453,1.262l-0.453,1.262l0.953,0.94l0.143,1.333l1.27,0.433l0.703,1.141l1.33-0.16l1.131,0.722
				l1.131-0.722L68.814,30.792z M62.468,25.683c0-2.144,1.744-3.888,3.888-3.888c2.146,0,3.889,1.745,3.889,3.888
				c0,2.144-1.743,3.888-3.889,3.888C64.212,29.571,62.468,27.827,62.468,25.683L62.468,25.683z"/>
			<path fill="#E85252" d="M66.355,22.697c-1.646,0-2.985,1.339-2.985,2.986s1.339,2.986,2.985,2.986s2.985-1.339,2.985-2.986
				C69.342,24.037,68.003,22.697,66.355,22.697z"/>
			<path fill="#E85252" d="M65.014,31.566l-1.584,0.191L62.594,30.4l-0.283-0.096l-1.227,3.832l2.207-0.121l1.727,1.38l1.018-3.176
				L65.014,31.566z"/>
			<path fill="#E85252" d="M70.117,30.399l-0.836,1.357l-1.583-0.191l-1.021,0.652l1.017,3.176l1.728-1.38l2.207,0.121l-1.226-3.832
				L70.117,30.399z"/>
		</g>
	</g>
</g>
</svg>
