<?xml version="1.0" encoding="utf-8"?>
<!-- Generator: Adobe Illustrator 16.0.0, SVG Export Plug-In . SVG Version: 6.00 Build 0)  -->
<!DOCTYPE svg PUBLIC "-//W3C//DTD SVG 1.1//EN" "http://www.w3.org/Graphics/SVG/1.1/DTD/svg11.dtd">
<svg version="1.1" id="Layer_1" xmlns="http://www.w3.org/2000/svg" xmlns:xlink="http://www.w3.org/1999/xlink" x="0px" y="0px"
	 width="100px" height="100px" viewBox="0 0 100 100" enable-background="new 0 0 100 100" xml:space="preserve">
<g id="_x32_">
	<path id="profile_1_" fill="#E7F4FA" d="M50,100.001c-30.6,0-50-19.39-50-50c0-30.842,19.158-50,50-50s50,19.16,50,50
		S80.84,100.001,50,100.001z"/>
	<g>
		<g>
			<g id="prefix__그룹_1730" transform="translate(590.044 -1451.062)">
				<path id="prefix__패스_1866" fill="#FFFFFF" stroke="#000000" stroke-miterlimit="10" d="M-507.823,1485.73
					c5.061,0,9.885,1.402,9.885,9.729h-23.428C-521.366,1495.459-516.929,1485.73-507.823,1485.73z"/>
				<path id="prefix__패스_1867" fill="#FFFFFF" stroke="#000000" stroke-miterlimit="10" d="M-507.823,1485.73h-30.9
					c-5.604,0-12.997,4.538-14.164,14.526c-0.64,4.731-1.008,9.498-1.104,14.272c-0.144,2.956-2.243,9.651-14.152,10.976h35.338
					c3.892,0,9.571-5.761,9.571-14.322c0-8.563,1.713-12.214,3.58-15.33C-517.785,1492.736-513.66,1485.73-507.823,1485.73
					L-507.823,1485.73z"/>
				<path id="prefix__패스_1868" fill="#FFFFFF" stroke="#000000" stroke-miterlimit="10" d="M-532.808,1525.503
					c-3.969,0-11.129-4.281-11.129-11.443h-31.576c0,0,1.375,11.393,7.368,11.393
					C-562.537,1525.453-532.808,1525.503-532.808,1525.503z"/>
			</g>
			<path id="prefix__선_165" fill="none" stroke="#000000" stroke-miterlimit="10" d="M79.061,75.025H66.014"/>
			<path id="prefix__선_165_1_" fill="none" stroke="#000000" stroke-miterlimit="10" d="M81.725,71.5h-6.522"/>
		</g>
		<g>
			<path id="패스_1267_1_" d="M50.033,42.378v-1.31h17.688v1.31H50.033z"/>
			<path id="패스_1267_2_" d="M45,46.714v-1.309h17.688v1.309H45z"/>
			<path id="패스_1267_3_" d="M43.754,51.051v-1.31h17.688v1.31H43.754z"/>
			<path id="패스_1267_4_" d="M41.188,55.389v-1.311h17.688v1.311H41.188z"/>
		</g>
		<g>
			<polygon stroke="#000000" stroke-miterlimit="10" points="43.37,42.267 40.772,45.104 42.764,45.143 43.697,44.109 			"/>
			<path id="패스_1267_6_" fill="#FFCC33" d="M24.471,21.702l-6.385,7.318L35.55,44.294c1.477-1.844,4.775-5.533,6.39-7.255
				L24.471,21.702z"/>
			<path id="패스_1267_5_" fill="#FFFFFF" stroke="#000000" stroke-miterlimit="10" d="M41.902,37.48
				c-2.06,2.213-4.053,4.488-5.976,6.816c1.688,0.38,3.219,0.617,4.674,0.819c0.819-1.096,1.745-2.117,2.756-3.05
				c-0.377-1.561-0.861-3.094-1.455-4.587L41.902,37.48z M35.928,44.296c1.687,0.38,3.218,0.617,4.672,0.819"/>
			<path id="패스_1267_7_" fill="none" stroke="#000000" stroke-miterlimit="10" d="M42.882,45.272l-0.055,0.004
				c-2.47-0.039-4.931-0.335-7.341-0.886L17.957,29.025l6.495-7.468L42.01,36.976c0.834,2.338,1.448,4.749,1.833,7.2L42.882,45.272z
				"/>
		</g>
	</g>
</g>
</svg>
