<?xml version="1.0" encoding="utf-8"?>
<!-- Generator: Adobe Illustrator 16.0.0, SVG Export Plug-In . SVG Version: 6.00 Build 0)  -->
<!DOCTYPE svg PUBLIC "-//W3C//DTD SVG 1.1//EN" "http://www.w3.org/Graphics/SVG/1.1/DTD/svg11.dtd">
<svg version="1.1" id="Layer_1" xmlns="http://www.w3.org/2000/svg" xmlns:xlink="http://www.w3.org/1999/xlink" x="0px" y="0px"
	 width="100px" height="100px" viewBox="0 0 100 100" enable-background="new 0 0 100 100" xml:space="preserve">
<g id="_x34__1_">
	<path id="profile_6_" fill="#E7F4FA" d="M50,100.001c-30.6,0-50-19.39-50-50c0-30.842,19.158-50,50-50s50,19.16,50,50
		S80.84,100.001,50,100.001z"/>
	<g>
		<g>
			<g id="prefix__그룹_1730_1_" transform="translate(590.044 -1451.062)">
				<path id="prefix__패스_1866_1_" fill="#FFFFFF" stroke="#000000" stroke-miterlimit="10" d="M-507.823,1485.73
					c5.061,0,9.885,1.402,9.885,9.729h-23.428C-521.366,1495.459-516.929,1485.73-507.823,1485.73z"/>
				<path id="prefix__패스_1867_1_" fill="#FFFFFF" stroke="#000000" stroke-miterlimit="10" d="M-507.823,1485.73h-30.9
					c-5.604,0-12.997,4.538-14.164,14.526c-0.64,4.731-1.008,9.498-1.104,14.272c-0.144,2.956-2.243,9.651-14.152,10.976h35.338
					c3.892,0,9.571-5.761,9.571-14.322c0-8.563,1.713-12.214,3.58-15.33C-517.785,1492.736-513.66,1485.73-507.823,1485.73
					L-507.823,1485.73z"/>
				<path id="prefix__패스_1868_1_" fill="#FFFFFF" stroke="#000000" stroke-miterlimit="10" d="M-532.808,1525.503
					c-3.969,0-11.129-4.281-11.129-11.443h-31.576c0,0,1.375,11.393,7.368,11.393
					C-562.537,1525.453-532.808,1525.503-532.808,1525.503z"/>
			</g>
			<path id="prefix__선_165_3_" fill="none" stroke="#000000" stroke-miterlimit="10" d="M79.061,75.025H66.014"/>
			<path id="prefix__선_165_2_" fill="none" stroke="#000000" stroke-miterlimit="10" d="M81.725,71.5h-6.522"/>
		</g>
		<g>
			<path id="패스_1267_14_" d="M50.033,42.378v-1.31h17.688v1.31H50.033z"/>
			<path id="패스_1267_13_" d="M45,46.714v-1.309h17.688v1.309H45z"/>
			<path id="패스_1267_12_" d="M43.754,51.051v-1.31h17.688v1.31H43.754z"/>
			<path id="패스_1267_11_" d="M41.188,55.389v-1.311h17.688v1.311H41.188z"/>
		</g>
		<g id="prefix__그룹_1991" transform="translate(-593.044 1452.258)">
			<g id="prefix__그룹_1989">
				<path id="prefix__패스_2001" fill="#4CC992" d="M614.945-1418.865c-0.013-6.079,4.905-11.016,10.983-11.028
					c5.259-0.011,9.791,3.701,10.816,8.858c0.062,0.278,0.097,0.562,0.106,0.847c0.063,0.438,0.1,0.879,0.106,1.322
					c0,2.762-1.04,5.422-2.914,7.451c-0.036,0.019-0.07,0.04-0.103,0.062c-0.375,0.271-0.46,0.793-0.19,1.168
					c0.025,0.035,0.054,0.068,0.084,0.1c0.007,0.008,0.016,0.014,0.024,0.022c0.483,0.664,1.064,1.25,1.723,1.742
					c-0.586,0.166-1.192,0.249-1.801,0.247c-0.942,0.009-1.872-0.203-2.716-0.619c-0.052-0.034-0.107-0.062-0.166-0.082
					c-0.259-0.131-0.572-0.097-0.796,0.089c-5.613,2.304-12.031-0.379-14.335-5.992
					C615.222-1416.007,614.943-1417.429,614.945-1418.865z"/>
			</g>
			<g id="prefix__그룹_1990">
				<g id="prefix__icon_normal">
					<g id="prefix__그룹_969">
						<g id="prefix__그룹_968">
							<path id="prefix__패스_1091" fill="#FFFFFF" d="M628.79-1416.81l0.829,0.879c-0.827,1.263-2.225,2.037-3.735,2.067
								c-1.513-0.021-2.914-0.797-3.735-2.067l0.829-0.881c0.962,1.604,3.044,2.126,4.648,1.164
								c0.478-0.286,0.877-0.686,1.164-1.164V-1416.81z M624.5-1422.012c0,0.765-0.345,1.186-1.071,1.186
								c-0.692,0-1.072-0.421-1.072-1.186c0-0.804,0.38-1.186,1.072-1.186C624.155-1423.198,624.501-1422.816,624.5-1422.012
								L624.5-1422.012z M629.413-1422.012c0,0.765-0.347,1.186-1.073,1.186c-0.691,0-1.072-0.421-1.072-1.186
								c0-0.804,0.38-1.186,1.072-1.186C629.066-1423.198,629.414-1422.816,629.413-1422.012L629.413-1422.012z"/>
						</g>
					</g>
				</g>
			</g>
		</g>
		<path id="prefix__선_115" fill="none" stroke="#000000" stroke-miterlimit="10" d="M18.988,49.741H5.272"/>
	</g>
</g>
</svg>
